<svg width="72" height="72" viewBox="0 0 72 72" fill="none" xmlns="http://www.w3.org/2000/svg">
<path d="M36 0C16.119 0 0 16.3714 0 36.5637C0 53.6968 11.616 68.0328 27.276 72C27.108 71.5064 27 70.9336 27 70.2236V63.9743C25.539 63.9743 23.091 63.9743 22.476 63.9743C20.013 63.9743 17.823 62.8987 16.761 60.8999C15.582 58.6786 15.378 55.2813 12.456 53.2032C11.589 52.5116 12.249 51.7224 13.248 51.829C15.093 52.3592 16.623 53.645 18.063 55.5524C19.497 57.4629 20.172 57.8956 22.851 57.8956C24.15 57.8956 26.094 57.8194 27.924 57.5269C28.908 54.9887 30.609 52.6517 32.688 51.5487C20.7 50.2964 14.979 44.239 14.979 36.0152C14.979 32.4747 16.464 29.0499 18.987 26.1644C18.159 23.3002 17.118 17.4592 19.305 15.2349C24.699 15.2349 27.96 18.7876 28.743 19.7474C31.431 18.812 34.383 18.2818 37.485 18.2818C40.593 18.2818 43.557 18.812 46.251 19.7535C47.025 18.7998 50.289 15.2349 55.695 15.2349C57.891 17.4622 56.838 23.3276 56.001 26.1857C58.509 29.0651 59.985 32.4807 59.985 36.0152C59.985 44.2329 54.273 50.2873 42.303 51.5457C45.597 53.2916 48 58.1972 48 61.8932V70.2236C48 70.5405 47.931 70.769 47.895 71.0402C61.923 66.0462 72 52.5176 72 36.5637C72 16.3714 55.881 0 36 0Z" fill="white"/>
</svg>
