<svg width="405" height="415" viewBox="0 0 405 415" fill="none" xmlns="http://www.w3.org/2000/svg">
<g clip-path="url(#clip0_1932_43)">
<g opacity="0.8">
<path d="M65.5145 5.72804L-32.7558 5.86079C-35.0784 5.86079 -36.9481 8.13702 -36.9481 10.0208L-37.2732 73.7993C-37.2732 75.4796 -35.811 78.7781 -32.4297 78.7781H66.3294C68.6897 78.7781 70.5207 76.687 70.5207 74.8885V10.6245C70.5207 7.82211 67.8778 5.72804 65.5145 5.72804ZM66.3294 79.5059H-32.4297C-36.0161 79.5059 -38 76.1307 -38 73.7973L-37.6748 10.0198C-37.6748 7.80756 -35.48 5.13305 -32.7558 5.13305L65.5135 5.00031C68.2261 5.00031 71.2474 7.31047 71.2474 10.6245V74.8885C71.2474 77.0678 69.1445 79.5059 66.3294 79.5059Z" fill="#5E8BFC"/>
<path d="M-36.9174 15.6406C-37.1177 15.6406 -37.2803 15.4779 -37.2812 15.2773C-37.2812 15.0768 -37.1187 14.9131 -36.9183 14.9131L70.5968 14.6341H70.5978C70.7981 14.6341 70.9607 14.7959 70.9607 14.9964C70.9616 15.1969 70.799 15.3607 70.5987 15.3607L-36.9164 15.6406H-36.9174Z" fill="#5E8BFC"/>
<path d="M62.3773 9.79305C62.0338 9.72717 61.668 9.91316 61.4957 10.1922C61.3496 10.4276 61.3283 10.7288 61.457 10.9739C61.5857 11.2181 61.8654 11.3944 62.1625 11.4021C62.597 11.4128 62.9851 11.0437 62.9928 10.6475C63.0015 10.2513 62.6744 9.8502 62.3773 9.79305Z" fill="#5E8BFC"/>
<path d="M54.7035 9.79305C54.36 9.72717 53.9942 9.91316 53.8219 10.1922C53.6758 10.4276 53.6545 10.7288 53.7832 10.9739C53.9119 11.2181 54.1916 11.3944 54.4886 11.4021C54.9232 11.4128 55.3112 11.0437 55.319 10.6475C55.3277 10.2513 55.0006 9.8502 54.7035 9.79305Z" fill="#5E8BFC"/>
<path d="M46.5346 9.79305C46.191 9.72717 45.8262 9.91316 45.6539 10.1922C45.5078 10.4276 45.4865 10.7288 45.6152 10.9739C45.743 11.2181 46.0236 11.3944 46.3207 11.4021C46.7552 11.4128 47.1423 11.0437 47.151 10.6475C47.1597 10.2513 46.8326 9.8502 46.5346 9.79305Z" fill="#5E8BFC"/>
<path d="M49.5459 58.7471C49.5449 58.7471 49.5449 58.7471 49.5449 58.7471C49.3444 58.7471 49.1816 58.5833 49.1816 58.3827L49.2359 29.9457C49.2369 29.7451 49.3996 29.5823 49.6002 29.5823C49.6002 29.5823 49.6001 29.5823 49.6011 29.5823C49.8016 29.5832 49.9644 29.746 49.9634 29.9476L49.9092 58.3837C49.9092 58.5843 49.7464 58.7471 49.5459 58.7471Z" fill="#5E8BFC"/>
<path d="M47.2971 51.7166H51.8493V36.6163H47.2971V51.7166ZM52.2122 52.4443H46.9332C46.7329 52.4443 46.5703 52.2815 46.5703 52.081V36.2529C46.5703 36.0523 46.7329 35.8895 46.9332 35.8895H52.2122C52.4126 35.8895 52.5751 36.0523 52.5751 36.2529V52.081C52.5751 52.2815 52.4126 52.4443 52.2122 52.4443Z" fill="#5E8BFC"/>
<path d="M23.3604 51.4121H23.3594C23.1588 51.4111 22.9961 51.2483 22.9971 51.0468L23.0513 34.4784C23.0523 34.2778 23.2141 34.1159 23.4146 34.1159C23.4156 34.1159 23.4156 34.1159 23.4156 34.1159C23.6171 34.1169 23.7788 34.2797 23.7788 34.4803L23.7236 51.0497C23.7236 51.2503 23.5609 51.4121 23.3604 51.4121Z" fill="#5E8BFC"/>
<path d="M21.1135 47.0125H25.6657V38.518H21.1135V47.0125ZM26.0286 47.7402H20.7506C20.5502 47.7402 20.3867 47.5774 20.3867 47.3768V38.1546C20.3867 37.953 20.5502 37.7902 20.7506 37.7902H26.0286C26.2299 37.7902 26.3925 37.953 26.3925 38.1546V47.3768C26.3925 47.5774 26.2299 47.7402 26.0286 47.7402Z" fill="#5E8BFC"/>
<path d="M-5.07401 63.4568H-0.522737V51.6754H-5.07401V63.4568ZM-0.158865 64.1846H-5.43788C-5.6382 64.1846 -5.80078 64.0218 -5.80078 63.8202V51.311C-5.80078 51.1104 -5.6382 50.9477 -5.43788 50.9477H-0.158865C0.0414572 50.9477 0.204038 51.1104 0.204038 51.311V63.8202C0.204038 64.0218 0.0414572 64.1846 -0.158865 64.1846Z" fill="#5E8BFC"/>
<path d="M36.4522 48.5947C36.4522 48.5947 36.4521 48.5947 36.4512 48.5947C36.2506 48.5938 36.0879 48.431 36.0889 48.2294L36.1431 24.9621C36.144 24.7615 36.3068 24.5997 36.5074 24.5997C36.5074 24.5997 36.5073 24.5997 36.5083 24.5997C36.7088 24.5997 36.8716 24.7635 36.8706 24.964L36.8164 48.2313C36.8154 48.4319 36.6527 48.5947 36.4522 48.5947Z" fill="#5E8BFC"/>
<path d="M39.1218 43.0723V30.1212H33.8428V43.0723H39.1218Z" fill="#5E8BFC"/>
<path d="M34.2053 42.7098H38.7566V30.4865H34.2053V42.7098ZM39.1204 43.4365H33.8414C33.6411 43.4365 33.4785 43.2737 33.4785 43.0731V30.1221C33.4785 29.9215 33.6411 29.7587 33.8414 29.7587H39.1204C39.3208 29.7587 39.4833 29.9215 39.4833 30.1221V43.0731C39.4833 43.2737 39.3208 43.4365 39.1204 43.4365Z" fill="#5E8BFC"/>
<path d="M10.2695 53.5166C10.2686 53.5166 10.2686 53.5166 10.2676 53.5166C10.0671 53.5156 9.90527 53.3528 9.90527 53.1513L9.95953 35.1787C9.9605 34.9781 10.1233 34.8163 10.3238 34.8163H10.3247C10.5253 34.8163 10.688 34.9801 10.6871 35.1807L10.6328 53.1542C10.6319 53.3548 10.4701 53.5166 10.2695 53.5166Z" fill="#5E8BFC"/>
<path d="M12.9333 49.168V39.1637H7.65527V49.168H12.9333Z" fill="#5E8BFC"/>
<path d="M8.01679 48.8016H12.5691V39.526H8.01679V48.8016ZM12.932 49.5293H7.65389C7.4526 49.5293 7.29004 49.3665 7.29004 49.1659V39.1617C7.29004 38.9611 7.4526 38.7983 7.65389 38.7983H12.932C13.1323 38.7983 13.2959 38.9611 13.2959 39.1617V49.1659C13.2959 49.3665 13.1323 49.5293 12.932 49.5293Z" fill="#5E8BFC"/>
<path d="M37.1458 66.5537H37.1449L16.8407 66.421C16.7739 66.42 16.7197 66.3658 16.7197 66.2989C16.7207 66.2321 16.7749 66.1788 16.8416 66.1788L37.1468 66.3115C37.2136 66.3125 37.2668 66.3667 37.2668 66.4336C37.2658 66.5004 37.2126 66.5537 37.1458 66.5537Z" fill="#5E8BFC"/>
<path d="M35.1586 70.5996C35.1586 70.5996 35.1586 70.5996 35.1577 70.5996L18.8241 70.4659C18.7573 70.4659 18.7031 70.4107 18.7041 70.3438C18.7041 70.277 18.7583 70.2237 18.8251 70.2237C18.8251 70.2237 18.8251 70.2237 18.826 70.2237L35.1596 70.3565C35.2273 70.3574 35.2806 70.4117 35.2806 70.4785C35.2796 70.5454 35.2254 70.5996 35.1586 70.5996Z" fill="#5E8BFC"/>
</g>
<g opacity="0.8">
<path d="M374.108 282.601C373.909 285.146 374.033 287.529 374.164 290.051L374.197 290.69L442.981 290.527C442.95 287.23 442.931 283.817 442.914 280.513C442.838 266.584 442.762 252.184 441.775 238.738C431.137 238.738 420.053 238.736 408.777 238.733C397.096 238.731 385.21 238.728 373.401 238.728C373.391 242.53 373.409 246.518 373.425 250.38C373.457 257.987 373.491 265.853 373.332 273.377C373.33 273.482 373.283 273.582 373.202 273.649C368.997 277.138 365.024 280.969 361.38 285.048C366.346 283.936 372.958 282.434 373.568 282.235C373.584 282.226 373.599 282.218 373.616 282.211C373.746 282.161 373.895 282.189 373.996 282.286C374.082 282.366 374.124 282.485 374.108 282.601ZM373.852 291.419C373.658 291.419 373.499 291.267 373.489 291.073L373.438 290.088C373.314 287.707 373.197 285.448 373.348 283.043C372.543 283.267 370.828 283.656 367.124 284.498C363.782 285.258 360.443 286.003 360.443 286.003C360.29 286.037 360.131 285.968 360.051 285.833C359.971 285.698 359.986 285.526 360.091 285.408C363.924 281.027 368.135 276.919 372.609 273.195C372.763 265.731 372.73 257.929 372.698 250.383C372.681 246.397 372.664 242.277 372.676 238.363C372.676 238.163 372.839 238 373.039 238C384.967 238 396.977 238.003 408.777 238.005C420.172 238.008 431.372 238.01 442.113 238.01C442.303 238.01 442.461 238.157 442.476 238.346C443.487 251.915 443.565 266.451 443.641 280.509C443.659 283.935 443.677 287.478 443.71 290.887C443.711 290.984 443.674 291.077 443.606 291.146C443.538 291.215 443.445 291.254 443.348 291.254L373.853 291.419C373.852 291.419 373.852 291.419 373.852 291.419Z" fill="#5E8BFC"/>
<path d="M384.034 280.962C384.003 280.962 383.972 280.949 383.95 280.928C383.927 280.906 383.913 280.875 383.913 280.843L383.4 246.831C383.399 246.764 383.453 246.709 383.519 246.708C383.52 246.708 383.521 246.708 383.521 246.708C383.588 246.708 383.641 246.76 383.642 246.827L384.153 280.717L434.147 279.806C434.224 279.811 434.269 279.858 434.271 279.925C434.272 279.992 434.218 280.047 434.152 280.048L384.036 280.962C384.035 280.962 384.035 280.962 384.034 280.962Z" fill="#5E8BFC"/>
<path d="M394.238 271.814C393.492 271.814 392.674 271.723 391.779 271.54C391.583 271.501 391.456 271.309 391.496 271.111C391.536 270.914 391.728 270.787 391.924 270.827C394.308 271.313 396.069 271.119 397.308 270.231C398.279 269.535 398.989 268.361 399.475 266.644C399.773 265.587 399.965 264.472 400.152 263.394C400.457 261.625 400.772 259.797 401.563 258.133C402.391 256.389 403.961 254.952 405.66 254.381C406.871 253.974 408.056 254.041 409.083 254.575C410.427 255.273 411.192 256.578 411.931 257.839C412.383 258.61 412.851 259.406 413.439 260.038C415.398 262.138 419.121 262.297 421.251 260.371C422.705 259.056 423.39 257.037 423.919 255.246L424.047 254.809C424.581 252.986 425.131 251.102 426.345 249.591C427.652 247.962 430.057 246.815 432.122 247.775C432.304 247.859 432.384 248.076 432.299 248.258C432.214 248.441 431.998 248.52 431.817 248.435C430.108 247.641 428.014 248.672 426.911 250.047C425.788 251.446 425.258 253.26 424.745 255.013L424.617 255.452C424.059 257.338 423.332 259.47 421.737 260.912C419.287 263.127 415.162 262.951 412.908 260.535C412.264 259.844 411.776 259.013 411.305 258.208C410.586 256.982 409.907 255.823 408.748 255.221C407.9 254.78 406.912 254.729 405.892 255.071C404.396 255.574 402.955 256.898 402.219 258.445C401.472 260.018 401.178 261.718 400.868 263.518C400.678 264.615 400.482 265.749 400.173 266.841C399.641 268.724 398.842 270.028 397.731 270.823C396.806 271.485 395.652 271.814 394.238 271.814Z" fill="#5E8BFC"/>
<path d="M390.239 260.913C390.054 260.913 389.896 260.772 389.878 260.584C389.858 260.385 390.004 260.206 390.203 260.186C391.205 260.086 392.186 260.046 393.152 260.072C393.352 260.077 393.511 260.244 393.505 260.446C393.5 260.646 393.325 260.806 393.132 260.799C392.2 260.775 391.247 260.814 390.275 260.911C390.263 260.912 390.25 260.913 390.239 260.913ZM398.803 261.948C398.753 261.948 398.703 261.937 398.653 261.915C397.862 261.554 396.957 261.277 395.964 261.089C395.767 261.051 395.637 260.861 395.675 260.664C395.711 260.466 395.902 260.336 396.099 260.374C397.149 260.573 398.109 260.868 398.954 261.252C399.137 261.335 399.218 261.551 399.134 261.734C399.073 261.868 398.942 261.948 398.803 261.948ZM432.417 262.369C432.392 262.369 432.368 262.366 432.342 262.36C431.541 262.195 430.671 262.16 429.813 262.261C429.618 262.284 429.433 262.141 429.41 261.942C429.387 261.741 429.529 261.561 429.729 261.538C430.663 261.428 431.614 261.466 432.49 261.648C432.687 261.69 432.813 261.882 432.772 262.078C432.736 262.25 432.585 262.369 432.417 262.369ZM424.809 264.958C424.733 264.958 424.658 264.935 424.593 264.887C424.431 264.766 424.397 264.539 424.516 264.378C424.798 263.998 425.085 263.674 425.396 263.388C425.805 263.011 426.289 262.678 426.833 262.399C427.011 262.307 427.23 262.378 427.322 262.557C427.414 262.736 427.343 262.955 427.164 263.046C426.678 263.296 426.248 263.591 425.888 263.923C425.612 264.178 425.354 264.468 425.101 264.811C425.029 264.907 424.92 264.958 424.809 264.958ZM403.088 265.78C402.982 265.78 402.878 265.735 402.805 265.645C402.677 265.488 402.55 265.329 402.425 265.172C401.964 264.593 401.487 263.996 400.945 263.468C400.801 263.327 400.798 263.098 400.937 262.953C401.078 262.809 401.308 262.806 401.451 262.946C402.026 263.506 402.518 264.121 402.992 264.717C403.118 264.874 403.242 265.031 403.369 265.187C403.496 265.343 403.472 265.572 403.316 265.699C403.249 265.754 403.168 265.78 403.088 265.78ZM421.299 269.536C421.185 269.536 421.073 269.483 421.002 269.383C420.886 269.219 420.925 268.991 421.089 268.875C421.521 268.568 421.904 268.227 422.228 267.861C422.478 267.579 422.713 267.262 422.969 266.866C423.077 266.697 423.302 266.649 423.47 266.758C423.639 266.867 423.688 267.092 423.579 267.261C423.304 267.688 423.046 268.032 422.771 268.343C422.411 268.75 421.987 269.129 421.509 269.469C421.445 269.514 421.372 269.536 421.299 269.536ZM407.479 269.538C407.418 269.538 407.357 269.522 407.3 269.49C406.438 269 405.62 268.426 404.867 267.784C404.715 267.653 404.697 267.424 404.827 267.27C404.957 267.118 405.187 267.1 405.339 267.23C406.057 267.843 406.837 268.391 407.659 268.858C407.833 268.958 407.894 269.179 407.796 269.354C407.729 269.472 407.606 269.538 407.479 269.538ZM412.959 271.369C412.944 271.369 412.929 271.368 412.915 271.367C412.757 271.348 412.6 271.327 412.445 271.302C411.625 271.173 410.806 270.972 410.013 270.706C409.823 270.642 409.72 270.436 409.784 270.245C409.848 270.055 410.053 269.953 410.244 270.017C410.999 270.27 411.777 270.46 412.557 270.583C412.705 270.606 412.853 270.626 413.002 270.645C413.2 270.669 413.343 270.85 413.319 271.05C413.296 271.234 413.139 271.369 412.959 271.369ZM415.859 271.404C415.674 271.404 415.515 271.264 415.498 271.075C415.479 270.875 415.626 270.698 415.826 270.678C416.791 270.588 417.72 270.397 418.588 270.111C418.778 270.047 418.984 270.151 419.047 270.341C419.109 270.532 419.006 270.739 418.815 270.802C417.896 271.105 416.913 271.307 415.894 271.403C415.882 271.404 415.87 271.404 415.859 271.404Z" fill="#5E8BFC"/>
</g>
<g opacity="0.8">
<path d="M64.3813 361.728C61.7113 361.728 58.7258 364.269 58.7258 367.669V427.021C58.7258 429.21 60.7977 431.755 63.4687 431.755H142.174C145.699 431.755 147.648 428.183 147.648 425.714L147.283 366.948C147.283 364.655 145.167 361.888 142.54 361.888L64.3813 361.728ZM142.174 432.482H63.4687C60.3381 432.482 57.999 429.599 57.999 427.021V367.669C57.999 363.739 61.3629 361 64.3813 361L142.541 361.161C145.57 361.161 148.01 364.326 148.01 366.946L148.375 425.711C148.375 428.481 146.167 432.482 142.174 432.482Z" fill="#5E8BFC"/>
<path d="M147.621 370.789C147.62 370.789 147.62 370.789 147.619 370.789L58.361 370.488C58.1607 370.488 57.9981 370.324 57.999 370.123C58 369.922 58.1616 369.76 58.3619 369.76C58.3629 369.76 58.3629 369.76 58.3629 369.76L147.622 370.061C147.822 370.061 147.985 370.225 147.984 370.426C147.983 370.626 147.82 370.789 147.621 370.789Z" fill="#5E8BFC"/>
<path d="M65.2515 365.178C65.5873 365.114 65.9454 365.296 66.1138 365.569C66.257 365.8 66.2773 366.095 66.1525 366.334C66.0267 366.573 65.7519 366.747 65.4616 366.754C65.0357 366.764 64.6564 366.403 64.6486 366.015C64.6399 365.627 64.9602 365.234 65.2515 365.178Z" fill="#5E8BFC"/>
<path d="M72.7602 365.178C73.096 365.114 73.4532 365.296 73.6225 365.569C73.7657 365.8 73.7861 366.095 73.6603 366.334C73.5345 366.573 73.2606 366.747 72.9693 366.754C72.5444 366.764 72.1651 366.403 72.1564 366.015C72.1486 365.627 72.4689 365.234 72.7602 365.178Z" fill="#5E8BFC"/>
<path d="M80.7544 365.178C81.0902 365.114 81.4483 365.296 81.6167 365.569C81.7599 365.8 81.7802 366.095 81.6544 366.334C81.5296 366.573 81.2548 366.747 80.9644 366.754C80.5386 366.764 80.1593 366.403 80.1515 366.015C80.1428 365.627 80.4632 365.234 80.7544 365.178Z" fill="#5E8BFC"/>
<path d="M109.896 382.295C109.83 382.295 109.775 382.241 109.774 382.174C109.774 382.107 109.829 382.053 109.895 382.052L129.769 381.922C129.836 381.922 129.89 381.975 129.891 382.042C129.891 382.109 129.837 382.164 129.77 382.164L109.896 382.295Z" fill="#5E8BFC"/>
<path d="M111.841 386.254C111.775 386.254 111.721 386.2 111.72 386.133C111.72 386.066 111.773 386.012 111.84 386.011L127.828 385.881H127.829C127.895 385.881 127.949 385.934 127.95 386.001C127.95 386.068 127.897 386.122 127.83 386.123L111.842 386.254H111.841Z" fill="#5E8BFC"/>
<path d="M109.896 390.213C109.83 390.213 109.775 390.16 109.774 390.093C109.774 390.026 109.829 389.971 109.895 389.971L129.769 389.84C129.836 389.84 129.89 389.894 129.891 389.961C129.891 390.028 129.837 390.082 129.77 390.082L109.896 390.213Z" fill="#5E8BFC"/>
<path d="M114.182 416.481H120.377V410.902H114.182V416.481ZM120.741 417.209H113.819C113.618 417.209 113.455 417.046 113.455 416.846V410.539C113.455 410.338 113.618 410.175 113.819 410.175H120.741C120.942 410.175 121.104 410.338 121.104 410.539V416.846C121.104 417.046 120.942 417.209 120.741 417.209Z" fill="#5E8BFC"/>
<path d="M101.403 416.481H107.598V403.52H101.403V416.481ZM107.961 417.209H101.039C100.838 417.209 100.676 417.046 100.676 416.846V403.156C100.676 402.954 100.838 402.792 101.039 402.792H107.961C108.162 402.792 108.325 402.954 108.325 403.156V416.846C108.325 417.046 108.162 417.209 107.961 417.209Z" fill="#5E8BFC"/>
<path d="M88.2656 416.846V395.763H95.1879V416.846H88.2656Z" fill="#5E8BFC"/>
<path d="M88.6281 416.481H94.8246V396.127H88.6281V416.481ZM95.1875 417.209H88.2652C88.0649 417.209 87.9014 417.046 87.9014 416.846V395.763C87.9014 395.562 88.0649 395.399 88.2652 395.399H95.1875C95.3878 395.399 95.5504 395.562 95.5504 395.763V416.846C95.5504 417.046 95.3878 417.209 95.1875 417.209Z" fill="#5E8BFC"/>
<path d="M75.8488 416.481H82.0443V387.132H75.8488V416.481ZM82.4082 417.209H75.485C75.2847 417.209 75.1221 417.046 75.1221 416.846V386.768C75.1221 386.567 75.2847 386.403 75.485 386.403H82.4082C82.6085 386.403 82.7711 386.567 82.7711 386.768V416.846C82.7711 417.046 82.6085 417.209 82.4082 417.209Z" fill="#5E8BFC"/>
<path d="M106.456 406.211H102.548C102.481 406.211 102.427 406.156 102.427 406.09C102.427 406.023 102.481 405.969 102.548 405.969H106.456C106.524 405.969 106.578 406.023 106.578 406.09C106.578 406.156 106.524 406.211 106.456 406.211Z" fill="#5E8BFC"/>
<path d="M106.456 408.817H102.548C102.481 408.817 102.427 408.763 102.427 408.696C102.427 408.629 102.481 408.575 102.548 408.575H106.456C106.524 408.575 106.578 408.629 106.578 408.696C106.578 408.763 106.524 408.817 106.456 408.817Z" fill="#5E8BFC"/>
<path d="M106.456 411.425H102.548C102.481 411.425 102.427 411.37 102.427 411.304C102.427 411.236 102.481 411.183 102.548 411.183H106.456C106.524 411.183 106.578 411.236 106.578 411.304C106.578 411.37 106.524 411.425 106.456 411.425Z" fill="#5E8BFC"/>
<path d="M106.456 414.033H102.548C102.481 414.033 102.427 413.979 102.427 413.911C102.427 413.844 102.481 413.79 102.548 413.79H106.456C106.524 413.79 106.578 413.844 106.578 413.911C106.578 413.979 106.524 414.033 106.456 414.033Z" fill="#5E8BFC"/>
</g>
<g opacity="0.8">
<path d="M340.191 47.5401C352.629 47.5401 366.716 47.5779 381.623 47.6167C396.528 47.6554 411.938 47.6961 425.531 47.6971C425.531 39.3169 425.551 30.4019 425.571 20.9713C425.593 11.501 425.615 1.70997 425.615 -7.52292C409.832 -7.52486 394.463 -7.58397 379.597 -7.64114C365.649 -7.69444 352.467 -7.74483 339.732 -7.7458L339.733 -7.65763C339.956 10.1967 340.187 28.6557 340.191 47.5401ZM425.894 48.4248C412.212 48.4248 396.661 48.3841 381.621 48.3444C366.57 48.3047 352.353 48.2669 339.827 48.2669C339.627 48.2669 339.465 48.1041 339.465 47.9035C339.465 28.897 339.231 10.3188 339.006 -7.64793L339 -8.1053C338.999 -8.20221 339.037 -8.2962 339.106 -8.365C339.173 -8.43477 339.266 -8.47354 339.364 -8.47354C352.215 -8.47354 365.516 -8.42217 379.6 -8.36791C394.579 -8.31073 410.069 -8.25163 425.979 -8.25163C426.179 -8.25163 426.342 -8.08786 426.342 -7.88728C426.342 1.45414 426.319 11.377 426.299 20.9733C426.278 30.5405 426.257 39.5766 426.257 48.0604C426.257 48.262 426.095 48.4248 425.894 48.4248Z" fill="#5E8BFC"/>
<path d="M374.76 20.915C374.653 20.915 374.548 20.8685 374.476 20.7794C374.35 20.6224 374.377 20.3927 374.532 20.2677L388.532 9.0464C388.642 8.95822 388.794 8.94175 388.92 9.00474L399.703 14.3586L411.913 2.35817C412.057 2.21669 412.286 2.2196 412.427 2.36205C412.568 2.50547 412.566 2.7361 412.422 2.87661L400.029 15.0592C399.918 15.1677 399.751 15.1939 399.612 15.1251L388.805 9.75959L374.987 20.8356C374.92 20.8898 374.84 20.915 374.76 20.915Z" fill="#5E8BFC"/>
<path d="M375.123 36.9715H380.365V24.8325H375.123V36.9715ZM380.727 37.6992H374.759C374.559 37.6992 374.396 37.5364 374.396 37.3358V24.4691C374.396 24.2675 374.559 24.1047 374.759 24.1047H380.727C380.928 24.1047 381.09 24.2675 381.09 24.4691V37.3358C381.09 37.5364 380.928 37.6992 380.727 37.6992Z" fill="#5E8BFC"/>
<path d="M386.139 36.8787H391.38V17.4362H386.139V36.8787ZM391.743 37.6064H385.775C385.575 37.6064 385.412 37.4436 385.412 37.2421V17.0718C385.412 16.8712 385.575 16.7084 385.775 16.7084H391.743C391.943 16.7084 392.107 16.8712 392.107 17.0718V37.2421C392.107 37.4436 391.943 37.6064 391.743 37.6064Z" fill="#5E8BFC"/>
<path d="M402.759 37.3379V20.5534H396.791V37.3379H402.759Z" fill="#5E8BFC"/>
<path d="M397.154 36.9715H402.395V20.9147H397.154V36.9715ZM402.758 37.6992H396.79C396.589 37.6992 396.427 37.5364 396.427 37.3358V20.5513C396.427 20.3507 396.589 20.1879 396.79 20.1879H402.758C402.959 20.1879 403.122 20.3507 403.122 20.5513V37.3358C403.122 37.5364 402.959 37.6992 402.758 37.6992Z" fill="#5E8BFC"/>
<path d="M390.444 29.9668H387.074C387.006 29.9668 386.952 29.9125 386.952 29.8457C386.952 29.7779 387.006 29.7236 387.074 29.7236H390.444C390.511 29.7236 390.565 29.7779 390.565 29.8457C390.565 29.9125 390.511 29.9668 390.444 29.9668Z" fill="#5E8BFC"/>
<path d="M390.444 31.7588H387.074C387.006 31.7588 386.952 31.7045 386.952 31.6377C386.952 31.5709 387.006 31.5166 387.074 31.5166H390.444C390.511 31.5166 390.565 31.5709 390.565 31.6377C390.565 31.7045 390.511 31.7588 390.444 31.7588Z" fill="#5E8BFC"/>
<path d="M390.444 33.5498H387.074C387.006 33.5498 386.952 33.4956 386.952 33.4287C386.952 33.3619 387.006 33.3076 387.074 33.3076H390.444C390.511 33.3076 390.565 33.3619 390.565 33.4287C390.565 33.4956 390.511 33.5498 390.444 33.5498Z" fill="#5E8BFC"/>
<path d="M390.444 35.3438H387.074C387.006 35.3438 386.952 35.2885 386.952 35.2217C386.952 35.1548 387.006 35.1006 387.074 35.1006H390.444C390.511 35.1006 390.565 35.1548 390.565 35.2217C390.565 35.2885 390.511 35.3438 390.444 35.3438Z" fill="#5E8BFC"/>
<path d="M390.444 22.7969H387.074C387.006 22.7969 386.952 22.7417 386.952 22.6748C386.952 22.608 387.006 22.5537 387.074 22.5537H390.444C390.511 22.5537 390.565 22.608 390.565 22.6748C390.565 22.7417 390.511 22.7969 390.444 22.7969Z" fill="#5E8BFC"/>
<path d="M390.444 24.5908H387.074C387.006 24.5908 386.952 24.5366 386.952 24.4697C386.952 24.4019 387.006 24.3486 387.074 24.3486H390.444C390.511 24.3486 390.565 24.4019 390.565 24.4697C390.565 24.5366 390.511 24.5908 390.444 24.5908Z" fill="#5E8BFC"/>
<path d="M390.444 26.3828H387.074C387.006 26.3828 386.952 26.3286 386.952 26.2617C386.952 26.1949 387.006 26.1406 387.074 26.1406H390.444C390.511 26.1406 390.565 26.1949 390.565 26.2617C390.565 26.3286 390.511 26.3828 390.444 26.3828Z" fill="#5E8BFC"/>
<path d="M390.444 28.1758H387.074C387.006 28.1758 386.952 28.1225 386.952 28.0547C386.952 27.9878 387.006 27.9336 387.074 27.9336H390.444C390.511 27.9336 390.565 27.9878 390.565 28.0547C390.565 28.1225 390.511 28.1758 390.444 28.1758Z" fill="#5E8BFC"/>
<path d="M390.444 19.2148H387.074C387.006 19.2148 386.952 19.1606 386.952 19.0938C386.952 19.0269 387.006 18.9727 387.074 18.9727H390.444C390.511 18.9727 390.565 19.0269 390.565 19.0938C390.565 19.1606 390.511 19.2148 390.444 19.2148Z" fill="#5E8BFC"/>
<path d="M390.444 21.0078H387.074C387.006 21.0078 386.952 20.9526 386.952 20.8857C386.952 20.8189 387.006 20.7647 387.074 20.7647H390.444C390.511 20.7647 390.565 20.8189 390.565 20.8857C390.565 20.9526 390.511 21.0078 390.444 21.0078Z" fill="#5E8BFC"/>
<path d="M368.445 35.9404H368.444L348.57 35.8125C348.503 35.8125 348.449 35.7583 348.45 35.6915C348.45 35.6246 348.508 35.5655 348.572 35.5704L368.445 35.6982C368.512 35.6982 368.566 35.7535 368.566 35.8203C368.565 35.8871 368.512 35.9404 368.445 35.9404Z" fill="#5E8BFC"/>
<path d="M366.501 32.0742H366.5L350.513 31.9473C350.445 31.9464 350.392 31.8921 350.392 31.8253C350.393 31.7584 350.447 31.7051 350.514 31.7051C350.514 31.7051 350.514 31.7051 350.515 31.7051L366.502 31.832C366.568 31.833 366.623 31.8873 366.622 31.9541C366.622 32.0209 366.567 32.0742 366.501 32.0742Z" fill="#5E8BFC"/>
</g>
<g opacity="0.8">
<path d="M19.6791 233.779C13.5262 233.779 8.52008 238.792 8.52008 244.953V261.29C8.52008 264.318 9.71136 267.152 11.8743 269.274C11.9197 269.318 11.9536 269.373 11.9701 269.434C12.3126 270.65 12.6794 272.068 12.7133 273.506C12.7569 275.348 12.2197 276.973 11.2017 278.082C10.8727 278.44 10.4904 278.751 10.1207 279.051C9.46556 279.582 8.84718 280.085 8.57718 280.793C8.32847 281.447 8.41652 282.182 8.51039 282.959C8.60523 283.756 8.70394 284.579 8.43781 285.375C8.23749 285.975 7.86201 286.461 7.49813 286.931C7.21846 287.294 6.95427 287.636 6.77427 288.015C6.2991 289.019 6.45394 290.19 6.79265 291.369C7.56974 289.13 9.11234 287.892 10.3878 286.868C11.3188 286.121 12.123 285.477 12.3204 284.658C12.6727 283.199 14.1678 281.669 15.4936 280.8C16.1517 280.369 16.861 280.027 17.5481 279.694C18.124 279.415 18.721 279.127 19.2688 278.793C21.3988 277.495 22.9985 275.287 23.6594 272.737C23.701 272.576 23.8452 272.464 24.0117 272.464H64.893C71.0459 272.464 76.052 267.452 76.052 261.29V244.953C76.052 238.792 71.0459 233.779 64.893 233.779H19.6791ZM6.82847 293.018C6.67556 293.018 6.53717 292.921 6.48588 292.774C5.88878 291.078 5.36813 289.288 6.11717 287.703C6.33104 287.252 6.63201 286.862 6.9233 286.486C7.26491 286.044 7.58814 285.627 7.74879 285.144C7.96266 284.504 7.87846 283.795 7.78846 283.046C7.68878 282.216 7.58524 281.356 7.89879 280.534C8.2375 279.643 8.96234 279.054 9.66298 278.485C10.0288 278.189 10.3733 277.909 10.6665 277.589C11.5568 276.62 12.0252 275.176 11.9865 273.523C11.9565 272.205 11.6188 270.876 11.2965 269.724C9.03684 267.474 7.7933 264.483 7.7933 261.29V244.953C7.7933 238.391 13.1256 233.051 19.6791 233.051H64.893C71.4465 233.051 76.7788 238.391 76.7788 244.953V261.29C76.7788 267.853 71.4465 273.191 64.893 273.191H24.2885C23.5394 275.809 21.8594 278.065 19.6462 279.414C19.0685 279.767 18.4559 280.063 17.8636 280.349C17.1978 280.671 16.5097 281.005 15.8914 281.41C14.7252 282.174 13.3307 283.571 13.0269 284.828C12.7704 285.889 11.8772 286.606 10.8427 287.436C9.37266 288.615 7.70814 289.951 7.18556 292.721C7.15556 292.883 7.02008 293.004 6.85653 293.017C6.84686 293.017 6.83814 293.018 6.82847 293.018Z" fill="#5E8BFC"/>
<path d="M28.9295 241.788H28.9286L16.8163 241.658C16.7495 241.657 16.6963 241.602 16.6973 241.535C16.6973 241.468 16.7534 241.415 16.8192 241.415L28.9315 241.546C28.9982 241.547 29.0515 241.601 29.0505 241.669C29.0505 241.735 28.9963 241.788 28.9295 241.788Z" fill="#5E8BFC"/>
<path d="M25.2966 244.927C25.2957 244.927 25.2947 244.927 25.2947 244.927L16.8163 244.797C16.7495 244.796 16.6963 244.741 16.6973 244.674C16.6982 244.607 16.7573 244.551 16.8202 244.554L25.2986 244.685C25.3653 244.686 25.4186 244.741 25.4176 244.808C25.4166 244.874 25.3625 244.927 25.2966 244.927Z" fill="#5E8BFC"/>
<path d="M55.1958 248.584V265.686L61.9651 265.783L61.9497 248.584L66.2484 248.504L58.4967 239.3L50.7451 248.466L55.1958 248.584Z" fill="#5E8BFC"/>
<path d="M55.559 265.326L61.6006 265.412L61.5861 248.582C61.5861 248.383 61.7448 248.221 61.9432 248.219L65.4774 248.153L58.4951 239.862L51.5109 248.121L55.2048 248.219C55.4022 248.223 55.559 248.384 55.559 248.582V265.326ZM61.9644 266.145C61.9625 266.145 61.9606 266.145 61.9587 266.145L55.1902 266.049C54.9919 266.046 54.8322 265.883 54.8322 265.684V248.937L50.7338 248.827C50.5945 248.823 50.4696 248.74 50.4125 248.612C50.3554 248.484 50.3767 248.335 50.4667 248.228L58.2183 239.062C58.287 238.981 58.3887 238.933 58.4951 238.933C58.4961 238.933 58.4961 238.933 58.4961 238.933C58.6025 238.933 58.7041 238.981 58.7728 239.063L66.5244 248.268C66.6154 248.375 66.6358 248.525 66.5777 248.653C66.5206 248.781 66.3938 248.864 66.2535 248.866L62.3128 248.938L62.3273 265.78C62.3273 265.878 62.2886 265.971 62.2199 266.04C62.1512 266.107 62.0602 266.145 61.9644 266.145Z" fill="#5E8BFC"/>
<path d="M23.1859 260.341C23.0988 260.341 23.0137 260.31 22.9469 260.252L18.984 256.795C18.833 256.663 18.8166 256.434 18.9492 256.282C19.0798 256.13 19.3101 256.115 19.4611 256.247L23.1433 259.458L29.9253 251.254C30.0356 251.121 30.2253 251.084 30.3782 251.167L36.0337 254.23L43.0943 244.527C43.2124 244.364 43.4398 244.329 43.6024 244.448C43.764 244.566 43.7998 244.793 43.6817 244.956L36.4333 254.915C36.3269 255.063 36.1266 255.108 35.9669 255.022L30.295 251.949L23.4656 260.209C23.4037 260.285 23.3127 260.332 23.215 260.34C23.2053 260.341 23.1956 260.341 23.1859 260.341Z" fill="#5E8BFC"/>
</g>
<g opacity="0.8">
<path d="M303.598 258.728C299.311 258.775 295.211 261.93 294.061 266.068C292.911 270.201 294.79 275.026 298.431 277.294C302.067 279.558 307.222 279.115 310.424 276.262C313.62 273.413 314.662 268.336 312.846 264.453C311.1 260.72 306.841 258.727 303.68 258.727C303.652 258.727 303.625 258.728 303.598 258.728ZM303.66 279.459C301.685 279.459 299.717 278.951 298.047 277.912C294.142 275.481 292.129 270.305 293.361 265.872C294.594 261.435 298.992 258.051 303.59 258C303.619 258 303.649 258 303.678 258C307.065 258 311.631 260.138 313.504 264.145C315.451 268.307 314.334 273.75 310.907 276.806C308.944 278.555 306.297 279.459 303.66 279.459Z" fill="#5E8BFC"/>
<path d="M303.501 274.009C302.841 274.009 302.216 273.9 301.682 273.69C300.739 273.317 300.092 272.613 299.99 271.853C299.964 271.653 300.105 271.47 300.303 271.444C300.503 271.417 300.685 271.557 300.711 271.757C300.776 272.248 301.262 272.741 301.949 273.013C302.61 273.273 303.45 273.348 304.316 273.22C305.409 273.059 306.287 272.59 306.607 271.997C306.959 271.345 306.61 270.632 306.166 270.182C305.66 269.671 304.858 269.245 303.78 268.916C303.604 268.862 303.423 268.811 303.241 268.759C302.366 268.513 301.462 268.256 300.852 267.672C300.374 267.214 300.176 266.582 300.308 265.938C300.469 265.15 301.094 264.462 301.939 264.144C303.416 263.588 305.413 264.083 306.298 265.227C306.421 265.385 306.392 265.614 306.234 265.737C306.076 265.86 305.847 265.831 305.724 265.672C305.028 264.775 303.379 264.379 302.195 264.825C301.581 265.056 301.13 265.539 301.019 266.083C300.938 266.483 301.057 266.86 301.354 267.145C301.834 267.605 302.65 267.836 303.439 268.059C303.625 268.112 303.811 268.165 303.992 268.22C305.204 268.589 306.083 269.064 306.682 269.671C307.47 270.468 307.692 271.517 307.247 272.343C306.813 273.146 305.757 273.743 304.423 273.94C304.112 273.985 303.803 274.009 303.501 274.009Z" fill="#5E8BFC"/>
<path d="M303.292 264.58C303.096 264.58 302.934 264.424 302.928 264.227L302.864 262.195C302.858 261.994 303.016 261.827 303.216 261.821C303.418 261.807 303.585 261.972 303.591 262.173L303.655 264.205C303.662 264.406 303.504 264.573 303.303 264.579C303.299 264.58 303.296 264.58 303.292 264.58Z" fill="#5E8BFC"/>
<path d="M313.001 317.908H313.04C314.201 317.927 315.362 317.946 316.524 317.972C319.654 318.039 322.89 318.121 326.417 318.221L327.197 318.243C327.096 316.018 326.709 305.113 328.632 303.244C331.424 300.53 330.787 286.754 329.674 284.708C329.379 284.167 328.625 284.013 328.01 284.099C327.423 284.182 326.682 284.526 326.526 285.225C326.486 285.404 326.319 285.527 326.134 285.507C325.951 285.489 325.811 285.336 325.808 285.152C325.784 283.709 324.591 282.531 323.812 282.384C323.141 282.257 322.675 282.494 322.086 283.253C322.011 283.351 321.889 283.404 321.767 283.393C321.643 283.381 321.534 283.309 321.477 283.198C320.951 282.187 320.41 281.268 319.578 281.134C318.699 280.993 317.679 281.77 317.2 282.604C317.119 282.746 316.952 282.816 316.794 282.775C316.635 282.733 316.524 282.591 316.522 282.427C316.509 281.257 316.5 280.172 316.49 279.164C316.399 269.233 316.324 267.131 314.753 267.108C314.744 267.108 314.736 267.108 314.729 267.108C314.086 267.108 313.192 267.5 312.713 270.705C312.345 273.163 312.295 276.691 312.236 280.777C312.194 283.715 312.146 287.046 311.971 290.493C311.956 290.784 311.771 292.424 311.55 292.84C311.492 292.949 311.384 293.021 311.261 293.032C311.138 293.042 311.018 292.99 310.943 292.892C310.881 292.813 310.82 292.711 310.741 292.582C310.272 291.807 309.024 289.745 304.188 287.563C302.796 286.934 300.524 287.337 300.3 287.7C300.301 287.702 300.303 287.706 300.306 287.709C301.046 288.835 301.72 289.401 302.575 290.118C303.02 290.492 303.525 290.917 304.096 291.473C305.952 293.281 307.485 296.753 308.717 299.544C309.477 301.265 310.194 302.89 310.697 303.39C314.602 306.714 313.911 311.461 313.301 315.651C313.187 316.437 313.078 317.186 313.001 317.908ZM327.579 318.982C327.575 318.982 327.571 318.982 327.569 318.982L326.397 318.948C322.871 318.848 319.637 318.766 316.508 318.698C315.348 318.673 314.189 318.655 313.028 318.636L312.595 318.629C312.493 318.627 312.397 318.583 312.33 318.508C312.263 318.433 312.23 318.332 312.239 318.231C312.316 317.371 312.446 316.484 312.582 315.545C313.165 311.539 313.826 306.999 310.217 303.936C310.21 303.931 310.204 303.926 310.199 303.92C309.594 303.331 308.913 301.789 308.052 299.838C306.845 297.105 305.344 293.704 303.59 291.994C303.038 291.457 302.565 291.06 302.107 290.675C301.243 289.95 300.497 289.323 299.7 288.109C299.508 287.818 299.527 287.488 299.751 287.226C300.417 286.444 303.073 286.26 304.487 286.899C308.789 288.841 310.39 290.728 311.079 291.756C311.16 291.275 311.232 290.704 311.245 290.456C311.42 287.022 311.467 283.698 311.509 280.766C311.568 276.654 311.619 273.104 311.994 270.598C312.265 268.784 312.844 266.38 314.73 266.38C314.741 266.38 314.752 266.38 314.763 266.38C316.19 266.401 316.639 267.491 316.873 269.122C317.141 270.984 317.17 274.06 317.217 279.157C317.223 279.862 317.23 280.605 317.238 281.388C317.904 280.736 318.815 280.273 319.694 280.415C320.746 280.585 321.409 281.554 321.87 282.388C322.359 281.877 323.001 281.492 323.946 281.668C324.799 281.829 325.933 282.776 326.362 284.104C326.742 283.728 327.282 283.466 327.909 283.379C328.963 283.23 329.907 283.616 330.312 284.36C331.606 286.736 332.222 300.768 329.138 303.766C327.936 304.933 327.586 312.225 327.942 318.598C327.947 318.7 327.91 318.799 327.84 318.872C327.771 318.943 327.677 318.982 327.579 318.982Z" fill="#5E8BFC"/>
<path d="M329.279 311.694C329.225 315.262 329.376 317.223 329.179 320.288C329.164 320.536 329.136 320.806 328.961 320.982C328.764 321.18 328.451 321.186 328.172 321.18C322.519 321.055 316.867 320.931 311.213 320.807C310.924 320.801 310.596 320.777 310.41 320.556C310.255 320.372 310.248 320.109 310.249 319.87C310.255 316.922 310.262 313.975 310.382 311.127C310.59 310.527 311.384 310.435 312.017 310.448C317.495 310.558 322.972 310.668 328.449 310.778C328.725 310.784 329.286 311.137 329.279 311.694Z" fill="#5E8BFC"/>
<path d="M310.746 311.205C310.629 314.028 310.623 316.998 310.616 319.872C310.616 320.015 310.615 320.233 310.692 320.324C310.776 320.423 310.998 320.441 311.226 320.445L328.185 320.818C328.388 320.823 328.616 320.82 328.709 320.727C328.791 320.645 328.809 320.455 328.821 320.268C328.942 318.377 328.93 316.909 328.916 315.211C328.908 314.147 328.899 313.047 328.919 311.69C328.924 311.359 328.549 311.149 328.446 311.144L312.015 310.813C311.517 310.8 310.909 310.865 310.746 311.205ZM328.3 321.548C328.254 321.548 328.209 321.547 328.168 321.546L311.21 321.173C310.943 321.167 310.444 321.156 310.137 320.793C309.889 320.499 309.89 320.121 309.89 319.871C309.896 316.969 309.903 313.968 310.023 311.113C310.024 311.078 310.031 311.043 310.043 311.009C310.263 310.374 310.931 310.067 312.029 310.085L328.462 310.417C328.941 310.426 329.658 310.943 329.646 311.702C329.626 313.049 329.634 314.145 329.643 315.204C329.657 316.917 329.669 318.398 329.546 320.314C329.531 320.555 329.505 320.958 329.223 321.241C328.95 321.515 328.575 321.548 328.3 321.548Z" fill="#5E8BFC"/>
<path d="M317.161 318.669C317.16 318.669 317.16 318.669 317.159 318.669L312.451 318.619C312.384 318.619 312.33 318.564 312.331 318.497C312.332 318.431 312.386 318.377 312.452 318.377C312.453 318.377 312.453 318.377 312.453 318.377L317.162 318.426C317.229 318.427 317.282 318.482 317.282 318.549C317.281 318.614 317.227 318.669 317.161 318.669Z" fill="#5E8BFC"/>
<path d="M314.39 316.967C314.39 316.967 314.389 316.967 314.388 316.967L312.556 316.94C312.489 316.939 312.436 316.884 312.437 316.816C312.438 316.75 312.492 316.697 312.558 316.697C312.558 316.697 312.559 316.697 312.559 316.697L314.392 316.725C314.459 316.726 314.512 316.781 314.511 316.848C314.51 316.913 314.456 316.967 314.39 316.967Z" fill="#5E8BFC"/>
<path d="M331.297 258.728C327.009 258.775 322.909 261.93 321.759 266.068C320.61 270.201 322.488 275.026 326.129 277.294C329.766 279.558 334.922 279.115 338.122 276.262C341.319 273.413 342.361 268.336 340.544 264.453C338.798 260.72 334.539 258.727 331.379 258.727C331.351 258.727 331.324 258.728 331.297 258.728ZM331.358 279.459C329.384 279.459 327.415 278.951 325.746 277.912C321.841 275.481 319.827 270.305 321.059 265.872C322.293 261.435 326.691 258.051 331.289 258C331.318 258 331.347 258 331.376 258C334.763 258 339.33 260.138 341.202 264.145C343.149 268.307 342.033 273.751 338.605 276.806C336.643 278.554 333.996 279.459 331.358 279.459Z" fill="#5E8BFC"/>
<path d="M331.564 274.624C331.49 274.624 331.417 274.621 331.345 274.616C328.679 274.42 327.217 272.549 327 269.058L326.993 268.945C326.904 267.591 327.149 266.341 327.704 265.331C328.356 264.142 329.483 263.254 330.72 262.958C332.125 262.621 333.63 263.063 334.467 264.059C334.596 264.213 334.577 264.442 334.423 264.571C334.27 264.701 334.041 264.682 333.911 264.528C333.258 263.75 332.016 263.395 330.89 263.665C329.848 263.915 328.896 264.669 328.341 265.682C327.854 266.569 327.639 267.681 327.718 268.898L327.726 269.012C327.849 271 328.364 273.667 331.399 273.89C332.496 273.973 334.145 273.203 334.397 272.277C334.449 272.083 334.647 271.969 334.843 272.022C335.036 272.075 335.151 272.275 335.097 272.469C334.758 273.718 332.95 274.624 331.564 274.624Z" fill="#5E8BFC"/>
<path d="M331.16 267.808C331.159 267.808 331.157 267.808 331.155 267.808C330.641 267.801 329.828 267.785 328.969 267.769C327.998 267.75 326.968 267.731 326.242 267.721C326.042 267.718 325.881 267.552 325.884 267.351C325.887 267.153 326.049 266.993 326.248 266.993C326.249 266.993 326.251 266.993 326.253 266.993C326.979 267.003 328.011 267.023 328.983 267.041C329.841 267.058 330.653 267.072 331.166 267.081C331.366 267.084 331.527 267.249 331.524 267.45C331.521 267.649 331.358 267.808 331.16 267.808Z" fill="#5E8BFC"/>
<path d="M331.19 270.477C331.188 270.477 331.186 270.477 331.184 270.477C330.67 270.468 329.853 270.453 328.991 270.437C328.022 270.418 326.995 270.399 326.272 270.388C326.071 270.385 325.911 270.221 325.914 270.019C325.917 269.821 326.079 269.661 326.277 269.661C326.279 269.661 326.281 269.661 326.283 269.661C327.007 269.672 328.034 269.691 329.004 269.709C329.865 269.726 330.68 269.741 331.195 269.749C331.396 269.752 331.556 269.917 331.553 270.118C331.55 270.317 331.389 270.477 331.19 270.477Z" fill="#5E8BFC"/>
</g>
<g opacity="0.8">
<path d="M371.901 365.577C382.794 365.98 399.838 366.095 422.574 365.913C422.571 361.901 422.531 357.986 422.487 353.847C422.397 345.213 422.304 336.287 422.565 325.731C416.715 325.779 410.718 325.843 404.913 325.906C393.785 326.025 382.282 326.149 371.878 326.152C371.833 329.761 371.854 332.372 371.873 334.684C371.905 338.459 371.932 341.72 371.642 347.685C371.633 347.874 371.481 348.024 371.293 348.031C369.771 348.086 365.162 348.004 361.095 347.932C359.101 347.897 357.188 347.863 355.762 347.848C357.337 348.741 360.215 350.374 363.062 352.008C365.533 353.425 367.498 354.564 368.902 355.395C369.738 355.888 370.382 356.278 370.819 356.551C371.467 356.957 371.725 357.119 371.696 357.366C371.918 358.739 371.894 360.353 371.868 362.062C371.849 363.239 371.831 364.452 371.901 365.577ZM403.244 366.725C389.743 366.725 379.126 366.58 371.547 366.292C371.363 366.284 371.213 366.14 371.199 365.956C371.1 364.71 371.122 363.358 371.141 362.051C371.166 360.395 371.19 358.829 370.987 357.529C369.976 356.778 360.495 351.356 354.185 347.792C354.041 347.711 353.97 347.542 354.012 347.382C354.053 347.222 354.198 347.111 354.363 347.111C355.745 347.111 358.35 347.157 361.107 347.206C364.901 347.273 369.167 347.348 370.933 347.313C371.205 341.586 371.179 338.535 371.147 334.69C371.127 332.298 371.104 329.587 371.156 325.783C371.159 325.584 371.321 325.424 371.519 325.424C382.013 325.424 393.651 325.299 404.905 325.179C410.834 325.115 416.964 325.049 422.934 325C422.935 325 422.936 325 422.937 325C423.035 325 423.128 325.04 423.197 325.11C423.265 325.18 423.303 325.276 423.301 325.373C423.028 336.082 423.123 345.11 423.214 353.84C423.259 358.104 423.301 362.132 423.301 366.275C423.301 366.475 423.14 366.638 422.94 366.638C415.816 366.697 409.244 366.725 403.244 366.725Z" fill="#5E8BFC"/>
<path d="M414.688 349.208C414.596 349.208 414.504 349.173 414.433 349.104L405.785 340.608L395.564 347.706C395.408 347.815 395.192 347.784 395.072 347.633L387.015 337.425L380.291 342.292C380.129 342.409 379.901 342.373 379.783 342.211C379.666 342.048 379.703 341.82 379.866 341.702L386.872 336.631C387.03 336.517 387.249 336.548 387.369 336.701L395.431 346.913L405.617 339.838C405.76 339.74 405.954 339.756 406.079 339.878L414.942 348.584C415.086 348.725 415.088 348.955 414.947 349.099C414.877 349.171 414.782 349.208 414.688 349.208Z" fill="#5E8BFC"/>
<path d="M414.689 358.967H414.688L379.23 358.557C379.164 358.556 379.109 358.501 379.11 358.434C379.111 358.368 379.166 358.315 379.231 358.315C379.232 358.315 379.232 358.315 379.233 358.315L414.691 358.725C414.758 358.725 414.811 358.78 414.81 358.846C414.809 358.914 414.755 358.967 414.689 358.967Z" fill="#5E8BFC"/>
</g>
<g opacity="0.8">
<path d="M16.1142 141.565C11.6035 141.614 7.28933 144.935 6.07868 149.289C4.86901 153.638 6.8461 158.717 10.6764 161.101C14.5029 163.484 19.929 163.018 23.2967 160.016C26.6606 157.018 27.7561 151.676 25.8458 147.589C23.9926 143.627 19.4403 141.529 16.1142 141.565ZM16.18 163.342C14.109 163.342 12.0448 162.81 10.2932 161.72C6.19869 159.17 4.0861 153.742 5.37804 149.093C6.67191 144.44 11.2842 140.89 16.1064 140.837C16.1374 140.837 16.1674 140.837 16.1984 140.837C19.7509 140.837 24.5393 143.079 26.5039 147.281C28.5458 151.648 27.3748 157.356 23.7796 160.56C21.7222 162.394 18.9448 163.342 16.18 163.342Z" fill="#5E8BFC"/>
<path d="M16.0107 157.617C15.3207 157.617 14.6656 157.505 14.1062 157.284C13.123 156.895 12.4465 156.161 12.342 155.368C12.3159 155.169 12.4552 154.986 12.6546 154.96C12.852 154.933 13.0359 155.073 13.062 155.273C13.1317 155.795 13.6465 156.32 14.3733 156.606C15.071 156.883 15.9575 156.961 16.8701 156.825C18.0227 156.656 18.9507 156.16 19.2894 155.532C19.664 154.838 19.2943 154.08 18.823 153.603C18.2898 153.064 17.4449 152.615 16.3098 152.269C16.124 152.212 15.9333 152.158 15.7417 152.104C14.8262 151.845 13.8788 151.576 13.2401 150.966C12.7436 150.49 12.5375 149.832 12.6739 149.161C12.8414 148.34 13.4936 147.623 14.3762 147.29C15.9217 146.709 18.0082 147.226 18.9343 148.422C19.0572 148.581 19.0291 148.809 18.8704 148.933C18.7117 149.055 18.4833 149.027 18.3604 148.868C17.6249 147.919 15.883 147.5 14.6317 147.971C13.9814 148.217 13.5043 148.728 13.3862 149.308C13.2991 149.734 13.4259 150.136 13.7423 150.44C14.2504 150.926 15.1088 151.168 15.9391 151.404C16.1356 151.459 16.331 151.514 16.5217 151.572C17.7904 151.96 18.7127 152.456 19.3398 153.092C20.1614 153.924 20.3927 155.017 19.9291 155.877C19.4762 156.716 18.372 157.34 16.9756 157.546C16.6504 157.594 16.3272 157.617 16.0107 157.617Z" fill="#5E8BFC"/>
<path d="M15.7897 147.712C15.594 147.712 15.4332 147.557 15.4264 147.36L15.3596 145.225C15.3528 145.025 15.5107 144.857 15.7113 144.85C15.9166 144.842 16.0803 145.001 16.0861 145.203L16.154 147.337C16.1598 147.539 16.0019 147.706 15.8013 147.712C15.7975 147.712 15.7936 147.712 15.7897 147.712Z" fill="#5E8BFC"/>
<path d="M16.4469 159.891C16.2493 159.891 16.0875 159.733 16.0827 159.535L16.0314 157.4C16.0265 157.199 16.1854 157.033 16.3869 157.028C16.5932 157.034 16.754 157.182 16.7589 157.383L16.8102 159.518C16.8151 159.718 16.6562 159.885 16.4557 159.891C16.4528 159.891 16.4498 159.891 16.4469 159.891Z" fill="#5E8BFC"/>
<path d="M41.2656 112.728C36.7549 112.778 32.4397 116.098 31.2301 120.452C30.0204 124.801 31.9975 129.88 35.8278 132.265C39.6542 134.647 45.0804 134.181 48.4481 131.18C51.812 128.181 52.9085 122.839 50.9972 118.752C49.1439 114.791 44.5994 112.702 41.2656 112.728ZM41.3314 134.506C39.2604 134.506 37.1962 133.973 35.4446 132.883C31.3501 130.333 29.2375 124.906 30.5294 120.257C31.8233 115.603 36.4355 112.054 41.2578 112C44.822 111.967 49.6733 114.207 51.6552 118.444C53.6972 122.811 52.5262 128.519 48.931 131.723C46.8736 133.557 44.0962 134.505 41.3314 134.506Z" fill="#5E8BFC"/>
<path d="M41.5482 129.426C41.4708 129.426 41.3953 129.423 41.3208 129.417C37.1149 129.108 36.8575 124.96 36.7724 123.596L36.7646 123.478C36.6717 122.058 36.9291 120.748 37.5088 119.691C38.1921 118.446 39.3717 117.517 40.6666 117.206C42.1346 116.855 43.7091 117.317 44.584 118.359C44.7137 118.512 44.6934 118.741 44.5405 118.87C44.3866 119 44.1572 118.981 44.0285 118.827C43.3366 118.004 42.0233 117.629 40.8359 117.915C39.7375 118.178 38.7321 118.973 38.1456 120.042C37.6327 120.977 37.4063 122.148 37.4904 123.43L37.4982 123.552C37.6278 125.645 38.1717 128.456 41.374 128.691C42.5353 128.776 44.2675 127.991 44.5414 126.984C44.5937 126.79 44.7949 126.676 44.9875 126.728C45.1811 126.781 45.2953 126.981 45.2421 127.175C44.8879 128.48 42.9969 129.426 41.5482 129.426Z" fill="#5E8BFC"/>
<path d="M41.1255 122.271C41.1235 122.271 41.1216 122.271 41.1197 122.271C40.5719 122.262 39.7009 122.245 38.7825 122.228C37.7751 122.209 36.7106 122.189 35.9587 122.178C35.7584 122.175 35.5977 122.01 35.6006 121.808C35.6045 121.61 35.7661 121.45 35.9645 121.45C35.9664 121.45 35.9674 121.45 35.9693 121.45C36.7222 121.462 37.7877 121.482 38.7961 121.501C39.7135 121.518 40.5835 121.534 41.1303 121.543C41.3316 121.546 41.4913 121.711 41.4884 121.912C41.4855 122.111 41.3229 122.271 41.1255 122.271Z" fill="#5E8BFC"/>
<path d="M41.1577 125.068C41.1558 125.068 41.1539 125.068 41.1519 125.068C40.611 125.061 39.7536 125.044 38.8487 125.028C37.8307 125.008 36.7516 124.988 35.991 124.976C35.7906 124.973 35.63 124.809 35.6339 124.607C35.6368 124.409 35.7984 124.25 35.9968 124.25C35.9987 124.25 36.0006 124.25 36.0026 124.25C36.7632 124.26 37.8432 124.281 38.8613 124.3C39.7661 124.317 40.6226 124.333 41.1626 124.341C41.3629 124.345 41.5235 124.509 41.5206 124.711C41.5177 124.909 41.3552 125.068 41.1577 125.068Z" fill="#5E8BFC"/>
<path d="M10.7806 139.58C10.5802 139.58 10.4177 139.418 10.4177 139.218L10.3799 125.423C10.377 124.286 10.8241 123.227 11.6051 122.517C12.2931 121.893 13.1951 121.6 14.1512 121.693L26.7909 121.818C26.9912 121.82 27.1518 121.984 27.1499 122.185C27.148 122.385 26.9864 122.546 26.787 122.546C26.786 122.546 26.7851 122.546 26.7831 122.546L14.128 122.421C14.1173 122.42 14.1057 122.42 14.0951 122.419C13.3306 122.342 12.6386 122.562 12.0928 123.057C11.4734 123.619 11.1047 124.503 11.1067 125.421L11.1444 139.216C11.1444 139.416 10.9818 139.58 10.7815 139.58H10.7806Z" fill="#5E8BFC"/>
<path d="M22.5704 125.743C22.4601 125.743 22.3517 125.693 22.2801 125.598C22.1591 125.437 22.192 125.209 22.3517 125.088L26.1965 122.197L22.3982 119.417C22.2365 119.299 22.2008 119.071 22.3188 118.909C22.4379 118.746 22.6653 118.711 22.8269 118.83L27.0211 121.898C27.114 121.966 27.1691 122.074 27.1701 122.19C27.1701 122.305 27.1169 122.414 27.0249 122.483L22.7891 125.67C22.7233 125.719 22.6469 125.743 22.5704 125.743Z" fill="#5E8BFC"/>
<path d="M44.7319 155.02C44.6187 155.02 44.5045 155.014 44.3893 155.003L31.7506 154.878C31.5493 154.876 31.3887 154.711 31.3906 154.511C31.3926 154.309 31.5619 154.154 31.7574 154.15L44.4126 154.275C44.4242 154.275 44.4348 154.276 44.4455 154.277C45.21 154.354 45.9029 154.134 46.4477 153.639C47.068 153.076 47.4358 152.192 47.4338 151.275L47.3971 137.48C47.3961 137.279 47.5587 137.116 47.759 137.115C47.76 137.115 47.76 137.115 47.76 137.115C47.9603 137.115 48.1229 137.278 48.1239 137.478L48.1606 151.273C48.1635 152.41 47.7174 153.468 46.9355 154.177C46.3306 154.727 45.5593 155.02 44.7319 155.02Z" fill="#5E8BFC"/>
<path d="M35.9262 157.934C35.8517 157.934 35.7762 157.911 35.7114 157.864L31.5182 154.795C31.4253 154.727 31.3692 154.62 31.3692 154.504C31.3682 154.389 31.4214 154.279 31.5143 154.211L35.7501 151.023C35.9108 150.903 36.1382 150.935 36.2592 151.096C36.3792 151.257 36.3472 151.485 36.1866 151.606L32.3427 154.497L36.1401 157.277C36.3027 157.395 36.3375 157.623 36.2195 157.784C36.1479 157.882 36.0375 157.934 35.9262 157.934Z" fill="#5E8BFC"/>
</g>
<g opacity="0.8">
<path d="M220.727 122.471H226.922V104.477H220.727V122.471ZM227.286 123.198H220.363C220.163 123.198 220 123.035 220 122.835V104.112C220 103.912 220.163 103.749 220.363 103.749H227.286C227.486 103.749 227.649 103.912 227.649 104.112V122.835C227.649 123.035 227.486 123.198 227.286 123.198Z" fill="#5E8BFC"/>
<path d="M233.505 122.335H239.702V93.7126H233.505V122.335ZM240.064 123.062H233.142C232.942 123.062 232.779 122.9 232.779 122.699V93.3492C232.779 93.1486 232.942 92.9858 233.142 92.9858H240.064C240.265 92.9858 240.428 93.1486 240.428 93.3492V122.699C240.428 122.9 240.265 123.062 240.064 123.062Z" fill="#5E8BFC"/>
<path d="M252.835 122.834V98.4116H245.914V122.834H252.835Z" fill="#5E8BFC"/>
<path d="M246.281 122.471H252.477V98.7768H246.281V122.471ZM252.84 123.198H245.919C245.717 123.198 245.555 123.035 245.555 122.835V98.4125C245.555 98.2119 245.717 98.0491 245.919 98.0491H252.84C253.041 98.0491 253.204 98.2119 253.204 98.4125V122.835C253.204 123.035 253.041 123.198 252.84 123.198Z" fill="#5E8BFC"/>
<path d="M259.056 122.471H265.25V85.7289H259.056V122.471ZM265.614 123.198H258.692C258.492 123.198 258.328 123.035 258.328 122.835V85.3645C258.328 85.163 258.492 85.0002 258.692 85.0002H265.614C265.815 85.0002 265.977 85.163 265.977 85.3645V122.835C265.977 123.035 265.815 123.198 265.614 123.198Z" fill="#5E8BFC"/>
<path d="M238.555 112.057H234.646C234.58 112.057 234.525 112.002 234.525 111.936C234.525 111.869 234.58 111.814 234.646 111.814H238.555C238.622 111.814 238.676 111.869 238.676 111.936C238.676 112.002 238.622 112.057 238.555 112.057Z" fill="#5E8BFC"/>
<path d="M238.555 114.664H234.646C234.58 114.664 234.525 114.61 234.525 114.543C234.525 114.476 234.58 114.422 234.646 114.422H238.555C238.622 114.422 238.676 114.476 238.676 114.543C238.676 114.61 238.622 114.664 238.555 114.664Z" fill="#5E8BFC"/>
<path d="M238.555 117.271H234.646C234.58 117.271 234.525 117.217 234.525 117.15C234.525 117.084 234.58 117.029 234.646 117.029H238.555C238.622 117.029 238.676 117.084 238.676 117.15C238.676 117.217 238.622 117.271 238.555 117.271Z" fill="#5E8BFC"/>
<path d="M238.555 119.88H234.646C234.58 119.88 234.525 119.826 234.525 119.759C234.525 119.692 234.58 119.638 234.646 119.638H238.555C238.622 119.638 238.676 119.692 238.676 119.759C238.676 119.826 238.622 119.88 238.555 119.88Z" fill="#5E8BFC"/>
<path d="M238.555 101.627H234.646C234.58 101.627 234.525 101.573 234.525 101.506C234.525 101.438 234.58 101.384 234.646 101.384H238.555C238.622 101.384 238.676 101.438 238.676 101.506C238.676 101.573 238.622 101.627 238.555 101.627Z" fill="#5E8BFC"/>
<path d="M238.555 104.234H234.646C234.58 104.234 234.525 104.18 234.525 104.112C234.525 104.045 234.58 103.991 234.646 103.991H238.555C238.622 103.991 238.676 104.045 238.676 104.112C238.676 104.18 238.622 104.234 238.555 104.234Z" fill="#5E8BFC"/>
<path d="M238.555 106.843H234.646C234.58 106.843 234.525 106.789 234.525 106.721C234.525 106.654 234.58 106.6 234.646 106.6H238.555C238.622 106.6 238.676 106.654 238.676 106.721C238.676 106.789 238.622 106.843 238.555 106.843Z" fill="#5E8BFC"/>
<path d="M238.555 109.448H234.646C234.58 109.448 234.525 109.394 234.525 109.327C234.525 109.26 234.58 109.206 234.646 109.206H238.555C238.622 109.206 238.676 109.26 238.676 109.327C238.676 109.394 238.622 109.448 238.555 109.448Z" fill="#5E8BFC"/>
<path d="M238.555 96.4141H234.646C234.58 96.4141 234.525 96.3598 234.525 96.293C234.525 96.2261 234.58 96.1719 234.646 96.1719H238.555C238.622 96.1719 238.676 96.2261 238.676 96.293C238.676 96.3598 238.622 96.4141 238.555 96.4141Z" fill="#5E8BFC"/>
<path d="M238.555 99.0195H234.646C234.58 99.0195 234.525 98.9653 234.525 98.8984C234.525 98.8316 234.58 98.7773 234.646 98.7773H238.555C238.622 98.7773 238.676 98.8316 238.676 98.8984C238.676 98.9653 238.622 99.0195 238.555 99.0195Z" fill="#5E8BFC"/>
</g>
<g opacity="0.8">
<path d="M338.238 155.395C351.952 155.395 367.489 155.439 383.929 155.486C400.368 155.533 417.36 155.582 432.348 155.582C432.349 145.575 432.37 134.926 432.393 123.66C432.416 112.348 432.441 100.654 432.442 89.6289C415.037 89.6279 398.09 89.5572 381.696 89.4894C366.314 89.4254 351.775 89.3644 337.731 89.3634L337.733 89.5543C337.979 110.851 338.235 132.87 338.238 155.395ZM432.712 156.31C417.635 156.31 400.499 156.261 383.927 156.213C367.342 156.166 351.676 156.123 337.874 156.123C337.674 156.123 337.511 155.959 337.511 155.758C337.511 133.11 337.255 110.973 337.006 89.563L337 89.0039C336.999 88.907 337.037 88.813 337.105 88.7442C337.173 88.6754 337.266 88.6357 337.363 88.6357C351.524 88.6357 366.181 88.6967 381.699 88.7616C398.206 88.8304 415.274 88.9012 432.805 88.9012C433.005 88.9012 433.168 89.064 433.168 89.2645C433.168 100.398 433.144 112.225 433.12 123.662C433.097 135.064 433.075 145.834 433.075 155.946C433.075 156.147 432.912 156.31 432.712 156.31Z" fill="#5E8BFC"/>
<path d="M415.787 84.6823C402.027 84.6309 388.27 84.5107 374.513 84.3887C362.871 84.285 349.382 84.5292 337.74 84.3819C337.595 87.5215 337.581 90.0197 337.74 92.0469C367.667 92.0469 402.855 91.6205 432.977 92.0469C433.147 90.0584 433.024 87.2395 433.024 84.7734C427.961 84.7704 420.847 84.7017 415.787 84.6823Z" fill="#5E8BFC"/>
<path d="M338.087 84.752C337.959 87.6668 337.956 89.8897 338.077 91.6853C347.753 91.6844 357.789 91.6398 368.407 91.5933C390.061 91.4983 412.449 91.3995 432.639 91.6805C432.728 90.3423 432.705 88.6562 432.681 87.0214C432.673 86.3877 432.664 85.7539 432.661 85.1386C429.722 85.1347 426.155 85.1115 422.701 85.0882C420.24 85.0717 417.842 85.0553 415.784 85.0475C401.655 84.9952 387.232 84.8673 374.509 84.7539C369.04 84.7054 363.052 84.7345 357.262 84.7617C350.821 84.7927 344.166 84.8246 338.087 84.752ZM337.739 92.4131C337.549 92.4131 337.392 92.2668 337.377 92.0778C337.223 90.1252 337.223 87.6745 337.376 84.3673C337.386 84.1715 337.55 84.0145 337.744 84.0203C343.912 84.0979 350.697 84.0649 357.259 84.0339C363.051 84.0068 369.042 83.9777 374.514 84.0262C387.238 84.1395 401.66 84.2674 415.787 84.3198C417.846 84.3285 420.244 84.344 422.706 84.3605C426.302 84.3847 430.021 84.4099 433.024 84.4109C433.224 84.4109 433.387 84.5737 433.387 84.7752C433.387 85.5 433.398 86.2559 433.408 87.0117C433.433 88.8044 433.459 90.6591 433.338 92.0797C433.322 92.2687 433.164 92.4131 432.976 92.4131C432.975 92.4131 432.973 92.4131 432.971 92.4131C412.698 92.1253 390.183 92.2251 368.41 92.321C357.668 92.3685 347.521 92.4131 337.739 92.4131Z" fill="#5E8BFC"/>
<path d="M346.541 142.835C346.517 142.835 346.493 142.828 346.472 142.814C346.416 142.775 346.404 142.699 346.442 142.645L355.704 129.333C355.714 129.318 355.726 129.306 355.741 129.298L372.869 118.821C372.922 118.788 372.993 118.801 373.029 118.853L385.392 135.913L404.698 129.303L412.828 111.906C412.848 111.863 412.89 111.836 412.936 111.836L424.151 111.733C424.152 111.733 424.152 111.733 424.152 111.733C424.219 111.733 424.273 111.787 424.274 111.853C424.274 111.921 424.221 111.975 424.154 111.976L413.015 112.077L404.896 129.453C404.882 129.483 404.856 129.505 404.825 129.517L385.386 136.172C385.335 136.188 385.28 136.171 385.249 136.128L372.899 119.086L355.889 129.491L346.64 142.784C346.617 142.818 346.579 142.835 346.541 142.835Z" fill="#5E8BFC"/>
<path d="M374.901 116.805H370.954V121.04H374.901V116.805Z" fill="#5E8BFC"/>
<path d="M371.317 120.676H374.537V117.17H371.317V120.676ZM374.9 121.403H370.954C370.753 121.403 370.591 121.241 370.591 121.04V116.805C370.591 116.605 370.753 116.442 370.954 116.442H374.9C375.101 116.442 375.264 116.605 375.264 116.805V121.04C375.264 121.241 375.101 121.403 374.9 121.403Z" fill="#5E8BFC"/>
<path d="M354.194 131.153H357.413V127.647H354.194V131.153ZM357.776 131.881H353.83C353.629 131.881 353.467 131.718 353.467 131.517V127.283C353.467 127.082 353.629 126.919 353.83 126.919H357.776C357.977 126.919 358.14 127.082 358.14 127.283V131.517C358.14 131.718 357.977 131.881 357.776 131.881Z" fill="#5E8BFC"/>
<path d="M403.177 131.153H406.398V127.647H403.177V131.153ZM406.761 131.881H402.814C402.614 131.881 402.451 131.718 402.451 131.517V127.283C402.451 127.082 402.614 126.919 402.814 126.919H406.761C406.962 126.919 407.124 127.082 407.124 127.283V131.517C407.124 131.718 406.962 131.881 406.761 131.881Z" fill="#5E8BFC"/>
<path d="M383.737 137.809H386.956V134.303H383.737V137.809ZM387.319 138.537H383.373C383.172 138.537 383.01 138.374 383.01 138.174V133.94C383.01 133.738 383.172 133.576 383.373 133.576H387.319C387.52 133.576 387.683 133.738 387.683 133.94V138.174C387.683 138.374 387.52 138.537 387.319 138.537Z" fill="#5E8BFC"/>
</g>
<g opacity="0.8">
<path d="M280.004 395.797H290.858L290.831 364.245C290.831 364.047 290.99 363.885 291.188 363.881L297.816 363.751L285.509 347.949L272.77 363.687L279.651 363.881C279.848 363.887 280.004 364.047 280.004 364.244V395.797ZM291.22 396.523H279.64C279.44 396.523 279.278 396.361 279.278 396.16V364.599L272.016 364.393C271.877 364.39 271.753 364.307 271.695 364.182C271.637 364.056 271.657 363.908 271.744 363.8L285.232 347.135C285.301 347.05 285.404 347 285.514 347C285.516 347 285.517 347 285.518 347C285.629 347.001 285.732 347.053 285.801 347.14L298.835 363.876C298.919 363.984 298.935 364.132 298.876 364.257C298.817 364.381 298.693 364.461 298.555 364.464L291.559 364.601L291.584 396.16C291.584 396.256 291.547 396.349 291.478 396.417C291.41 396.486 291.317 396.523 291.22 396.523Z" fill="#5E8BFC"/>
<path d="M259.476 380.201V396.159H265.73L265.716 380.201L269.687 380.13L262.647 371.761L255.363 380.094L259.476 380.201Z" fill="#5E8BFC"/>
<path d="M259.84 395.797H265.366L265.352 380.203C265.352 380.004 265.511 379.843 265.709 379.839L268.917 379.78L262.642 372.32L256.147 379.752L259.486 379.839C259.682 379.844 259.84 380.005 259.84 380.202V395.797ZM265.73 396.523H259.476C259.276 396.523 259.113 396.361 259.113 396.16V380.557L255.354 380.459C255.213 380.455 255.087 380.37 255.03 380.241C254.974 380.112 254.997 379.962 255.09 379.855L262.374 371.523C262.444 371.442 262.536 371.4 262.651 371.398C262.758 371.399 262.857 371.446 262.926 371.527L269.964 379.896C270.054 380.003 270.075 380.153 270.018 380.281C269.96 380.409 269.833 380.491 269.693 380.494L266.08 380.56L266.092 396.16C266.092 396.256 266.055 396.349 265.987 396.417C265.918 396.486 265.826 396.523 265.73 396.523Z" fill="#5E8BFC"/>
<path d="M305.842 395.838H312.336L312.471 381.587C312.473 381.39 312.63 381.231 312.827 381.227L316.698 381.148L309.286 371.363L301.612 381.109L305.638 381.227C305.837 381.233 305.993 381.396 305.992 381.594L305.842 395.838ZM312.696 396.565H305.475C305.378 396.565 305.285 396.527 305.216 396.457C305.149 396.388 305.111 396.295 305.112 396.197L305.261 381.944L300.868 381.817C300.731 381.812 300.608 381.732 300.55 381.607C300.492 381.483 300.508 381.335 300.593 381.228L309.006 370.543C309.075 370.454 309.19 370.398 309.294 370.405C309.407 370.406 309.512 370.459 309.581 370.548L317.708 381.278C317.791 381.387 317.806 381.533 317.746 381.657C317.687 381.78 317.563 381.859 317.426 381.861L313.193 381.948L313.06 396.205C313.058 396.405 312.896 396.565 312.696 396.565Z" fill="#5E8BFC"/>
</g>
<g opacity="0.8">
<path d="M135.409 293.291C134.54 293.291 133.635 293.73 133.063 294.454C132.257 295.473 131.933 296.497 132.1 297.498C132.274 298.543 132.967 299.328 133.391 299.599C135.427 300.909 136.132 300.656 136.878 300.389C138.085 299.956 139.054 298.899 139.346 297.698C139.647 296.458 139.223 295.082 138.289 294.277C137.725 293.792 136.977 293.505 135.787 293.32C135.662 293.3 135.535 293.291 135.409 293.291ZM135.885 301.329C135.18 301.329 134.314 301.058 132.998 300.212C132.36 299.802 131.583 298.815 131.383 297.617C131.182 296.406 131.554 295.189 132.493 294.002C133.318 292.957 134.656 292.407 135.899 292.601C137.233 292.808 138.089 293.145 138.763 293.726C139.898 294.706 140.417 296.37 140.053 297.869C139.699 299.325 138.576 300.553 137.123 301.074C136.726 301.216 136.339 301.329 135.885 301.329ZM135.053 308.729C136.626 308.946 138.284 308.871 139.985 308.501C139.946 308.1 139.932 307.749 139.918 307.432C139.893 306.841 139.872 306.33 139.712 305.695C139.675 305.549 139.732 305.396 139.854 305.309C140.872 304.591 141.94 303.542 142.643 302.572C142.725 302.46 142.862 302.402 143 302.428C143.911 302.586 144.44 302.769 145.053 302.98C145.22 303.038 145.395 303.098 145.588 303.162C146.388 301.997 146.942 300.709 147.277 299.238C146.78 298.884 146.334 298.691 145.902 298.505C145.478 298.321 145.039 298.132 144.584 297.803C144.498 297.74 144.443 297.642 144.435 297.534C144.383 296.834 144.246 295.789 144.126 294.866C144.057 294.345 143.993 293.852 143.949 293.457C143.935 293.34 143.98 293.224 144.067 293.145C144.646 292.627 145.073 292.321 145.488 292.024C145.786 291.811 146.069 291.608 146.399 291.334C146.374 291.292 146.345 291.246 146.324 291.212C146.105 290.873 145.88 290.521 145.644 290.177C144.858 289.029 143.954 287.963 142.953 287.002C142.037 287.865 141.247 288.724 140.481 289.556C140.379 289.666 140.221 289.701 140.082 289.649C138.85 289.171 137.556 288.869 136.238 288.75C136.067 288.733 135.929 288.601 135.91 288.429C135.777 287.293 135.578 286.155 135.315 285.042C133.611 285.324 132.084 285.789 130.77 286.427C131.012 287.382 131.272 288.039 131.62 288.918L131.675 289.058C131.73 289.198 131.693 289.357 131.583 289.459L131.178 289.831C130.266 290.669 129.406 291.458 128.686 292.343C128.575 292.48 128.383 292.517 128.228 292.431C127.639 292.105 127.091 291.858 126.561 291.618C126.106 291.414 125.638 291.203 125.153 290.945C124.021 292.703 123.411 294.437 123.334 296.112C123.966 296.179 124.473 296.196 125.005 296.212C125.39 296.225 125.787 296.238 126.249 296.27C126.422 296.283 126.563 296.417 126.584 296.588C126.739 297.834 127.116 299.16 127.706 300.531C127.766 300.672 127.733 300.836 127.62 300.941C127.192 301.342 126.85 301.723 126.519 302.091C126.173 302.475 125.844 302.84 125.456 303.185C126.063 304.506 126.988 305.685 128.153 306.62C128.837 305.896 129.355 305.36 130.098 304.607C130.2 304.504 130.353 304.471 130.489 304.524L130.853 304.667C131.88 305.072 133.159 305.576 134.206 305.702C134.348 305.719 134.466 305.817 134.509 305.954C134.864 307.08 134.946 307.755 135.053 308.729ZM136.834 309.578C136.098 309.578 135.373 309.521 134.665 309.407C134.504 309.38 134.379 309.25 134.362 309.087L134.343 308.921C134.239 307.964 134.172 307.36 133.883 306.391C132.8 306.216 131.58 305.736 130.587 305.344L130.447 305.289C129.719 306.029 129.197 306.572 128.456 307.358C128.331 307.493 128.123 307.511 127.974 307.4C126.512 306.304 125.373 304.861 124.68 303.227C124.617 303.079 124.66 302.905 124.785 302.804C125.226 302.441 125.592 302.035 125.978 301.604C126.272 301.278 126.574 300.942 126.94 300.586C126.424 299.342 126.076 298.131 125.903 296.978C125.575 296.958 125.274 296.949 124.982 296.94C124.343 296.92 123.741 296.9 122.917 296.795C122.735 296.771 122.599 296.615 122.6 296.432C122.608 294.424 123.326 292.348 124.733 290.262C124.839 290.104 125.049 290.055 125.213 290.148C125.777 290.468 126.302 290.704 126.859 290.955C127.323 291.165 127.802 291.38 128.316 291.651C129.024 290.821 129.833 290.078 130.687 289.295L130.908 289.093C130.547 288.182 130.259 287.44 129.995 286.315C129.956 286.152 130.034 285.984 130.183 285.908C131.706 285.126 133.507 284.575 135.535 284.271C135.722 284.241 135.896 284.361 135.942 284.542C136.227 285.695 136.447 286.874 136.596 288.054C137.798 288.187 138.979 288.465 140.112 288.882C140.905 288.021 141.732 287.134 142.709 286.235C142.85 286.107 143.063 286.108 143.203 286.237C144.339 287.293 145.363 288.48 146.243 289.766C146.485 290.119 146.714 290.475 146.934 290.819C147.045 290.99 147.182 291.203 147.178 291.464C147.176 291.568 147.131 291.665 147.053 291.733C146.619 292.11 146.259 292.367 145.911 292.616C145.547 292.876 145.172 293.144 144.692 293.563C144.735 293.918 144.789 294.335 144.846 294.772C144.958 295.632 145.085 296.597 145.145 297.306C145.49 297.534 145.831 297.681 146.19 297.836C146.692 298.053 147.261 298.299 147.905 298.798C148.015 298.883 148.067 299.024 148.038 299.161C147.668 300.921 147.01 302.439 146.026 303.803C145.935 303.931 145.771 303.985 145.622 303.937C145.317 303.841 145.058 303.751 144.816 303.668C144.263 303.477 143.815 303.322 143.094 303.184C142.392 304.108 141.436 305.047 140.473 305.759C140.601 306.358 140.622 306.867 140.644 307.401C140.662 307.808 140.679 308.227 140.743 308.739C140.766 308.923 140.646 309.095 140.466 309.138C139.231 309.431 138.017 309.578 136.834 309.578Z" fill="#5E8BFC"/>
</g>
<g opacity="0.8">
<path d="M33.4488 379.979V395.937H39.7024L39.6878 379.979L43.6585 379.907L36.6201 371.538L29.3359 379.871L33.4488 379.979Z" fill="#5E8BFC"/>
<path d="M33.8116 395.575H39.3384L39.3248 379.981C39.3248 379.783 39.4836 379.62 39.681 379.617L42.889 379.559L36.6151 372.098L30.1187 379.53L33.4574 379.617C33.6548 379.622 33.8116 379.784 33.8116 379.98V395.575ZM39.7023 396.303H33.4487C33.2474 396.303 33.0848 396.14 33.0848 395.938V380.335L29.3261 380.237C29.1858 380.233 29.0591 380.148 29.0029 380.019C28.9468 379.89 28.97 379.74 29.0619 379.634L36.3461 371.301C36.4158 371.221 36.5261 371.179 36.6239 371.177C36.7294 371.178 36.8291 371.224 36.8978 371.306L43.9371 379.674C44.0271 379.781 44.0474 379.931 43.9894 380.059C43.9313 380.187 43.8055 380.269 43.6652 380.272L40.0516 380.338L40.0652 395.938C40.0652 396.034 40.0274 396.127 39.9587 396.195C39.891 396.264 39.7981 396.303 39.7023 396.303Z" fill="#5E8BFC"/>
</g>
<g opacity="0.8">
<path d="M146.807 74.5805L105.84 74.6706C104.528 74.6706 103.405 76.1581 103.405 77.3752L103.204 107.573C103.204 108.672 104.061 110.831 106.04 110.831H147.307C148.679 110.831 149.743 109.476 149.743 108.31V77.7851C149.743 75.9507 148.193 74.5805 146.807 74.5805ZM147.307 111.559H106.04C103.746 111.559 102.478 109.2 102.478 107.57L102.678 77.3733C102.678 75.7879 104.059 73.9439 105.839 73.9439L146.806 73.8528C148.539 73.8528 150.469 75.4681 150.469 77.7851V108.31C150.469 109.844 149.117 111.559 147.307 111.559Z" fill="#5E8BFC"/>
<path d="M148.791 67.7921L103.815 67.8909C102.356 67.8909 101.106 69.5441 101.106 70.8978L100.886 91.2144C100.886 92.4325 101.836 94.8279 104.035 94.8279H149.34C150.866 94.8279 152.05 93.3201 152.05 92.0236V71.3465C152.05 69.3125 150.329 67.7921 148.791 67.7921ZM149.34 95.5557H104.035C101.539 95.5557 100.159 92.9868 100.159 91.2105L100.379 70.8939C100.379 69.171 101.88 67.1632 103.815 67.1632L148.79 67.0643C150.675 67.0643 152.776 68.8231 152.776 71.3465V92.0236C152.776 93.6913 151.307 95.5557 149.34 95.5557Z" fill="#5E8BFC"/>
<path d="M129.069 99.9951H123.684C123.285 99.9951 122.858 99.7403 122.858 99.4263V91.0403C122.858 90.6072 123.496 90.3901 123.896 90.3901L129.186 90.4308C129.585 90.4308 130.064 90.6857 130.064 90.9996L130.09 99.3245C130.09 99.6385 129.665 99.9951 129.069 99.9951Z" fill="#5E8BFC"/>
<path d="M123.892 90.7524C123.576 90.7524 123.221 90.923 123.221 91.0392V99.4252C123.233 99.4824 123.432 99.6307 123.683 99.6307H129.068C129.484 99.6307 129.719 99.4019 129.725 99.3225L129.7 90.9995C129.674 90.9385 129.432 90.7931 129.185 90.7931L123.892 90.7524ZM129.068 100.357H123.683C123.109 100.357 122.494 99.9834 122.494 99.4252V91.0392C122.494 90.3474 123.329 90.0247 123.894 90.0247L129.188 90.0654C129.773 90.0654 130.427 90.4491 130.427 90.9986L130.452 99.3225C130.452 99.8845 129.818 100.357 129.068 100.357Z" fill="#5E8BFC"/>
<path d="M126.577 97.3174C126.51 97.3174 126.456 97.2641 126.456 97.1963L126.433 92.9858C126.432 92.919 126.486 92.8637 126.553 92.8637C126.554 92.8637 126.554 92.8637 126.554 92.8637C126.621 92.8637 126.675 92.918 126.675 92.9849L126.698 97.1953C126.699 97.2621 126.645 97.3174 126.578 97.3174C126.577 97.3174 126.577 97.3174 126.577 97.3174Z" fill="#5E8BFC"/>
<path d="M106.386 92.1045C105.987 92.1045 104.856 91.9184 104.539 91.4795C104.144 90.932 103.935 90.1345 103.901 89.0434C103.767 84.7777 103.962 79.2 104.132 74.2783C104.216 71.8518 104.297 69.5601 104.336 67.5232C104.337 67.4563 104.382 67.3982 104.46 67.404C104.527 67.405 104.58 67.4612 104.578 67.528C104.539 69.5669 104.459 71.8596 104.374 74.287C104.204 79.2048 104.01 84.7787 104.143 89.0356C104.176 90.0773 104.369 90.8302 104.735 91.337C104.966 91.6578 105.948 91.8613 106.385 91.8613C106.386 91.8613 106.386 91.8613 106.386 91.8613C108.927 91.8593 111.267 91.8419 113.53 91.8254C115.755 91.809 117.858 91.7934 119.987 91.7934C120.053 91.7934 120.108 91.8477 120.108 91.9146C120.108 91.9824 120.053 92.0367 119.987 92.0367C117.859 92.0367 115.757 92.0522 113.532 92.0687C111.268 92.0851 108.928 92.1026 106.386 92.1045Z" fill="#5E8BFC"/>
<path d="M146.643 92.1045C146.642 92.1045 146.643 92.1045 146.643 92.1045C144.1 92.1026 141.76 92.0851 139.497 92.0687C137.272 92.0522 135.171 92.0367 133.042 92.0367C132.975 92.0367 132.921 91.9824 132.921 91.9146C132.921 91.8477 132.975 91.7934 133.042 91.7934C135.172 91.7934 137.274 91.809 139.499 91.8254C141.762 91.8419 144.101 91.8593 146.643 91.8613H146.643C147.081 91.8613 148.062 91.6578 148.293 91.337C148.659 90.8302 148.854 90.0773 148.886 89.0356C149.018 84.7787 148.825 79.2048 148.654 74.287C148.569 71.8596 148.49 69.5669 148.45 67.528C148.449 67.4612 148.502 67.405 148.569 67.404C148.633 67.3982 148.69 67.4563 148.692 67.5232C148.732 69.5601 148.812 71.8518 148.896 74.2783C149.067 79.2 149.261 84.7777 149.128 89.0434C149.094 90.1345 148.886 90.932 148.49 91.4795C148.172 91.9184 147.041 92.1045 146.643 92.1045Z" fill="#5E8BFC"/>
<path d="M103.828 50.7283C99.0091 50.7845 94.3988 54.5453 93.1039 59.4767C91.8071 64.41 93.9226 70.1689 98.0249 72.8725C102.11 75.5644 107.9 75.0363 111.496 71.6438C115.101 68.2444 116.274 62.1851 114.225 57.5483C112.26 53.1014 107.472 50.7283 103.92 50.7283C103.889 50.7283 103.858 50.7283 103.828 50.7283ZM103.899 75.3105C101.692 75.3105 99.492 74.7107 97.6252 73.4801C93.2752 70.6127 91.0291 64.5127 92.4013 59.2916C93.7765 54.055 98.6859 50.0606 103.82 50.0005C103.853 50.0005 103.886 49.9996 103.917 49.9996C107.701 49.9996 112.8 52.5249 114.89 57.2537C117.057 62.1589 115.812 68.5729 111.994 72.1738C109.803 74.2408 106.845 75.3105 103.899 75.3105Z" fill="#5E8BFC"/>
<path d="M103.721 68.8496C102.986 68.8496 102.288 68.7227 101.693 68.4736C100.655 68.0395 99.9414 67.2255 99.832 66.3495C99.8068 66.1499 99.9482 65.9677 100.148 65.9425C100.348 65.9183 100.528 66.0588 100.553 66.2584C100.629 66.867 101.187 67.4726 101.973 67.8021C102.718 68.1141 103.664 68.2013 104.638 68.0502C105.874 67.8573 106.868 67.2904 107.235 66.5714C107.577 65.9018 107.378 65.02 106.73 64.3252C106.159 63.7128 105.254 63.2041 104.042 62.8126C103.843 62.7486 103.64 62.6876 103.436 62.6265C102.461 62.3348 101.452 62.0325 100.776 61.3474C100.249 60.8135 100.036 60.077 100.193 59.3279C100.38 58.4335 101.065 57.6515 101.979 57.2862C103.625 56.6312 105.844 57.2116 106.826 58.5537C106.945 58.7155 106.91 58.9432 106.747 59.0624C106.586 59.1816 106.358 59.1458 106.239 58.9839C105.451 57.9064 103.587 57.4287 102.248 57.9626C101.558 58.2378 101.042 58.8182 100.904 59.4772C100.797 59.9908 100.935 60.4733 101.293 60.8358C101.838 61.3891 102.757 61.6633 103.645 61.9298C103.853 61.9918 104.061 62.0548 104.264 62.1197C105.615 62.5558 106.596 63.1149 107.26 63.8281C108.121 64.7496 108.365 65.9571 107.883 66.9028C107.405 67.8399 106.234 68.5376 104.75 68.7692C104.404 68.8235 104.058 68.8496 103.721 68.8496Z" fill="#5E8BFC"/>
<path d="M103.484 57.6699C103.288 57.6699 103.126 57.5149 103.121 57.3173L103.049 54.908C103.043 54.7075 103.201 54.5399 103.402 54.5341C103.603 54.5321 103.771 54.6862 103.776 54.8867L103.847 57.296C103.853 57.4965 103.695 57.6641 103.495 57.6699C103.491 57.6699 103.487 57.6699 103.484 57.6699Z" fill="#5E8BFC"/>
<path d="M104.182 71.415C103.986 71.415 103.823 71.2571 103.819 71.0585L103.764 68.6493C103.76 68.4487 103.919 68.2821 104.119 68.2773C104.318 68.2686 104.487 68.4323 104.491 68.6328L104.546 71.0421C104.55 71.2436 104.392 71.4092 104.191 71.4141C104.188 71.415 104.185 71.415 104.182 71.415Z" fill="#5E8BFC"/>
</g>
<g opacity="0.8">
<path d="M181.727 52.1727H219.231V6.30859H190.375L181.727 14.9533V52.1727ZM219.594 52.9004H181.364C181.163 52.9004 181 52.7376 181 52.537V14.8021C181 14.7052 181.039 14.6132 181.106 14.5444L189.969 5.68745C190.037 5.61962 190.129 5.58085 190.225 5.58085H219.594C219.795 5.58085 219.957 5.74365 219.957 5.94521V52.537C219.957 52.7376 219.795 52.9004 219.594 52.9004Z" fill="#5E8BFC"/>
<path d="M181.363 14.8008L190.315 14.7087L190.225 5.94386L181.363 14.8008Z" fill="#5E8BFC"/>
<path d="M189.871 6.812L182.251 14.4276L189.949 14.3481L189.871 6.812ZM181.364 15.1641C181.217 15.1641 181.085 15.0768 181.028 14.9412C180.971 14.8045 181.002 14.6476 181.107 14.5429L189.969 5.686C190.073 5.58232 190.228 5.5513 190.363 5.60654C190.499 5.66177 190.588 5.79355 190.589 5.93988L190.68 14.7047C190.681 14.8007 190.643 14.8937 190.576 14.9625C190.508 15.0313 190.416 15.071 190.32 15.072L181.368 15.1641C181.366 15.1641 181.365 15.1641 181.364 15.1641Z" fill="#5E8BFC"/>
<path d="M207.504 30.5635H193.396C193.33 30.5635 193.275 30.5092 193.275 30.4424C193.275 30.3755 193.33 30.3213 193.396 30.3213H207.504C207.571 30.3213 207.625 30.3755 207.625 30.4424C207.625 30.5092 207.571 30.5635 207.504 30.5635Z" fill="#5E8BFC"/>
<path d="M206.318 39.6113H194.534C194.467 39.6113 194.413 39.5571 194.413 39.4902C194.413 39.4234 194.467 39.3691 194.534 39.3691H206.318C206.385 39.3691 206.439 39.4234 206.439 39.4902C206.439 39.5571 206.385 39.6113 206.318 39.6113Z" fill="#5E8BFC"/>
<path d="M209.86 25.9717H191.099C191.033 25.9717 190.979 25.9174 190.979 25.8506C190.979 25.7837 191.033 25.7295 191.099 25.7295H209.86C209.927 25.7295 209.981 25.7837 209.981 25.8506C209.981 25.9174 209.927 25.9717 209.86 25.9717Z" fill="#5E8BFC"/>
<path d="M209.86 35.1553H191.099C191.033 35.1553 190.979 35.101 190.979 35.0342C190.979 34.9673 191.033 34.9131 191.099 34.9131H209.86C209.927 34.9131 209.981 34.9673 209.981 35.0342C209.981 35.101 209.927 35.1553 209.86 35.1553Z" fill="#5E8BFC"/>
<path d="M214.716 -1.27166C210.355 -1.22418 206.184 1.98621 205.015 6.19469C203.846 10.3983 205.757 15.3065 209.46 17.6127C213.159 19.9161 218.403 19.4646 221.659 16.5633C224.91 13.6649 225.97 8.50098 224.123 4.55123C222.347 0.75458 218.015 -1.27263 214.799 -1.27263C214.771 -1.27263 214.744 -1.27263 214.716 -1.27166ZM214.779 19.8027C212.773 19.8027 210.773 19.2872 209.076 18.231C205.109 15.7609 203.063 10.502 204.315 5.99895C205.568 1.49104 210.037 -1.94805 214.708 -1.9994C218.164 -2.03041 222.861 0.137316 224.781 4.24308C226.759 8.47289 225.624 14.0031 222.142 17.1069C220.148 18.8841 217.458 19.8027 214.779 19.8027Z" fill="#5E8BFC"/>
<path d="M211.409 14.0732C211.335 14.0732 211.261 14.051 211.198 14.0054C211.034 13.8882 210.997 13.6604 211.114 13.4976L217.896 4.03702C218.013 3.87423 218.241 3.83739 218.403 3.95465C218.567 4.07093 218.604 4.29865 218.488 4.46242L211.705 13.9221C211.634 14.0209 211.522 14.0732 211.409 14.0732Z" fill="#5E8BFC"/>
<path d="M212.205 3.87375C211.815 3.87375 211.422 4.11019 211.219 4.47648C211.051 4.7827 211.006 5.17418 210.986 5.4426C210.938 6.11317 211.02 6.62966 211.238 7.02309C211.442 7.39132 211.866 7.71109 212.273 7.61612C212.559 7.55023 212.828 7.27698 212.976 6.9039C213.137 6.49885 213.156 6.02984 213.153 5.62479C213.15 5.23233 213.123 4.78657 212.936 4.45226C212.762 4.13926 212.419 3.90186 212.314 3.87957C212.278 3.8757 212.241 3.87375 212.205 3.87375ZM212.129 8.36035C211.539 8.36035 210.942 7.98726 210.603 7.37677C210.314 6.85544 210.202 6.20619 210.261 5.3893C210.286 5.05402 210.346 4.5569 210.584 4.12568C210.949 3.46093 211.68 3.07235 212.402 3.15763C212.777 3.2022 213.312 3.63247 213.571 4.0976C213.837 4.57533 213.877 5.13543 213.88 5.61994C213.883 6.09573 213.858 6.65099 213.65 7.17232C213.412 7.77215 212.959 8.20336 212.439 8.32546C212.337 8.34871 212.233 8.36035 212.129 8.36035Z" fill="#5E8BFC"/>
<path d="M217.781 10.3015C217.391 10.3015 216.997 10.5379 216.796 10.9042C216.626 11.2114 216.581 11.6029 216.561 11.8704C216.513 12.5409 216.595 13.0584 216.814 13.4518C217.017 13.8191 217.441 14.1398 217.849 14.0448C218.134 13.978 218.403 13.7047 218.551 13.3316C218.712 12.9266 218.731 12.4576 218.728 12.0525C218.725 11.661 218.698 11.2143 218.511 10.881C218.337 10.568 217.996 10.3296 217.889 10.3073C217.853 10.3034 217.817 10.3015 217.781 10.3015ZM217.704 14.7881C217.114 14.7881 216.518 14.415 216.178 13.8045C215.889 13.2842 215.778 12.6339 215.837 11.8171C215.861 11.4818 215.922 10.9847 216.159 10.5534C216.525 9.88869 217.257 9.50011 217.977 9.58539C218.352 9.62996 218.887 10.0602 219.146 10.5263C219.412 11.0031 219.452 11.5632 219.455 12.0486C219.458 12.5235 219.434 13.0797 219.226 13.6001C218.989 14.1999 218.535 14.6311 218.014 14.7532C217.912 14.7774 217.809 14.7881 217.704 14.7881Z" fill="#5E8BFC"/>
</g>
<path d="M303.151 70.2682H310.674L310.656 43.6411C310.656 43.4428 310.814 43.2819 311.01 43.277L315.595 43.1703L306.966 30.0178L298.036 43.1169L302.8 43.277C302.997 43.2839 303.151 43.4447 303.151 43.6404V70.2682ZM311.038 70.9961H302.788C302.587 70.9961 302.425 70.8333 302.425 70.6327V43.992L297.351 43.8225C297.218 43.8175 297.099 43.7422 297.039 43.6237C296.979 43.5045 296.989 43.3633 297.063 43.2535L306.672 29.1592C306.74 29.0604 306.852 29.0003 306.972 29.0003C306.973 29.0003 306.974 29.0003 306.976 29.0003C307.097 29.0013 307.209 29.0633 307.276 29.165L316.561 43.3187C316.634 43.4292 316.641 43.5708 316.579 43.6878C316.518 43.8051 316.398 43.8796 316.266 43.8826L311.383 43.9958L311.401 70.6327C311.401 70.7284 311.363 70.8216 311.295 70.8894C311.226 70.9582 311.134 70.9961 311.038 70.9961Z" fill="#5E8BFC"/>
<path d="M169.483 342.744C174.479 344.37 179.542 344.943 184.44 345.499C185.13 345.576 185.815 345.654 186.499 345.735C189.763 346.118 193.139 346.517 196.459 346.388C198.635 346.305 200.844 345.994 202.979 345.692C203.716 345.589 204.55 345.529 205.433 345.465C209.229 345.189 212.134 344.808 212.134 342.665C212.134 334.853 212.211 324.628 212.286 314.742C212.397 299.881 212.502 285.847 212.306 284.111C211.671 278.497 201.427 279.465 190.579 280.491C187.36 280.797 184.032 281.111 180.927 281.247C170.091 281.721 169.747 282.977 169.563 283.653C169.532 283.765 169.5 283.879 169.453 283.999C169.272 285.403 169.36 307.934 169.426 324.421C169.455 332.01 169.481 338.593 169.483 342.744ZM195.159 347.438C192.203 347.438 189.249 347.09 186.379 346.753C185.698 346.672 185.013 346.594 184.326 346.517C179.26 345.942 174.022 345.349 168.808 343.599C168.6 343.53 168.459 343.335 168.459 343.114C168.459 338.994 168.433 332.242 168.402 324.425C168.277 292.47 168.296 284.084 168.495 283.635C168.525 283.568 168.549 283.482 168.577 283.383C168.916 282.14 169.301 280.73 180.884 280.224C183.962 280.089 187.277 279.775 190.484 279.472C201.845 278.397 212.574 277.382 213.323 283.997C213.526 285.792 213.425 299.211 213.309 314.748C213.234 324.635 213.158 334.857 213.158 342.665C213.158 345.933 208.914 346.24 205.507 346.486C204.641 346.549 203.825 346.608 203.123 346.706C200.961 347.012 198.726 347.327 196.498 347.412C196.051 347.429 195.606 347.438 195.159 347.438Z" fill="#5E8BFC"/>
<path d="M169.459 283.334C176.461 283.336 184.255 283.389 191.798 283.441C199.171 283.493 206.148 283.541 212.302 283.544C212.294 282.579 212.182 280.652 210.897 279.362C210.025 278.486 208.733 278.041 207.056 278.041C203.971 278.041 199.854 278.038 195.169 278.034C188.987 278.03 181.816 278.025 174.723 278.025C173.091 278.025 171.8 278.553 170.89 279.595C169.79 280.856 169.51 282.556 169.459 283.334ZM212.815 284.568C206.534 284.568 199.373 284.518 191.791 284.466C184.072 284.413 176.089 284.358 168.963 284.358C168.933 284.358 168.903 284.355 168.873 284.35C168.349 284.256 168.401 283.665 168.451 283.095C168.711 280.149 170.496 277 174.723 277C181.816 277 188.987 277.005 195.169 277.011C199.854 277.013 203.971 277.016 207.056 277.016C209.015 277.016 210.551 277.563 211.622 278.64C213.337 280.363 213.328 282.958 213.325 283.811C213.325 283.907 213.324 283.979 213.326 284.027C213.335 284.167 213.284 284.305 213.187 284.407C213.091 284.51 212.957 284.568 212.815 284.568Z" fill="#5E8BFC"/>
<path d="M169.475 342.94C169.502 343.849 169.653 345.429 170.314 346.939C170.979 348.462 174.982 350.294 176.994 350.297C183.076 350.353 188.139 350.326 193.496 350.297C196.722 350.281 200.056 350.263 203.746 350.263C210.926 350.263 211.995 344.981 212.117 342.671C202.651 342.675 184.577 342.79 169.475 342.94ZM184.312 351.354C181.989 351.354 179.581 351.345 176.99 351.322C174.781 351.319 170.27 349.395 169.377 347.35C168.506 345.356 168.436 343.273 168.447 342.471C168.446 342.333 168.498 342.188 168.593 342.09C168.687 341.992 168.818 341.922 168.955 341.921C184.443 341.764 203.226 341.647 212.643 341.647C212.925 341.647 213.155 341.876 213.155 342.16C213.155 344.3 212.476 351.288 203.746 351.288C200.059 351.288 196.726 351.305 193.503 351.322C190.424 351.338 187.444 351.354 184.312 351.354Z" fill="#5E8BFC"/>
<path d="M207.14 317.521C207.14 317.521 207.14 317.521 207.14 317.521C207.038 317.521 206.956 317.383 206.956 317.215L206.983 293.343C206.984 293.174 207.066 293.038 207.168 293.038C207.168 293.038 207.168 293.038 207.168 293.038C207.27 293.039 207.352 293.175 207.351 293.344L207.324 317.215C207.324 317.384 207.242 317.521 207.14 317.521Z" fill="#5E8BFC"/>
<path d="M206.003 311.619H208.305V298.942H206.003V311.619ZM208.489 312.229H205.819C205.718 312.229 205.636 312.093 205.636 311.924V298.637C205.636 298.469 205.718 298.332 205.819 298.332H208.489C208.59 298.332 208.672 298.469 208.672 298.637V311.924C208.672 312.093 208.59 312.229 208.489 312.229Z" fill="#5E8BFC"/>
<path d="M193.9 311.364H193.899C193.798 311.363 193.715 311.227 193.716 311.058L193.743 297.149C193.744 296.981 193.826 296.845 193.927 296.845C193.927 296.845 193.927 296.845 193.927 296.845C194.029 296.846 194.111 296.982 194.111 297.151L194.083 311.06C194.083 311.228 194.001 311.364 193.9 311.364Z" fill="#5E8BFC"/>
<path d="M192.76 307.667H195.062V300.537H192.76V307.667ZM195.245 308.278H192.577C192.475 308.278 192.393 308.142 192.393 307.973V300.232C192.393 300.062 192.475 299.926 192.577 299.926H195.245C195.347 299.926 195.429 300.062 195.429 300.232V307.973C195.429 308.142 195.347 308.278 195.245 308.278Z" fill="#5E8BFC"/>
<path d="M174.036 316.241H174.036C173.934 316.24 173.852 316.103 173.853 315.935L173.88 302.026C173.88 301.858 173.963 301.722 174.064 301.722C174.064 301.722 174.064 301.722 174.065 301.722C174.166 301.722 174.248 301.859 174.248 302.028L174.22 315.936C174.22 316.105 174.138 316.241 174.036 316.241Z" fill="#5E8BFC"/>
<path d="M172.9 312.544H175.202V305.414H172.9V312.544ZM175.385 313.155H172.716C172.615 313.155 172.532 313.019 172.532 312.85V305.109C172.532 304.939 172.615 304.803 172.716 304.803H175.385C175.487 304.803 175.569 304.939 175.569 305.109V312.85C175.569 313.019 175.487 313.155 175.385 313.155Z" fill="#5E8BFC"/>
<path d="M180.655 325.92C180.655 325.92 180.655 325.92 180.655 325.92C180.553 325.919 180.471 325.782 180.472 325.613L180.499 307.095C180.5 306.926 180.582 306.791 180.683 306.791C180.683 306.791 180.683 306.791 180.684 306.791C180.785 306.791 180.867 306.928 180.867 307.096L180.84 325.615C180.839 325.783 180.757 325.92 180.655 325.92Z" fill="#5E8BFC"/>
<path d="M179.52 321.474H181.821V311.584H179.52V321.474ZM182.005 322.085H179.336C179.235 322.085 179.152 321.948 179.152 321.779V311.278C179.152 311.11 179.235 310.973 179.336 310.973H182.005C182.106 310.973 182.189 311.11 182.189 311.278V321.779C182.189 321.948 182.106 322.085 182.005 322.085Z" fill="#5E8BFC"/>
<path d="M200.521 308.997C200.521 308.997 200.521 308.997 200.52 308.997C200.419 308.996 200.336 308.86 200.337 308.69L200.364 289.158C200.365 288.99 200.447 288.854 200.549 288.854C200.549 288.854 200.549 288.854 200.549 288.854C200.65 288.854 200.733 288.992 200.732 289.16L200.705 308.692C200.704 308.86 200.622 308.997 200.521 308.997Z" fill="#5E8BFC"/>
<path d="M201.869 304.361V293.489H199.199V304.361H201.869Z" fill="#5E8BFC"/>
<path d="M199.379 304.056H201.681V293.795H199.379V304.056ZM201.865 304.666H199.195C199.094 304.666 199.012 304.529 199.012 304.361V293.489C199.012 293.321 199.094 293.184 199.195 293.184H201.865C201.966 293.184 202.048 293.321 202.048 293.489V304.361C202.048 304.529 201.966 304.666 201.865 304.666Z" fill="#5E8BFC"/>
<path d="M187.276 313.128C187.276 313.128 187.276 313.128 187.275 313.128C187.174 313.127 187.092 312.99 187.092 312.821L187.119 297.734C187.12 297.566 187.202 297.43 187.303 297.43H187.304C187.405 297.43 187.488 297.567 187.487 297.736L187.46 312.824C187.459 312.992 187.377 313.128 187.276 313.128Z" fill="#5E8BFC"/>
<path d="M188.623 309.479V301.081H185.954V309.479H188.623Z" fill="#5E8BFC"/>
<path d="M186.14 309.173H188.442V301.387H186.14V309.173ZM188.625 309.784H185.956C185.855 309.784 185.772 309.648 185.772 309.479V301.081C185.772 300.913 185.855 300.776 185.956 300.776H188.625C188.727 300.776 188.809 300.913 188.809 301.081V309.479C188.809 309.648 188.727 309.784 188.625 309.784Z" fill="#5E8BFC"/>
<path d="M218.735 302.658C213.569 302.658 208.769 304.716 205.745 308.494C203.613 311.159 202.686 315.045 203.137 319.437C203.565 323.595 205.168 327.563 207.533 330.325C207.588 330.389 207.618 330.47 207.621 330.554C207.671 332.712 206.529 335.493 205.696 337.523C205.386 338.276 205.044 339.109 204.939 339.534C206.748 339.018 208.055 337.587 209.319 336.2C209.615 335.875 209.922 335.54 210.229 335.222L210.374 335.072C211.047 334.372 211.742 333.65 212.713 333.372C213.461 333.159 214.219 333.259 214.951 333.356L215.06 333.371C218.711 333.849 221.793 333.694 224.481 332.895C231.99 330.663 235.487 325.939 235.487 318.029C235.487 310.968 231.968 306.035 225.312 303.765C223.125 303.019 220.897 302.658 218.735 302.658ZM204.696 340.328C204.485 340.328 204.362 340.213 204.313 340.156C204.002 339.788 204.236 339.164 205.024 337.246C205.816 335.316 206.895 332.689 206.895 330.698C202.075 324.967 200.315 314.114 205.178 308.038C209.658 302.443 217.843 300.449 225.546 303.076C232.525 305.456 236.214 310.626 236.214 318.029C236.214 321.891 235.417 324.974 233.78 327.454C231.88 330.331 228.905 332.339 224.687 333.592C221.9 334.421 218.72 334.585 214.966 334.092L214.856 334.078C214.197 333.991 213.515 333.901 212.913 334.072C212.13 334.295 211.504 334.947 210.897 335.577L210.752 335.728C210.452 336.038 210.149 336.37 209.856 336.69C208.456 338.224 207.009 339.811 204.846 340.311C204.792 340.322 204.743 340.328 204.696 340.328Z" fill="#5E8BFC"/>
<path d="M216.279 317.547V327.276H222.942L222.928 317.547L227.159 317.471L219.659 308.554L211.897 317.433L216.279 317.547Z" fill="#5E8BFC"/>
<path d="M216.642 326.913H222.578L222.564 317.548C222.564 317.351 222.723 317.188 222.921 317.184L226.389 317.121L219.654 309.114L212.68 317.09L216.289 317.185C216.485 317.19 216.642 317.351 216.642 317.548V326.913ZM222.942 327.641H216.279C216.079 327.641 215.915 327.478 215.915 327.277V317.903L211.888 317.797C211.747 317.793 211.622 317.709 211.564 317.58C211.508 317.45 211.532 317.3 211.623 317.195L219.385 308.315C219.455 308.236 219.549 308.199 219.662 308.191C219.768 308.192 219.869 308.24 219.936 308.321L227.436 317.236C227.526 317.345 227.547 317.494 227.49 317.622C227.432 317.75 227.305 317.832 227.165 317.835L223.292 317.906L223.306 327.276C223.306 327.373 223.267 327.465 223.2 327.534C223.131 327.602 223.039 327.641 222.942 327.641Z" fill="#5E8BFC"/>
<path d="M136.283 174.853C133.834 174.288 131.329 174 128.839 174C113.626 174 100.098 184.772 96.6703 199.616C94.6834 208.207 96.1671 217.065 100.843 224.565C105.515 232.066 112.819 237.293 121.393 239.283C123.842 239.849 126.347 240.136 128.837 240.136H128.842C144.05 240.136 157.578 229.359 161.006 214.52C165.108 196.757 154.02 178.961 136.281 174.851L136.283 174.853ZM154.696 213.058C151.893 225.183 141.268 233.652 128.858 233.652C126.848 233.652 124.83 233.419 122.855 232.965C115.955 231.365 110.082 227.165 106.331 221.14C102.576 215.119 101.392 207.99 102.989 201.081C105.793 188.951 116.413 180.487 128.823 180.487C130.828 180.487 132.846 180.715 134.821 181.174C149.08 184.48 157.998 198.78 154.696 213.058Z" fill="#5E8BFC"/>
<path fill-rule="evenodd" clip-rule="evenodd" d="M135.021 192.076L124.615 193.029L117.817 193.649L109.236 212.173L126.438 210.597L136.408 224.649L144.984 206.126L135.019 192.073L135.021 192.076ZM135.331 212.921L129.3 204.426L118.901 205.375L121.76 199.202L132.159 198.253L138.191 206.748L135.331 212.921Z" fill="#5E8BFC"/>
<path d="M177.103 194.349V219.357H181.547V194.349H177.103ZM190.739 208.711C190.739 207.233 191.137 206.091 191.932 205.281C192.727 204.447 193.763 204.03 195.039 204.03C196.34 204.03 197.34 204.435 198.039 205.245C198.761 206.031 199.123 207.162 199.123 208.639V219.357H203.495V207.353C203.495 205.138 202.905 203.376 201.724 202.066C200.544 200.756 198.87 200.1 196.702 200.1C195.955 200.1 195.28 200.196 194.678 200.386C194.1 200.553 193.558 200.791 193.052 201.101C192.57 201.41 192.136 201.767 191.751 202.172C191.39 202.554 191.052 202.971 190.739 203.423V200.494H186.367V219.357H190.739V208.711ZM214.645 214.355L209.514 200.494H204.817L212.658 219.5H216.597L224.402 200.494H219.813L214.645 214.355ZM228.899 211.462H242.919C242.943 211.247 242.955 211.045 242.955 210.854C242.979 210.664 242.991 210.473 242.991 210.283C242.991 208.925 242.799 207.627 242.414 206.388C242.028 205.15 241.45 204.067 240.679 203.137C239.932 202.209 238.98 201.47 237.824 200.922C236.692 200.374 235.367 200.1 233.849 200.1C232.476 200.1 231.223 200.363 230.091 200.887C228.959 201.41 227.971 202.125 227.128 203.03C226.309 203.911 225.671 204.947 225.213 206.139C224.755 207.329 224.526 208.603 224.526 209.961C224.526 211.437 224.779 212.784 225.285 213.998C225.791 215.188 226.478 216.213 227.345 217.071C228.236 217.928 229.272 218.595 230.453 219.071C231.657 219.548 232.946 219.786 234.319 219.786C236.077 219.786 237.583 219.464 238.836 218.821C240.113 218.178 241.209 217.32 242.124 216.249L239.559 213.998C238.788 214.736 238.005 215.296 237.21 215.678C236.415 216.058 235.475 216.249 234.391 216.249C232.97 216.249 231.765 215.844 230.778 215.034C229.79 214.2 229.164 213.01 228.899 211.462ZM228.863 208.603C229.055 207.127 229.585 205.936 230.453 205.031C231.344 204.102 232.464 203.637 233.813 203.637C234.536 203.637 235.174 203.768 235.728 204.03C236.306 204.293 236.8 204.65 237.21 205.103C237.619 205.531 237.944 206.055 238.185 206.674C238.426 207.27 238.583 207.912 238.655 208.603H228.863ZM259.56 213.783V213.712C259.56 212.855 259.379 212.128 259.018 211.533C258.656 210.937 258.187 210.438 257.609 210.032C257.055 209.604 256.428 209.247 255.73 208.96C255.031 208.675 254.332 208.425 253.634 208.211C253.08 208.044 252.538 207.877 252.008 207.71C251.502 207.52 251.044 207.329 250.635 207.139C250.249 206.924 249.936 206.698 249.695 206.46C249.454 206.197 249.334 205.9 249.334 205.566V205.495C249.334 204.947 249.563 204.495 250.02 204.138C250.502 203.78 251.164 203.602 252.008 203.602C252.803 203.602 253.67 203.768 254.609 204.102C255.549 204.412 256.476 204.84 257.392 205.388L259.126 202.315C258.114 201.649 256.994 201.125 255.766 200.744C254.537 200.363 253.321 200.172 252.116 200.172C251.177 200.172 250.285 200.303 249.442 200.565C248.623 200.827 247.9 201.208 247.274 201.708C246.672 202.209 246.19 202.815 245.829 203.53C245.491 204.245 245.323 205.043 245.323 205.923V205.995C245.323 206.901 245.503 207.663 245.865 208.282C246.226 208.877 246.684 209.39 247.238 209.818C247.816 210.223 248.454 210.556 249.153 210.818C249.876 211.08 250.586 211.319 251.285 211.533C251.839 211.7 252.369 211.866 252.875 212.033C253.405 212.176 253.863 212.354 254.248 212.569C254.658 212.759 254.971 212.986 255.188 213.247C255.428 213.51 255.549 213.82 255.549 214.177V214.248C255.549 214.867 255.284 215.367 254.754 215.749C254.248 216.106 253.525 216.284 252.586 216.284C251.598 216.284 250.562 216.094 249.478 215.713C248.418 215.308 247.37 214.725 246.335 213.962L244.383 216.892C245.588 217.821 246.889 218.524 248.286 219C249.707 219.476 251.104 219.714 252.477 219.714C253.465 219.714 254.393 219.595 255.26 219.357C256.127 219.095 256.874 218.726 257.5 218.25C258.151 217.75 258.656 217.13 259.018 216.392C259.379 215.653 259.56 214.784 259.56 213.783ZM267.482 204.209H272.613V200.494H267.482V195.313H263.11V200.494H260.689V204.209H263.11V214.141C263.11 215.188 263.242 216.07 263.507 216.785C263.772 217.476 264.146 218.035 264.627 218.464C265.133 218.892 265.723 219.203 266.398 219.392C267.072 219.583 267.807 219.678 268.602 219.678C269.421 219.678 270.144 219.595 270.77 219.428C271.397 219.261 271.987 219.023 272.541 218.713V215.177C271.674 215.606 270.77 215.82 269.831 215.82C269.084 215.82 268.506 215.641 268.096 215.284C267.687 214.903 267.482 214.296 267.482 213.463V204.209ZM294.348 209.925C294.348 208.568 294.095 207.293 293.589 206.102C293.084 204.912 292.373 203.876 291.457 202.994C290.566 202.089 289.494 201.387 288.242 200.887C287.013 200.363 285.664 200.1 284.195 200.1C282.725 200.1 281.364 200.363 280.111 200.887C278.883 201.41 277.811 202.125 276.895 203.03C276.004 203.911 275.293 204.96 274.763 206.174C274.257 207.365 274.004 208.639 274.004 209.996C274.004 211.354 274.257 212.628 274.763 213.82C275.269 214.987 275.968 216.023 276.859 216.928C277.775 217.808 278.846 218.512 280.075 219.035C281.328 219.535 282.676 219.786 284.122 219.786C285.592 219.786 286.953 219.523 288.205 219C289.458 218.476 290.53 217.773 291.421 216.892C292.336 215.987 293.048 214.939 293.553 213.748C294.083 212.557 294.348 211.283 294.348 209.925ZM289.976 209.996C289.976 210.83 289.843 211.616 289.578 212.354C289.313 213.069 288.928 213.7 288.422 214.248C287.916 214.796 287.302 215.236 286.58 215.57C285.88 215.879 285.086 216.035 284.195 216.035C283.352 216.035 282.568 215.879 281.846 215.57C281.147 215.236 280.533 214.796 280.002 214.248C279.497 213.7 279.099 213.058 278.81 212.319C278.521 211.557 278.376 210.758 278.376 209.925C278.376 209.091 278.509 208.317 278.774 207.603C279.039 206.865 279.425 206.222 279.931 205.674C280.436 205.126 281.039 204.698 281.737 204.387C282.459 204.054 283.255 203.887 284.122 203.887C284.989 203.887 285.773 204.054 286.471 204.387C287.193 204.698 287.808 205.138 288.314 205.709C288.844 206.257 289.253 206.901 289.542 207.638C289.831 208.377 289.976 209.163 289.976 209.996Z" fill="#5E8BFC"/>
</g>
<defs>
<clipPath id="clip0_1932_43">
<rect width="405" height="415" rx="18.6577" fill="white"/>
</clipPath>
</defs>
</svg>
