<svg width="72" height="72" viewBox="0 0 72 72" fill="none" xmlns="http://www.w3.org/2000/svg">
<path d="M36 0C16.119 0 0 16.119 0 36C0 55.881 16.119 72 36 72C55.881 72 72 55.881 72 36C72 16.119 55.881 0 36 0ZM22.488 16.209C25.014 16.209 26.697 17.892 26.697 20.136C26.697 22.38 25.014 24.063 22.209 24.063C19.683 24.066 18 22.38 18 20.136C18 17.892 19.683 16.209 22.488 16.209ZM27 51H18V27H27V51ZM57 51H48.528V37.884C48.528 34.257 46.269 33.42 45.423 33.42C44.577 33.42 41.751 33.978 41.751 37.884C41.751 38.442 41.751 51 41.751 51H33V27H41.754V30.348C42.882 28.395 45.141 27 49.377 27C53.613 27 57 30.348 57 37.884V51Z" fill="white"/>
</svg>
