<svg width="405" height="416" viewBox="0 0 405 416" fill="none" xmlns="http://www.w3.org/2000/svg">
<g clip-path="url(#clip0_1932_764)">
<path d="M417.626 236.957C418.927 236.957 422.404 238.568 430.383 242.549C434.167 244.436 438.877 246.786 439.593 246.789C439.595 246.789 439.596 246.789 439.598 246.789C441.256 246.789 451.496 242.288 459.726 238.67L461.994 237.673C461.59 223.875 461.723 210.649 461.864 196.654C461.913 191.81 461.963 186.807 461.992 181.682C458.646 182.718 455.425 183.439 452.304 184.14C449 184.881 445.583 185.647 442.044 186.782C440.913 187.144 439.631 187.556 438.281 187.559C436.766 187.563 435.325 187.048 434.07 186.593L417.455 180.579C416.685 180.301 415.804 179.984 414.948 180.022C414.155 180.055 413.382 180.388 412.701 180.682C407.127 183.082 396.571 186.508 395.148 186.508H395.147C394.344 186.508 393.61 186.288 392.899 186.076C392.693 186.014 392.487 185.952 392.28 185.896C391.432 185.669 390.381 185.394 389.175 185.078C385.22 184.043 379.318 182.499 373.554 180.757L373.613 184.556C373.91 203.485 374.144 218.462 372.639 237.653C376.012 238.856 379.181 240.156 382.247 241.415C386.209 243.041 389.951 244.577 393.369 245.563C393.755 245.673 394.115 245.826 394.464 245.973C395.011 246.205 395.529 246.424 396.088 246.463C397.005 246.528 402.109 244.073 406.616 241.908C410.402 240.088 414.317 238.207 417.274 237.014C417.367 236.976 417.484 236.957 417.626 236.957ZM439.595 247.793C439.593 247.793 439.591 247.793 439.589 247.793C438.682 247.788 435.493 246.219 429.934 243.446C425.419 241.194 418.601 237.79 417.622 237.952C414.723 239.124 410.823 240.998 407.051 242.811C400.942 245.746 397.138 247.547 396.017 247.463C395.292 247.412 394.672 247.15 394.072 246.896C393.736 246.755 393.418 246.62 393.091 246.526C389.621 245.525 385.854 243.98 381.865 242.342C378.7 241.043 375.426 239.699 371.94 238.469C371.726 238.393 371.589 238.183 371.607 237.956C373.142 218.629 372.907 203.6 372.609 184.572L372.54 180.086C372.537 179.925 372.612 179.773 372.74 179.677C372.869 179.581 373.036 179.552 373.188 179.599C379.138 181.415 385.331 183.036 389.429 184.108C390.639 184.424 391.692 184.7 392.541 184.928C392.758 184.986 392.972 185.051 393.187 185.115C393.858 185.316 394.491 185.505 395.147 185.505C395.147 185.505 395.147 185.505 395.148 185.505C396.315 185.505 406.717 182.166 412.302 179.761C413.065 179.433 413.927 179.062 414.905 179.02C415.965 178.974 416.982 179.341 417.797 179.636L434.412 185.65C435.585 186.075 436.915 186.556 438.266 186.556C438.269 186.556 438.274 186.556 438.279 186.556C439.473 186.553 440.624 186.184 441.736 185.828C445.318 184.678 448.758 183.907 452.083 183.161C455.387 182.42 458.805 181.654 462.344 180.519C462.497 180.469 462.664 180.496 462.794 180.591C462.924 180.686 463 180.838 462.999 180.998C462.972 186.367 462.919 191.602 462.869 196.665C462.727 210.764 462.593 224.08 463.008 237.982C463.014 238.186 462.895 238.373 462.708 238.455L460.13 239.588C448.859 244.543 441.337 247.793 439.595 247.793Z" fill="#D6B164"/>
<path d="M399.963 231.43C399.809 231.43 399.655 231.358 399.557 231.223C396.736 227.368 393.64 223.565 390.357 219.919C390.172 219.713 390.189 219.397 390.395 219.211C390.601 219.027 390.918 219.043 391.104 219.249C394.409 222.919 397.526 226.748 400.368 230.632C400.531 230.855 400.482 231.169 400.259 231.332C400.17 231.398 400.065 231.43 399.963 231.43Z" fill="#D6B164"/>
<path d="M391.088 231.402C390.98 231.402 390.872 231.368 390.78 231.297C390.561 231.127 390.522 230.812 390.692 230.593C393.6 226.86 396.881 223.244 400.443 219.845C400.644 219.654 400.962 219.661 401.153 219.862C401.345 220.062 401.337 220.379 401.138 220.571C397.61 223.935 394.363 227.515 391.484 231.209C391.385 231.337 391.237 231.402 391.088 231.402Z" fill="#D6B164"/>
<path d="M396.055 243.535C396.054 243.535 396.053 243.535 396.053 243.535C395.961 243.535 395.886 243.46 395.887 243.366L396.003 232.622C396.004 232.53 396.09 232.443 396.172 232.457C396.265 232.458 396.34 232.534 396.339 232.626L396.222 243.37C396.221 243.461 396.147 243.535 396.055 243.535Z" fill="#D6B164"/>
<path d="M396.112 216.922C396.022 216.922 395.948 216.85 395.944 216.76L394.979 188.422C394.976 188.329 395.048 188.252 395.141 188.249C395.226 188.239 395.31 188.319 395.314 188.411L396.28 216.749C396.283 216.841 396.21 216.918 396.117 216.922C396.115 216.922 396.114 216.922 396.112 216.922Z" fill="#D6B164"/>
<path d="M431.549 200.669C431.525 200.669 431.502 200.668 431.479 200.664C431.204 200.627 431.012 200.374 431.05 200.099C431.251 198.647 431.604 197.386 432.128 196.24C432.243 195.989 432.542 195.878 432.793 195.993C433.045 196.108 433.156 196.405 433.041 196.658C432.558 197.713 432.233 198.883 432.045 200.236C432.01 200.488 431.795 200.669 431.549 200.669ZM431.493 208.682C431.222 208.682 430.999 208.467 430.991 208.195C430.974 207.607 430.95 207.02 430.925 206.434C430.91 206.068 430.895 205.701 430.882 205.336C430.868 204.951 430.856 204.566 430.85 204.179C430.846 203.902 431.067 203.674 431.344 203.669C431.347 203.669 431.35 203.669 431.352 203.669C431.626 203.669 431.85 203.889 431.854 204.163C431.86 204.542 431.872 204.922 431.885 205.299C431.899 205.663 431.913 206.027 431.929 206.393C431.954 206.984 431.978 207.575 431.995 208.166C432.003 208.443 431.785 208.674 431.507 208.682C431.502 208.682 431.497 208.682 431.493 208.682ZM430.434 216.573C430.37 216.573 430.303 216.56 430.239 216.533C429.983 216.425 429.864 216.131 429.972 215.876C430.202 215.334 430.39 214.767 430.532 214.192C430.691 213.542 430.807 212.869 430.886 212.134C430.915 211.859 431.162 211.66 431.438 211.69C431.714 211.719 431.913 211.966 431.884 212.241C431.801 213.02 431.677 213.737 431.507 214.43C431.353 215.058 431.147 215.676 430.898 216.267C430.816 216.458 430.63 216.573 430.434 216.573ZM420.695 221.649C420.671 221.649 420.648 221.648 420.624 221.644C420.206 221.585 419.786 221.519 419.366 221.452C418.479 221.31 417.562 221.165 416.68 221.103C416.403 221.084 416.195 220.844 416.213 220.568C416.233 220.291 416.476 220.081 416.749 220.103C417.676 220.167 418.616 220.317 419.524 220.462C419.938 220.528 420.351 220.594 420.764 220.652C421.039 220.691 421.23 220.944 421.191 221.218C421.156 221.469 420.941 221.649 420.695 221.649ZM424.692 221.703C424.456 221.703 424.245 221.535 424.199 221.295C424.148 221.023 424.327 220.76 424.599 220.709C424.867 220.658 425.127 220.593 425.376 220.513C426.277 220.224 427.112 219.719 427.858 219.011C428.059 218.82 428.376 218.828 428.568 219.029C428.759 219.23 428.751 219.547 428.549 219.738C427.693 220.55 426.729 221.133 425.683 221.468C425.396 221.56 425.093 221.636 424.786 221.694C424.755 221.7 424.723 221.703 424.692 221.703ZM409.392 223.788C409.239 223.788 409.087 223.718 408.988 223.586C408.823 223.363 408.87 223.049 409.092 222.884L409.324 222.712C410.338 221.959 411.386 221.18 412.578 220.678C412.836 220.571 413.129 220.691 413.236 220.946C413.344 221.201 413.224 221.495 412.968 221.603C411.888 222.057 410.934 222.766 409.923 223.517L409.691 223.689C409.6 223.756 409.496 223.788 409.392 223.788ZM404.103 226.076C403.233 226.076 402.45 225.861 401.774 225.435C401.539 225.288 401.468 224.977 401.617 224.744C401.765 224.509 402.076 224.439 402.309 224.586C403.217 225.158 404.418 225.224 405.765 224.79C406.031 224.703 406.313 224.85 406.398 225.113C406.483 225.376 406.339 225.659 406.074 225.744C405.39 225.964 404.726 226.076 404.103 226.076Z" fill="#D6B164"/>
<path d="M375.432 236.502C375.341 236.502 375.266 236.429 375.264 236.338L375.199 232.209C375.198 232.116 375.272 232.04 375.365 232.039C375.458 232.031 375.533 232.11 375.535 232.203L375.6 236.333C375.601 236.424 375.527 236.501 375.435 236.502C375.434 236.502 375.433 236.502 375.432 236.502Z" fill="#D6B164"/>
<path d="M375.236 188.219C375.145 188.219 375.07 188.146 375.068 188.055L374.986 183.231C374.984 183.139 375.058 183.063 375.151 183.061C375.24 183.065 375.319 183.133 375.321 183.226L375.404 188.049C375.406 188.141 375.331 188.218 375.239 188.219C375.238 188.219 375.237 188.219 375.236 188.219Z" fill="#D6B164"/>
<path d="M376.974 186.484C376.972 186.484 376.969 186.484 376.967 186.484C376.875 186.48 376.803 186.402 376.807 186.31L376.908 183.968C376.912 183.876 376.995 183.802 377.083 183.808C377.176 183.813 377.247 183.891 377.243 183.983L377.141 186.324C377.138 186.414 377.064 186.484 376.974 186.484Z" fill="#D6B164"/>
<path d="M372.651 322.9C372.35 322.9 372.087 322.678 372.045 322.372C371.56 318.897 372.473 314.75 374.265 312.286C375.818 310.15 377.931 308.974 380.215 308.974C384.939 308.974 389.372 310.564 389.809 322.088C389.822 322.425 389.558 322.711 389.219 322.723C388.88 322.732 388.596 322.472 388.583 322.135C388.165 311.121 384.22 310.199 380.215 310.199C378.307 310.199 376.593 311.169 375.258 313.006C373.932 314.829 372.741 318.485 373.26 322.203C373.306 322.538 373.072 322.848 372.737 322.894C372.708 322.898 372.68 322.9 372.651 322.9Z" fill="#D6B164"/>
<path d="M349.535 399.193H413.304V319.85H349.535V399.193ZM413.917 400.418H348.922C348.583 400.418 348.309 400.144 348.309 399.805V319.237C348.309 318.899 348.583 318.625 348.922 318.625H413.917C414.256 318.625 414.53 318.899 414.53 319.237V399.805C414.53 400.144 414.256 400.418 413.917 400.418Z" fill="#D6B164"/>
<path d="M398.619 316.67C396.322 316.536 365.664 316.471 363.176 316.546C363.176 325.624 366.212 327.173 373.495 327.444C384.823 327.869 391.808 327.815 394.688 326.375C398.323 324.557 399.253 320.955 398.619 316.67Z" fill="#D6B164"/>
<path d="M363.795 317.148C363.91 325.107 366.396 326.565 373.52 326.832C384.368 327.238 391.648 327.212 394.415 325.827C397.352 324.358 398.584 321.478 398.082 317.263C393.734 317.148 368.467 317.095 363.795 317.148ZM383.388 328.285C380.544 328.285 377.24 328.197 373.474 328.057C365.929 327.774 362.564 326.045 362.564 316.545C362.564 316.215 362.827 315.944 363.159 315.934C365.526 315.862 396.366 315.924 398.656 316.058C398.946 316.075 399.185 316.293 399.227 316.58C399.978 321.651 398.544 325.132 394.964 326.923C392.952 327.928 389.098 328.285 383.388 328.285Z" fill="#D6B164"/>
<path d="M352.721 329.301C352.608 329.301 352.517 329.21 352.516 329.097L352.488 322.148L352.693 322.12L352.897 322.147L352.925 329.095C352.926 329.208 352.834 329.3 352.722 329.301C352.721 329.301 352.721 329.301 352.721 329.301Z" fill="#D6B164"/>
<path d="M355.564 324.807C355.563 324.807 355.563 324.807 355.562 324.807C355.448 324.805 355.358 324.714 355.359 324.601L355.388 321.985C355.389 321.872 355.49 321.786 355.594 321.783C355.707 321.784 355.798 321.876 355.797 321.989L355.768 324.604C355.767 324.717 355.676 324.807 355.564 324.807Z" fill="#D6B164"/>
<path d="M363.755 346.621C363.752 346.621 363.748 346.621 363.745 346.621C363.527 346.617 363.327 346.499 363.221 346.31L359.901 340.429C359.735 340.134 359.84 339.762 360.134 339.595C360.429 339.429 360.804 339.533 360.97 339.829L363.774 344.796L366.7 339.981C366.876 339.692 367.253 339.599 367.542 339.775C367.832 339.95 367.924 340.327 367.749 340.617L364.279 346.327C364.168 346.509 363.969 346.621 363.755 346.621Z" fill="#D6B164"/>
<path d="M400.046 342.758H374.497C374.385 342.758 374.293 342.667 374.293 342.554C374.293 342.441 374.385 342.35 374.497 342.35H400.046C400.159 342.35 400.25 342.441 400.25 342.554C400.25 342.667 400.159 342.758 400.046 342.758Z" fill="#D6B164"/>
<path d="M363.755 363.072C363.752 363.072 363.748 363.072 363.745 363.072C363.527 363.069 363.327 362.949 363.221 362.761L359.901 356.88C359.735 356.585 359.84 356.212 360.134 356.046C360.429 355.88 360.804 355.984 360.97 356.279L363.774 361.247L366.7 356.432C366.876 356.142 367.253 356.05 367.542 356.226C367.832 356.401 367.924 356.777 367.749 357.068L364.279 362.778C364.168 362.961 363.969 363.072 363.755 363.072Z" fill="#D6B164"/>
<path d="M400.046 359.209H374.497C374.385 359.209 374.293 359.118 374.293 359.005C374.293 358.892 374.385 358.801 374.497 358.801H400.046C400.159 358.801 400.25 358.892 400.25 359.005C400.25 359.118 400.159 359.209 400.046 359.209Z" fill="#D6B164"/>
<path d="M363.347 379.527C363.343 379.527 363.34 379.527 363.337 379.527C363.119 379.524 362.919 379.404 362.812 379.216L359.493 373.335C359.327 373.04 359.431 372.667 359.726 372.5C360.021 372.334 360.396 372.438 360.562 372.734L363.366 377.702L366.292 372.886C366.468 372.597 366.845 372.505 367.134 372.682C367.424 372.856 367.516 373.232 367.341 373.522L363.871 379.232C363.76 379.416 363.561 379.527 363.347 379.527Z" fill="#D6B164"/>
<path d="M399.638 375.662H374.089C373.976 375.662 373.885 375.571 373.885 375.458C373.885 375.345 373.976 375.253 374.089 375.253H399.638C399.751 375.253 399.842 375.345 399.842 375.458C399.842 375.571 399.751 375.662 399.638 375.662Z" fill="#D6B164"/>
<path d="M250.797 300.816C249.543 296.656 248.749 292.259 249.402 287.963C250.055 283.666 252.328 279.466 256.067 277.28C258.694 275.744 261.807 275.163 264.848 275.163C275.207 275.163 279.032 281.172 279.48 287.341C280.62 303.022 269.265 317.256 264.189 322.092C262.869 320.385 252.755 307.31 250.797 300.816Z" fill="#D6B164"/>
<path d="M264.851 275.78C261.525 275.78 258.662 276.468 256.342 277.823C253.033 279.757 250.651 283.585 249.97 288.062C249.419 291.692 249.856 295.684 251.346 300.624C253.049 306.275 261.222 317.254 264.249 321.198C266.904 318.521 280.138 304.272 278.91 287.389C278.657 283.898 276.779 275.78 264.851 275.78ZM264.191 322.709C264.177 322.709 264.162 322.709 264.148 322.708C263.993 322.694 263.849 322.615 263.75 322.487C260.278 317.993 252.045 306.947 250.254 301.006C248.706 295.87 248.256 291.694 248.839 287.862C249.576 283.012 252.177 278.852 255.795 276.737C258.284 275.283 261.331 274.546 264.851 274.546C277.737 274.546 279.776 283.459 280.055 287.292C281.156 302.434 270.84 316.581 264.571 322.554C264.467 322.655 264.331 322.709 264.191 322.709Z" fill="#D6B164"/>
<path d="M264.138 283.576C263.102 283.616 261.145 284.154 260.039 285.23C258.94 286.298 258.24 287.818 258.118 289.399C257.94 291.677 258.557 293.45 259.95 294.669C261.806 296.295 264.708 296.551 266.088 296.11C269.507 295.019 270.316 292.372 270.504 291.284C270.875 289.147 270.518 287.38 269.442 286.034C267.939 284.155 265.391 283.525 264.138 283.576ZM264.596 297.537C262.931 297.537 260.83 297.031 259.226 295.627C257.546 294.156 256.766 291.967 256.974 289.296C257.12 287.405 257.957 285.59 259.271 284.314C260.675 282.949 262.927 282.387 264.098 282.343C265.622 282.288 268.535 283.007 270.311 285.229C271.627 286.874 272.07 288.987 271.632 291.51C271.404 292.822 270.44 296.009 266.414 297.293C265.934 297.446 265.304 297.537 264.596 297.537Z" fill="#D6B164"/>
<path d="M229.965 405.849C247.372 406.322 280.594 405.907 285.552 405.841C285.295 396.467 285.413 386.435 285.527 376.727C285.587 371.658 285.643 366.858 285.647 362.23C280.901 362.009 244.437 362.044 229.32 362.081C229.321 376.485 229.379 391.683 229.965 405.849ZM252.399 407.297C243.976 407.297 235.585 407.237 229.359 407.057C229.037 407.047 228.777 406.792 228.763 406.47C228.145 391.918 228.094 376.26 228.094 361.47C228.094 361.133 228.367 360.859 228.705 360.857C249.966 360.805 285.749 360.768 286.514 361.116C286.734 361.215 286.874 361.433 286.874 361.673C286.874 366.48 286.815 371.464 286.752 376.742C286.637 386.653 286.516 396.9 286.796 406.427C286.801 406.591 286.739 406.75 286.626 406.869C286.513 406.987 286.356 407.055 286.192 407.057C285.939 407.061 269.109 407.297 252.399 407.297Z" fill="#D6B164"/>
<path d="M232.971 403.137C232.861 403.137 232.77 403.05 232.767 402.939L232.494 393.845C232.491 393.732 232.58 393.638 232.693 393.635C232.811 393.638 232.9 393.72 232.903 393.833L233.176 402.926C233.178 403.039 233.09 403.133 232.977 403.137C232.976 403.137 232.973 403.137 232.971 403.137Z" fill="#D6B164"/>
<path d="M235.487 403.035C235.375 403.035 235.284 402.947 235.281 402.835L235.199 398.391C235.198 398.278 235.288 398.185 235.401 398.182C235.526 398.176 235.607 398.269 235.608 398.382L235.691 402.828C235.693 402.941 235.603 403.034 235.49 403.035C235.489 403.035 235.488 403.035 235.487 403.035Z" fill="#D6B164"/>
<path d="M283.563 369.621C283.452 369.621 283.361 369.534 283.358 369.423L283.211 364.176C283.209 364.063 283.298 363.97 283.41 363.966C283.528 363.969 283.618 364.052 283.62 364.165L283.767 369.411C283.771 369.524 283.681 369.619 283.568 369.621C283.567 369.621 283.564 369.621 283.563 369.621Z" fill="#D6B164"/>
<path d="M251.576 360.773C251.725 363.522 251.75 366.279 251.799 369.217C253.158 369.217 264.819 369.416 264.819 369.416C264.819 369.416 264.598 363.771 264.603 360.873L251.576 360.773Z" fill="#D6B164"/>
<path d="M252.401 368.611C254.736 368.636 261.951 368.756 264.18 368.793C264.128 367.354 264.007 363.829 263.99 361.482L252.219 361.392C252.321 363.541 252.355 365.692 252.391 367.958L252.401 368.611ZM264.817 370.029C264.814 370.029 264.81 370.029 264.806 370.029C264.689 370.027 253.136 369.831 251.797 369.831C251.463 369.831 251.191 369.563 251.184 369.229L251.164 367.977C251.126 365.495 251.089 363.151 250.962 360.808C250.952 360.64 251.014 360.475 251.131 360.352C251.248 360.23 251.428 360.164 251.578 360.162L264.606 360.261C264.943 360.265 265.215 360.538 265.214 360.875C265.21 363.728 265.428 369.337 265.43 369.393C265.436 369.562 265.373 369.725 265.255 369.846C265.139 369.964 264.981 370.029 264.817 370.029Z" fill="#D6B164"/>
<path d="M169.651 380.486C167.303 380.486 165.283 380.936 163.646 381.824C161.309 383.091 159.627 385.6 159.147 388.534C158.757 390.911 159.065 393.526 160.116 396.761C161.32 400.467 167.096 407.666 169.225 410.239C171.076 408.509 180.445 399.168 179.577 388.094C179.398 385.806 178.072 380.486 169.651 380.486ZM169.186 411.196C169.176 411.196 169.166 411.196 169.156 411.195C169.05 411.187 168.952 411.137 168.885 411.055C166.438 408.117 160.634 400.89 159.371 397.003C158.28 393.644 157.964 390.913 158.374 388.408C158.893 385.237 160.724 382.519 163.272 381.137C165.025 380.186 167.171 379.703 169.651 379.703C178.726 379.703 180.162 385.529 180.358 388.032C181.133 397.937 173.863 407.192 169.445 411.098C169.373 411.162 169.281 411.196 169.186 411.196Z" fill="#D6B164"/>
<path d="M169.149 385.589C168.417 385.615 167.033 385.968 166.251 386.674C165.474 387.375 164.978 388.373 164.891 389.411C164.767 390.906 165.203 392.07 166.188 392.871C167.5 393.937 169.552 394.105 170.528 393.816C172.945 393.101 173.517 391.362 173.651 390.647C173.914 389.245 173.66 388.085 172.898 387.201C171.836 385.968 170.033 385.561 169.149 385.589H169.149ZM169.472 394.726C168.3 394.726 166.822 394.395 165.694 393.477C164.513 392.518 163.965 391.089 164.111 389.346C164.214 388.111 164.802 386.926 165.726 386.093C166.714 385.203 168.298 384.836 169.121 384.807C170.193 384.772 172.242 385.24 173.492 386.691C174.417 387.764 174.729 389.144 174.42 390.791C174.26 391.647 173.582 393.728 170.751 394.566C170.413 394.665 169.97 394.726 169.472 394.726Z" fill="#D6B164"/>
<path d="M141.4 325.959C141.932 325.959 142.465 325.97 143.002 325.994L143.562 326.019C147.243 326.182 151.05 326.351 154.011 328.326C155.797 329.517 157.093 332.068 158.467 334.768C159.751 337.295 161.077 339.9 162.748 341.06C163.119 339.655 162.904 337.344 162.695 335.101C162.453 332.501 162.224 330.045 162.795 328.577C163.608 326.484 165.808 325.655 168.137 324.778C169.933 324.101 171.791 323.401 173.069 322.081C177.315 317.693 176.696 310.774 175.783 304.634C175.729 304.269 175.676 303.898 175.623 303.526C175.053 299.521 174.462 295.381 171.393 292.757C167.612 289.525 159.747 288.784 153.317 288.499C146.358 288.191 139.335 288.51 132.445 289.447C128.805 289.942 125.093 290.707 122.598 292.937C120.332 294.962 119.441 297.885 118.918 300.204C117.679 305.7 117.707 311.504 118.999 316.99C119.409 318.729 120.027 320.684 121.501 322.002C124.071 324.298 126.323 325.666 128.016 325.958C130.985 326.471 133.837 326.306 136.856 326.132C138.338 326.047 139.859 325.959 141.4 325.959ZM162.968 342.074C162.902 342.074 162.837 342.058 162.778 342.027C160.682 340.916 159.188 337.977 157.743 335.135C156.477 332.647 155.169 330.074 153.56 329C150.788 327.151 147.096 326.987 143.526 326.828L142.964 326.804C140.914 326.71 138.875 326.828 136.902 326.941C133.97 327.11 130.938 327.285 127.878 326.757C126.009 326.434 123.682 325.038 120.961 322.606C119.318 321.138 118.648 319.037 118.209 317.175C116.889 311.571 116.86 305.64 118.126 300.025C118.676 297.589 119.619 294.512 122.057 292.333C124.715 289.958 128.568 289.155 132.335 288.644C139.274 287.7 146.344 287.379 153.353 287.69C159.913 287.98 167.951 288.749 171.92 292.141C175.223 294.964 175.863 299.452 176.427 303.411C176.479 303.782 176.532 304.15 176.586 304.515C177.528 310.846 178.154 317.991 173.652 322.644C172.248 324.095 170.303 324.828 168.424 325.536C166.269 326.348 164.233 327.115 163.551 328.87C163.05 330.16 163.28 332.634 163.503 335.026C163.756 337.749 163.996 340.32 163.341 341.831C163.295 341.934 163.209 342.014 163.102 342.052C163.059 342.067 163.013 342.074 162.968 342.074Z" fill="#D6B164"/>
<path d="M130.625 314.625C130.47 314.625 130.328 314.537 130.26 314.398C130.191 314.258 130.21 314.088 130.308 313.966C131.497 312.485 132.727 310.953 133.819 309.368C134.532 308.333 135.244 307.2 135.608 305.933C135.991 304.604 135.912 303.321 135.384 302.32C135.228 302.025 135.062 301.816 134.876 301.682C134.396 301.334 133.68 301.401 133.111 301.497C132.583 301.587 131.938 301.747 131.639 302.193C131.282 302.726 131.458 303.512 132.192 304.664C132.312 304.853 132.256 305.104 132.067 305.224C131.878 305.343 131.628 305.288 131.507 305.099C130.923 304.182 130.231 302.837 130.964 301.743C131.435 301.04 132.286 300.816 132.975 300.698C133.701 300.575 134.628 300.501 135.352 301.025C135.642 301.234 135.887 301.535 136.103 301.943C136.728 303.129 136.83 304.626 136.388 306.158C135.991 307.535 135.24 308.736 134.488 309.828C133.544 311.196 132.507 312.517 131.481 313.8L137.261 313.701C137.263 313.701 137.265 313.701 137.268 313.701C137.489 313.701 137.67 313.878 137.674 314.1C137.677 314.323 137.499 314.508 137.275 314.512L130.632 314.625C130.63 314.625 130.627 314.625 130.625 314.625Z" fill="#D6B164"/>
<path d="M144.899 309.219C144.882 309.219 144.863 309.218 144.845 309.216C143.328 309.012 141.784 308.951 140.256 309.033C140.122 309.039 139.998 308.983 139.916 308.88C139.835 308.777 139.808 308.641 139.844 308.516C140.55 306.08 140.787 303.459 140.528 300.937C140.505 300.715 140.667 300.516 140.89 300.493C141.112 300.471 141.312 300.632 141.335 300.855C141.585 303.293 141.391 305.82 140.772 308.2C142.169 308.157 143.571 308.228 144.952 308.412C145.175 308.442 145.331 308.646 145.301 308.867C145.274 309.071 145.099 309.219 144.899 309.219Z" fill="#D6B164"/>
<path d="M145.111 314.68C144.889 314.68 144.708 314.501 144.705 314.279L144.582 304.279C144.579 304.055 144.759 303.871 144.983 303.869C145.215 303.874 145.392 304.045 145.394 304.269L145.518 314.269C145.52 314.493 145.34 314.677 145.116 314.68C145.114 314.68 145.113 314.68 145.111 314.68Z" fill="#D6B164"/>
<path d="M149.794 318.496C149.762 318.496 149.729 318.492 149.695 318.483C149.478 318.429 149.346 318.209 149.401 317.991C150.939 311.879 152.556 305.692 154.208 299.6C154.266 299.385 154.49 299.256 154.706 299.315C154.922 299.373 155.05 299.596 154.991 299.812C153.341 305.899 151.725 312.081 150.188 318.189C150.142 318.373 149.976 318.496 149.794 318.496Z" fill="#D6B164"/>
<path d="M159.61 314.955C159.609 314.955 159.608 314.955 159.606 314.955C159.382 314.953 159.203 314.769 159.204 314.546C159.248 310.106 160.614 305.667 163.063 301.959L157.909 301.875C157.685 301.871 157.507 301.686 157.51 301.462C157.514 301.241 157.695 301.064 157.916 301.064C157.917 301.064 157.92 301.064 157.922 301.064L163.831 301.162C163.981 301.164 164.119 301.249 164.186 301.384C164.254 301.518 164.243 301.678 164.155 301.801C161.531 305.496 160.061 310.024 160.016 314.553C160.014 314.776 159.833 314.955 159.61 314.955Z" fill="#D6B164"/>
<path d="M163.652 308.844C163.634 308.844 163.616 308.842 163.596 308.84C161.863 308.605 160.104 308.587 158.367 308.785C158.142 308.81 157.942 308.651 157.917 308.429C157.891 308.206 158.052 308.005 158.274 307.979C160.079 307.773 161.906 307.793 163.706 308.037C163.928 308.067 164.084 308.271 164.053 308.493C164.026 308.696 163.852 308.844 163.652 308.844Z" fill="#D6B164"/>
<path d="M64.7885 384.301C65.2395 386.43 65.4657 392.528 65.4657 393.294C65.4657 394.924 64.8382 395.586 63.8951 396.079C58.6628 398.819 55.6397 404.619 56.3741 410.513C57.1059 416.385 62.5308 421.346 68.2216 421.346C76.5018 421.346 80.4419 417.383 80.9986 408.498C81.093 406.983 80.5824 406.397 80.2978 406.299C80.1847 406.261 80.099 406.289 80.0281 406.391C79.7598 406.782 79.479 407.27 79.1795 407.789C78.5719 408.845 77.9432 409.937 77.1915 410.646C74.361 413.315 71.0161 414.305 68.0154 413.361C66.4398 412.864 65.1215 411.787 64.3984 410.405C62.5383 406.85 64.8705 403.073 68.0066 400.906C68.2067 400.768 68.4117 400.631 68.6192 400.493C69.8009 399.705 71.0235 398.891 71.3615 397.669C71.4634 397.305 71.4509 396.893 71.4385 396.456C71.4323 396.223 71.4261 395.991 71.4335 395.759C71.4522 395.258 71.4771 394.605 71.5069 393.857C71.6361 390.626 71.8424 385.415 71.7666 382.794C71.0583 382.924 70.3463 383.022 69.6518 383.117C67.875 383.359 66.1876 383.59 64.7885 384.301ZM68.2216 422.57C61.8362 422.57 55.9752 417.23 55.1576 410.664C54.3599 404.267 57.6427 397.969 63.326 394.996C63.8939 394.698 64.2393 394.435 64.2393 393.294C64.2393 391.688 63.8765 385.083 63.5087 384.246C63.3844 383.965 63.4888 383.636 63.7522 383.476C65.4408 382.456 67.4972 382.175 69.4853 381.903C70.3899 381.779 71.3255 381.652 72.2139 381.455C72.3891 381.417 72.5717 381.457 72.7146 381.564C72.8575 381.672 72.9457 381.836 72.9581 382.013C73.1122 384.344 72.8749 390.329 72.7332 393.905C72.7034 394.652 72.6773 395.302 72.6599 395.802C72.6525 396.008 72.6587 396.214 72.6636 396.421C72.6786 396.929 72.6935 397.454 72.5444 397.995C72.0834 399.656 70.6048 400.642 69.2989 401.511C69.0976 401.646 68.8988 401.778 68.7049 401.912C66.0111 403.774 63.9709 406.946 65.4843 409.838C66.0596 410.935 67.1157 411.794 68.3844 412.192C72.0237 413.337 75.1686 410.869 76.349 409.755C76.9703 409.17 77.5791 408.112 78.1171 407.177C78.4278 406.638 78.721 406.129 79.0168 405.698C79.3995 405.141 80.0592 404.921 80.6979 405.141C81.5204 405.424 82.3529 406.475 82.2225 408.575C81.8472 414.583 79.9859 422.57 68.2216 422.57Z" fill="#D6B164"/>
<path d="M50.3428 384.562C55.8335 384.562 61.1491 384.619 66.3354 384.673C73.3446 384.748 80.591 384.826 88.1766 384.762C92.4547 384.727 93.0325 382.486 93.0325 380.297C93.0325 376.251 92.9927 372.627 92.9554 369.124C92.9181 365.562 92.8784 361.879 92.8784 357.695C92.8784 355.944 92.7865 354.307 91.6756 353.518C90.8332 352.921 89.4627 352.828 88.2326 352.816C71.723 352.653 58.0154 352.606 44.7825 352.906C43.4467 352.936 41.5232 353.731 40.948 354.749C40.1266 356.202 40.1354 357.953 40.1441 359.498L40.2522 380.734C40.2572 381.859 40.3106 382.927 40.8946 383.623C41.66 384.533 43.1584 384.6 44.4855 384.586C46.4611 384.569 48.4131 384.562 50.3428 384.562ZM82.3131 386.01C76.8249 386.01 71.5081 385.954 66.3218 385.898C59.3176 385.824 52.0736 385.748 44.4966 385.81C42.8813 385.825 41.0635 385.728 39.9552 384.411C39.1078 383.402 39.032 382.099 39.0258 380.74L38.9177 359.504C38.909 357.891 38.8991 355.884 39.8794 354.147C40.7132 352.674 43.0591 351.72 44.7539 351.681C58.0042 351.381 71.7231 351.428 88.245 351.591C89.6652 351.605 91.2681 351.726 92.3864 352.52C94.1048 353.741 94.1048 356.12 94.1048 357.695C94.1048 361.871 94.1445 365.552 94.1818 369.111C94.2191 372.617 94.2589 376.243 94.2589 380.297C94.2589 384.092 92.272 385.953 88.1866 385.987C86.206 386.004 84.249 386.01 82.3131 386.01Z" fill="#D6B164"/>
<path d="M73.7895 352.688C73.4788 352.688 73.213 352.453 73.1806 352.138C73.0191 350.6 72.7097 349.073 72.2599 347.595C71.9207 346.479 71.4026 345.077 70.4085 344.126C69.1784 342.947 67.2264 342.519 65.4359 343.036C63.7771 343.515 62.2749 344.763 61.3169 346.46C60.4733 347.952 60.0172 349.832 59.9998 351.897C59.9974 352.233 59.7227 352.504 59.3873 352.504C59.3848 352.504 59.3836 352.504 59.3811 352.504C59.0431 352.501 58.771 352.225 58.7735 351.886C58.7933 349.583 59.2891 347.554 60.2484 345.857C61.3629 343.885 63.1298 342.427 65.0967 341.86C67.2985 341.224 69.7177 341.765 71.2572 343.242C72.4563 344.39 73.0502 345.981 73.4329 347.239C73.9063 348.79 74.2306 350.396 74.3996 352.011C74.4356 352.348 74.1908 352.649 73.8541 352.684C73.8317 352.686 73.8106 352.688 73.7895 352.688Z" fill="#D6B164"/>
<path d="M66.5054 346.672C66.1675 346.672 65.8941 346.4 65.8916 346.063L65.5996 327.278C65.5971 326.94 65.8705 326.664 66.2097 326.663H66.2122C66.5489 326.663 66.8235 326.936 66.8247 327.272L67.118 346.056C67.1205 346.395 66.8459 346.671 66.5079 346.672H66.5054Z" fill="#D6B164"/>
<path d="M83.3486 365.076H49.8288C49.7157 365.076 49.625 364.985 49.625 364.872C49.625 364.759 49.7157 364.667 49.8288 364.667H83.3486C83.4617 364.667 83.5536 364.759 83.5536 364.872C83.5536 364.985 83.4617 365.076 83.3486 365.076Z" fill="#D6B164"/>
<path d="M83.3486 371.201H49.8288C49.7157 371.201 49.625 371.109 49.625 370.996C49.625 370.882 49.7157 370.792 49.8288 370.792H83.3486C83.4617 370.792 83.5536 370.882 83.5536 370.996C83.5536 371.109 83.4617 371.201 83.3486 371.201Z" fill="#D6B164"/>
<path d="M-56.9514 373.383L-50.7262 394.546L3.0599 394.358L9.37083 373.564C5.57697 373.271 -15.1929 371.443 -24.0371 365.906C-33.8594 371.556 -53.2985 373.132 -56.9514 373.383ZM-51.0651 395.453C-51.2666 395.453 -51.4436 395.321 -51.5004 395.127L-57.9815 373.096C-58.0206 372.964 -57.997 372.82 -57.9172 372.707C-57.8379 372.595 -57.7107 372.524 -57.5729 372.516C-57.3445 372.503 -34.6095 371.112 -24.258 364.986C-24.1092 364.898 -23.924 364.902 -23.7793 364.996C-14.5904 370.965 9.75543 372.685 10.0003 372.702C10.1382 372.711 10.2642 372.783 10.3428 372.897C10.4215 373.01 10.4434 373.153 10.4036 373.286L3.83084 394.941C3.77265 395.131 3.59745 395.262 3.39817 395.262L-51.0637 395.453C-51.0641 395.453 -51.0647 395.453 -51.0651 395.453Z" fill="#D6B164"/>
<path d="M6.26217 378.096C6.25528 378.096 6.2481 378.095 6.24094 378.094L5.86819 378.042C-8.11421 376.109 -18.6697 373.693 -23.874 371.235C-34.1674 376.377 -53.6425 377.986 -53.8313 377.998C-53.9171 378.004 -53.9868 377.941 -53.9919 377.857C-53.9972 377.774 -53.9341 377.703 -53.8507 377.697C-53.6622 377.685 -34.1688 376.074 -23.944 370.932C-23.9024 370.911 -23.8532 370.91 -23.8108 370.93C-18.6575 373.386 -8.10271 375.806 5.90993 377.743L6.28295 377.796C6.36559 377.807 6.42331 377.884 6.41182 377.965C6.40106 378.042 6.33644 378.096 6.26217 378.096Z" fill="#D6B164"/>
<path d="M5.80959 379.92C5.80232 379.92 5.79515 379.919 5.78762 379.918L3.06666 379.522C2.45869 379.433 1.83032 379.342 1.22924 379.127C1.15065 379.098 1.10975 379.012 1.13769 378.933C1.1661 378.855 1.25296 378.815 1.33128 378.842C1.90395 379.048 2.51725 379.137 3.11041 379.223L5.83146 379.619C5.91401 379.631 5.97109 379.708 5.95923 379.79C5.94811 379.866 5.88349 379.92 5.80959 379.92Z" fill="#D6B164"/>
<path d="M-7.20158 123.755C-19.2947 123.755 -29.1328 133.383 -29.1328 145.218C-29.1328 157.053 -19.2947 166.681 -7.20158 166.681C4.89149 166.681 14.7296 157.053 14.7296 145.218C14.7296 133.383 4.89149 123.755 -7.20158 123.755ZM-7.20158 167.589C-19.796 167.589 -30.043 157.553 -30.043 145.218C-30.043 132.883 -19.796 122.847 -7.20158 122.847C5.39289 122.847 15.6398 132.883 15.6398 145.218C15.6398 157.553 5.39289 167.589 -7.20158 167.589Z" fill="#D6B164"/>
<path d="M-6.79353 149.312C-6.7962 149.312 -6.79975 149.312 -6.80331 149.312C-6.93512 149.308 -7.05802 149.248 -7.14263 149.148L-14.6234 140.184C-14.7837 139.991 -14.7579 139.704 -14.5646 139.544C-14.3723 139.383 -14.0855 139.409 -13.9243 139.602L-6.77748 148.167L3.14348 137.349C3.31269 137.164 3.60123 137.152 3.78558 137.321C3.97082 137.49 3.98327 137.777 3.81406 137.962L-6.45778 149.164C-6.54417 149.258 -6.66618 149.312 -6.79353 149.312Z" fill="#D6B164"/>
<path d="M13.0479 145.37H9.83197C9.74826 145.37 9.67969 145.302 9.67969 145.219C9.67969 145.135 9.74826 145.066 9.83197 145.066H13.0479C13.1316 145.066 13.1992 145.135 13.1992 145.219C13.1992 145.302 13.1316 145.37 13.0479 145.37Z" fill="#D6B164"/>
<path d="M123.652 69.4166C123.282 69.5586 123.051 70.3429 123.047 71.4852C123.038 73.7111 122.98 79 122.919 84.5991C122.853 90.6698 122.784 96.9355 122.776 99.511L150.625 99.4741C151.004 94.1776 151.129 89.4695 149.303 85.5498C148.591 84.0233 147.617 82.7246 146.597 81.4201C144.388 78.5898 142.06 75.8369 139.678 73.2362C138.579 72.0358 137.488 70.901 136.235 70.2067C134.336 69.1551 133.762 69.1602 131.623 69.182C128.982 69.2081 126.252 69.2358 123.652 69.4166ZM122.345 100.37C122.232 100.37 122.122 100.325 122.042 100.245C121.961 100.164 121.916 100.055 121.916 99.9406C121.916 97.6979 121.988 91.0338 122.059 84.5899C122.121 78.9925 122.179 73.7052 122.187 71.4819C122.194 69.8091 122.633 68.8055 123.456 68.5785C123.483 68.5709 123.512 68.5659 123.54 68.5642C126.182 68.3784 128.943 68.3507 131.614 68.3238C133.813 68.3019 134.554 68.2944 136.652 69.4561C138.019 70.2134 139.163 71.402 140.312 72.6562C142.71 75.2737 145.052 78.0443 147.276 80.8913C148.327 82.2379 149.332 83.5787 150.082 85.1875C152.042 89.393 151.862 94.3541 151.453 99.9339C151.437 100.157 151.25 100.331 151.026 100.331L122.346 100.37C122.346 100.37 122.346 100.37 122.345 100.37Z" fill="#D6B164"/>
<path d="M136.505 94.8458C140.966 94.8458 143.804 97.3667 144.362 101.006C144.868 104.311 143.212 107.95 140.058 109.463C134.949 111.914 129.135 108.146 129.135 102.785C129.135 97.3281 132.748 94.8458 136.505 94.8458Z" fill="#D6B164"/>
<path d="M136.504 95.2749C133.303 95.2749 129.564 97.2419 129.564 102.785C129.564 105.168 130.808 107.372 132.89 108.68C135.009 110.009 137.618 110.158 139.871 109.076C142.727 107.705 144.437 104.34 143.937 101.072C143.389 97.4966 140.541 95.2749 136.504 95.2749ZM136.737 110.653C135.24 110.653 133.751 110.234 132.433 109.406C130.098 107.94 128.705 105.464 128.705 102.785C128.705 97.004 132.622 94.4167 136.504 94.4167C140.996 94.4167 144.17 96.9174 144.787 100.942C145.342 104.574 143.432 108.32 140.243 109.85C139.125 110.387 137.929 110.653 136.737 110.653Z" fill="#D6B164"/>
<path d="M136.639 99.1123C135.049 99.1123 133.194 100.042 133.194 102.661C133.194 103.736 133.773 104.748 134.743 105.37C135.82 106.06 137.16 106.153 138.328 105.618C139.745 104.97 140.594 103.38 140.345 101.838C140.071 100.131 138.686 99.1123 136.639 99.1123ZM136.758 106.821C135.893 106.821 135.033 106.576 134.279 106.093C133.061 105.312 132.334 104.029 132.334 102.661C132.334 99.6167 134.496 98.2541 136.639 98.2541C139.107 98.2541 140.852 99.5755 141.195 101.702C141.503 103.618 140.447 105.593 138.686 106.398C138.069 106.681 137.411 106.821 136.758 106.821Z" fill="#D6B164"/>
<path d="M128.871 82.6332L141.296 82.64L136.025 76.7374C136.015 76.7265 136.006 76.7147 135.997 76.7029C135.154 75.5354 133.263 74.6275 131.682 74.6275C131.674 74.6275 131.666 74.6275 131.657 74.6275L128.786 74.7713L128.871 82.6332ZM142.255 83.499L128.445 83.4915C128.21 83.4915 128.018 83.3015 128.015 83.0661L127.922 74.3678C127.919 74.1375 128.1 73.9467 128.33 73.9349L131.634 73.7693C131.644 73.7693 131.654 73.7693 131.665 73.7693C133.533 73.7693 135.672 74.8015 136.681 76.1818L142.577 82.7837C142.69 82.9098 142.717 83.0905 142.648 83.2452C142.579 83.399 142.425 83.499 142.255 83.499Z" fill="#D6B164"/>
<path d="M78.9878 99.5235C82.64 99.5873 108.491 100.013 121.969 99.531C122.429 85.0764 122.472 69.5576 122.473 54.8642C106.07 54.8121 82.0441 54.8138 78.9188 55.0189C78.9205 59.7606 78.9643 64.678 79.0114 69.877C79.0998 79.7664 79.1915 89.9862 78.9878 99.5235ZM104.619 100.616C91.7221 100.616 78.7353 100.377 78.54 100.374C78.4256 100.372 78.317 100.325 78.2379 100.242C78.1587 100.16 78.1158 100.05 78.1184 99.9353C78.3347 90.2888 78.2412 79.9161 78.1512 69.8846C78.104 64.546 78.0586 59.5034 78.0586 54.6415C78.0586 54.4902 78.1386 54.3498 78.2682 54.2725C78.4651 54.1556 78.7353 53.9951 100.914 53.9791C111.821 53.9707 122.795 54.0068 122.904 54.0068C123.141 54.0077 123.333 54.2002 123.333 54.4364C123.333 69.3987 123.292 85.2378 122.815 99.9589C122.808 100.184 122.627 100.366 122.402 100.374C117.597 100.556 111.118 100.616 104.619 100.616Z" fill="#D6B164"/>
<path d="M91.0712 94.8458C95.5322 94.8458 98.3705 97.3667 98.9286 101.006C99.4344 104.311 97.7779 107.95 94.6241 109.463C89.5157 111.914 83.7012 108.146 83.7012 102.785C83.7012 97.3281 87.3146 94.8458 91.0712 94.8458Z" fill="#D6B164"/>
<path d="M91.0708 95.2749C87.8689 95.2749 84.1309 97.2419 84.1309 102.785C84.1309 105.168 85.3741 107.372 87.4565 108.68C89.5751 110.009 92.1844 110.158 94.4376 109.076C97.2944 107.705 99.0039 104.34 98.5031 101.072C97.9551 97.4966 95.1076 95.2749 91.0708 95.2749ZM91.3031 110.653C89.8065 110.653 88.3175 110.234 86.9994 109.406C84.6645 107.94 83.2715 105.464 83.2715 102.785C83.2715 97.004 87.1888 94.4167 91.0708 94.4167C95.5621 94.4167 98.7362 96.9174 99.3524 100.942C99.9096 104.573 97.9989 108.32 94.8105 109.85C93.6919 110.387 92.4949 110.653 91.3031 110.653Z" fill="#D6B164"/>
<path d="M91.2097 99.1123C89.6205 99.1123 87.7645 100.042 87.7645 102.661C87.7645 103.736 88.3436 104.748 89.3133 105.37C90.3898 106.06 91.7298 106.153 92.8981 105.618C94.3156 104.97 95.164 103.38 94.9157 101.838C94.6413 100.131 93.2559 99.1123 91.2097 99.1123ZM91.3283 106.821C90.4631 106.821 89.6037 106.576 88.8495 106.093C87.6315 105.312 86.9043 104.029 86.9043 102.661C86.9043 99.6167 89.0667 98.2541 91.2097 98.2541C93.6776 98.2541 95.4233 99.5755 95.765 101.702C96.0731 103.618 95.0176 105.593 93.2567 106.398C92.6389 106.681 91.9815 106.821 91.3283 106.821Z" fill="#D6B164"/>
<path d="M82.5591 91.1104C82.4825 91.1104 82.4186 91.049 82.416 90.9717C82.4144 90.8918 82.4766 90.8262 82.5558 90.8237C88.6388 90.6455 94.8927 90.6825 100.94 90.7186C106.986 90.754 113.236 90.7918 119.314 90.6136C119.386 90.6211 119.46 90.6733 119.461 90.7523C119.464 90.8313 119.402 90.8969 119.323 90.8994C113.239 91.0776 106.986 91.0406 100.938 91.0044C94.8927 90.9691 88.6422 90.9321 82.5642 91.1104C82.5625 91.1104 82.5608 91.1104 82.5591 91.1104Z" fill="#D6B164"/>
<path d="M112.628 89.6162C112.54 89.6162 112.454 89.6162 112.373 89.6145C112.294 89.6137 112.231 89.5481 112.232 89.4691C112.233 89.3909 112.297 89.3287 112.376 89.3287C112.376 89.3287 112.377 89.3287 112.378 89.3287C113.035 89.338 113.992 89.3044 115.006 89.2682C116.737 89.2052 118.7 89.1354 119.907 89.2548C119.985 89.2632 120.044 89.3329 120.035 89.4119C120.028 89.4901 119.958 89.549 119.879 89.5397C118.69 89.422 116.738 89.4918 115.017 89.554C114.123 89.586 113.273 89.6162 112.628 89.6162Z" fill="#D6B164"/>
<path d="M211.092 76.9672C225.786 76.9677 240.072 77.008 250.516 77.0376C255.872 77.0524 260.138 77.0647 262.554 77.0652C262.24 65.1929 262.913 39.2986 262.992 36.3703H210.836C210.915 39.1404 211.555 62.4447 211.092 76.9672ZM262.782 77.5859C260.411 77.5859 256.044 77.5737 250.515 77.5584C240.016 77.5288 225.637 77.488 210.863 77.488C210.803 77.488 210.746 77.4594 210.704 77.4084C210.662 77.3574 210.64 77.2886 210.643 77.2177C211.15 61.8836 210.395 36.3749 210.387 36.1188C210.385 36.0484 210.407 35.9796 210.449 35.9291C210.49 35.8781 210.548 35.8495 210.607 35.8495H263.219C263.279 35.8495 263.336 35.8781 263.378 35.9286C263.419 35.9791 263.442 36.0479 263.439 36.1183C263.432 36.405 262.653 64.9435 263.002 77.3171C263.004 77.3875 262.982 77.4559 262.94 77.5069C262.899 77.5574 262.841 77.5859 262.782 77.5859Z" fill="#D6B164"/>
<path d="M242.097 77.3789C242.056 77.3789 242.023 77.3401 242.023 77.2922C242.023 61.1324 242.107 48.0559 242.286 36.1398C242.287 36.0918 242.315 36.052 242.361 36.0546C242.402 36.0556 242.434 36.0954 242.433 36.1428C242.254 48.0579 242.17 61.1334 242.17 77.2922C242.17 77.3401 242.138 77.3789 242.097 77.3789Z" fill="#D6B164"/>
<path d="M221.584 35.6252C221.686 37.5981 221.704 39.5781 221.737 41.6873C222.669 41.6873 230.663 41.8301 230.663 41.8301C230.663 41.8301 230.512 37.7771 230.515 35.6966L221.584 35.6252Z" fill="#D6B164"/>
<path d="M221.952 41.4278C223.355 41.4405 229.187 41.5431 230.431 41.565C230.399 40.6601 230.3 37.7416 230.293 35.9548L221.816 35.887C221.893 37.4916 221.917 39.0953 221.942 40.7882L221.952 41.4278ZM230.661 42.0898C230.66 42.0898 230.659 42.0898 230.658 42.0898C230.578 42.0883 222.655 41.9475 221.735 41.9475C221.615 41.9475 221.517 41.8338 221.515 41.692L221.501 40.7973C221.474 39.0126 221.449 37.3269 221.362 35.6406C221.358 35.5687 221.38 35.4983 221.422 35.4458C221.464 35.3932 221.521 35.3575 221.583 35.3641L230.515 35.4356C230.636 35.4366 230.734 35.5534 230.734 35.6967C230.731 37.7477 230.88 41.7777 230.882 41.818C230.884 41.8899 230.862 41.9598 230.82 42.0113C230.778 42.0618 230.721 42.0898 230.661 42.0898Z" fill="#D6B164"/>
<path d="M219.207 47.9082H214.068C214.027 47.9082 213.994 47.8693 213.994 47.8213C213.994 47.7732 214.027 47.7344 214.068 47.7344H219.207C219.248 47.7344 219.281 47.7732 219.281 47.8213C219.281 47.8693 219.248 47.9082 219.207 47.9082Z" fill="#D6B164"/>
<path d="M219.207 51.9043H214.068C214.027 51.9043 213.994 51.8654 213.994 51.8174C213.994 51.7693 214.027 51.73 214.068 51.73H219.207C219.248 51.73 219.281 51.7693 219.281 51.8174C219.281 51.8654 219.248 51.9043 219.207 51.9043Z" fill="#D6B164"/>
<path d="M221.763 49.9082H214.093C214.052 49.9082 214.02 49.8693 214.02 49.8213C214.02 49.7732 214.052 49.7344 214.093 49.7344H221.763C221.803 49.7344 221.836 49.7732 221.836 49.8213C221.836 49.8693 221.803 49.9082 221.763 49.9082Z" fill="#D6B164"/>
<path d="M334.411 110.363C334.387 110.363 334.364 110.363 334.342 110.364C333.615 110.388 332.462 110.731 331.869 111.245C331.217 111.807 330.802 112.605 330.729 113.433C330.629 114.594 330.964 115.502 331.73 116.134C332.837 117.046 334.673 117.206 335.519 116.967C337.499 116.406 338.027 115.134 338.165 114.427C338.38 113.332 338.188 112.427 337.599 111.737C336.701 110.684 335.113 110.363 334.411 110.363ZM334.63 118.334C333.471 118.334 332.012 118.009 330.921 117.11C330.16 116.483 329.292 115.316 329.466 113.322C329.566 112.168 330.139 111.061 331.038 110.286C331.993 109.462 333.512 109.124 334.299 109.097C335.355 109.06 337.373 109.517 338.566 110.915C339.406 111.899 339.698 113.198 339.411 114.669C339.255 115.469 338.596 117.412 335.866 118.185C335.537 118.279 335.108 118.334 334.63 118.334Z" fill="#D6B164"/>
<path d="M336.948 91.5484H351.923V64.3548H336.948V91.5484ZM352.557 92.8164H336.315C335.964 92.8164 335.68 92.5324 335.68 92.1824V63.7207C335.68 63.3721 335.964 63.0879 336.315 63.0879H352.557C352.907 63.0879 353.192 63.3721 353.192 63.7207V92.1824C353.192 92.5324 352.907 92.8164 352.557 92.8164Z" fill="#D6B164"/>
<path d="M320.316 112.445L371.629 116.63C371.647 108.702 368.819 92.3767 367.481 85.9381C367.301 85.0744 366.379 84.768 365.643 84.768C365.641 84.768 365.64 84.768 365.638 84.768C359.177 84.7804 337.145 84.8102 324.962 84.6761C324.347 84.6662 323.985 84.7158 323.743 84.9926C323.412 85.3673 323.287 86.1726 323.202 86.7037C321.9 94.9728 320.962 103.442 320.414 111.873L320.399 111.872C320.388 112.008 320.361 112.19 320.316 112.445ZM372.255 117.951C372.238 117.951 372.22 117.95 372.203 117.949L319.516 113.652C319.337 113.638 319.174 113.548 319.065 113.406C318.955 113.264 318.912 113.082 318.944 112.906C318.944 112.906 319.119 111.948 319.149 111.767C319.7 103.305 320.641 94.8066 321.948 86.5064C322.089 85.6118 322.259 84.758 322.788 84.1562C323.461 83.3918 324.406 83.4042 324.975 83.408C337.15 83.5432 359.176 83.5134 365.636 83.501C365.638 83.501 365.641 83.501 365.642 83.501C366.856 83.501 368.388 84.0718 368.724 85.6812C370.11 92.351 373.085 109.583 372.889 117.333C372.885 117.507 372.808 117.672 372.679 117.789C372.562 117.893 372.41 117.951 372.255 117.951Z" fill="#D6B164"/>
<path d="M277.148 104.686L288.676 137.205L378.203 136.89L384.959 113.987C374.883 114.625 364.733 114.126 354.77 112.5C352.028 112.053 348.864 111.459 346.019 110.059C343.057 108.603 340.854 106.428 339.765 103.903C337.557 103.959 327.192 104.105 277.148 104.686ZM288.229 138.475C287.96 138.475 287.721 138.304 287.631 138.053L275.656 104.274C275.587 104.08 275.616 103.867 275.734 103.699C275.851 103.532 276.042 103.431 276.246 103.429C297.887 103.178 338.969 102.692 340.131 102.638C340.418 102.61 340.684 102.773 340.788 103.045C341.693 105.443 343.749 107.53 346.578 108.922C349.268 110.245 352.322 110.817 354.975 111.249C365.142 112.909 375.507 113.383 385.78 112.662C385.984 112.643 386.189 112.735 386.319 112.897C386.45 113.059 386.492 113.274 386.434 113.474L379.287 137.701C379.208 137.97 378.962 138.154 378.68 138.156L288.231 138.475C288.23 138.475 288.23 138.475 288.229 138.475Z" fill="#D6B164"/>
<path d="M336.316 70.3125V62.9889H352.559V70.3125H336.316Z" fill="#D6B164"/>
<path d="M336.948 69.6784H351.923V63.623H336.948V69.6784ZM352.557 70.9453H336.315C335.964 70.9453 335.68 70.6624 335.68 70.3125V62.9889C335.68 62.639 335.964 62.356 336.315 62.356H352.557C352.907 62.356 353.192 62.639 353.192 62.9889V70.3125C353.192 70.6624 352.907 70.9453 352.557 70.9453Z" fill="#D6B164"/>
<path d="M355.287 91.4197C353.78 91.4197 352.759 92.1967 352.559 93.4981C352.375 94.6929 352.999 95.9216 354.043 96.419C354.871 96.8136 355.825 96.7579 356.599 96.2702C357.351 95.7976 357.798 95.007 357.798 94.1559C357.798 92.138 356.501 91.4197 355.287 91.4197ZM355.189 97.9492C354.613 97.9492 354.036 97.8203 353.496 97.5634C351.959 96.8301 351.039 95.0395 351.306 93.3047C351.6 91.3901 353.163 90.1526 355.287 90.1526C357.168 90.1526 359.068 91.3911 359.068 94.1559C359.068 95.4452 358.398 96.6361 357.276 97.3424C356.637 97.7442 355.914 97.9492 355.189 97.9492Z" fill="#D6B164"/>
<path d="M336.623 91.4197C335.117 91.4197 334.097 92.1967 333.895 93.4981C333.711 94.6929 334.336 95.9216 335.38 96.419C336.205 96.8136 337.162 96.7579 337.936 96.2702C338.686 95.7976 339.135 95.007 339.135 94.1559C339.135 92.138 337.838 91.4197 336.623 91.4197ZM336.524 97.9492C335.949 97.9492 335.373 97.8203 334.832 97.5634C333.296 96.8301 332.374 95.0395 332.642 93.3047C332.937 91.3901 334.499 90.1526 336.623 90.1526C338.505 90.1526 340.404 91.3911 340.404 94.1559C340.404 95.4452 339.734 96.6361 338.612 97.3424C337.973 97.7442 337.25 97.9492 336.524 97.9492Z" fill="#D6B164"/>
<path d="M373.953 117.58C357.492 117.58 348.57 115.202 343.876 113.062C338.753 110.727 337.513 108.251 337.266 107.602C334.41 107.623 293.214 107.926 280.401 108.312C280.283 108.305 280.187 108.224 280.184 108.107C280.18 107.99 280.272 107.893 280.389 107.889C293.603 107.492 336.98 107.182 337.416 107.178H337.417C337.514 107.178 337.599 107.244 337.622 107.337C337.652 107.447 341.091 118.487 380.92 117.025C381.056 117.024 381.136 117.112 381.139 117.228C381.143 117.345 381.052 117.442 380.936 117.447C378.469 117.538 376.143 117.58 373.953 117.58Z" fill="#D6B164"/>
<path d="M374.125 120.336C374.009 120.336 373.915 120.244 373.912 120.128C373.911 120.012 374.004 119.915 374.121 119.914C376.087 119.886 378.097 119.88 380.096 119.897C380.213 119.898 380.306 119.993 380.306 120.109C380.305 120.225 380.211 120.319 380.094 120.319H380.092C378.097 120.303 376.089 120.309 374.127 120.336C374.126 120.336 374.125 120.336 374.125 120.336Z" fill="#D6B164"/>
<path d="M419.261 16.1264C413.965 16.1264 409.402 17.2457 405.699 19.4565C400.392 22.6222 396.574 28.881 395.485 36.1987C394.606 42.1021 395.299 48.5822 397.663 56.5913C400.409 65.8901 413.694 84.0211 418.283 90.1095C427.995 80.4602 443.413 58.518 441.75 35.1471C441.342 29.4273 438.336 16.1264 419.261 16.1264ZM418.221 91.624C418.207 91.624 418.192 91.624 418.178 91.6228C418.022 91.6095 417.877 91.5285 417.777 91.3968C412.318 84.1867 399.375 66.4618 396.57 56.9647C394.148 48.7659 393.444 42.1045 394.352 36.0029C395.496 28.3141 399.531 21.7253 405.143 18.3758C409.018 16.0635 413.768 14.8911 419.261 14.8911C439.295 14.8911 442.462 28.991 442.893 35.0528C443.684 46.1695 440.842 57.8955 434.443 69.903C428.121 81.768 420.723 89.406 418.607 91.4645C418.5 91.5672 418.363 91.624 418.221 91.624Z" fill="#D6B164"/>
<path d="M102.573 -22.9324C95.5168 -22.9324 88.3225 -20.0522 83.4555 -15.0117C77.6678 -9.01818 75.2622 -0.178505 77.177 8.05724C79.2856 17.1267 88.9313 24.1226 96.6189 24.9664C109.552 26.3862 119.46 20.6584 122.231 17.6613C128.166 11.2438 130.566 2.52906 128.499 -5.0824C126.258 -13.3302 118.712 -19.7532 108.316 -22.2621C106.447 -22.7139 104.515 -22.9324 102.573 -22.9324ZM100.554 26.4492C99.2208 26.4492 97.8602 26.3784 96.4797 26.2272C88.361 25.3348 78.171 17.9366 75.9407 8.34376C73.9303 -0.305069 76.4588 -9.59171 82.541 -15.8905C89.0506 -22.6318 99.5277 -25.6856 108.614 -23.4942C119.468 -20.8748 127.36 -14.1159 129.724 -5.41396C131.904 2.61493 129.391 11.7857 123.164 18.5212C119.875 22.079 111.057 26.4492 100.554 26.4492Z" fill="#D6B164"/>
<path d="M102.598 25.7812L102.174 25.7726L103.208 -23.5296L103.631 -23.5208L102.598 25.7812Z" fill="#D6B164"/>
<path d="M127.988 9.70508L76.7793 8.8021L76.7868 8.37996L127.995 9.28195L127.988 9.70508Z" fill="#D6B164"/>
<path d="M103.059 -23.3744C96.1982 -20.4109 90.8019 -14.5056 88.6125 -7.56071C86.5959 -1.15909 87.1911 6.13248 90.2912 12.9708C93.1416 19.2595 97.4469 23.379 103.087 25.2171C112.62 20.3477 117.459 14.946 117.459 -0.91427C117.459 -11.0598 112.747 -18.4071 103.059 -23.3744ZM103.104 25.6562C103.083 25.6562 103.061 25.6524 103.04 25.6451C97.2407 23.7838 92.821 19.5784 89.9048 13.1444C86.7637 6.21053 86.161 -1.18763 88.2087 -7.68716C90.444 -14.7799 95.9683 -20.803 102.984 -23.801C103.042 -23.8247 103.107 -23.8232 103.164 -23.7947C113.067 -18.7493 117.882 -11.2658 117.882 -0.91427C117.882 15.2083 112.938 20.6753 103.2 25.6324C103.17 25.6474 103.138 25.6562 103.104 25.6562Z" fill="#D6B164"/>
<path d="M-22.2684 72.9921C-7.20373 72.993 7.42525 73.0333 18.1374 73.0635C23.543 73.0791 27.7901 73.0901 30.309 73.0919C30.1732 67.9583 30.1521 61.3581 30.1329 54.9686C30.1044 45.578 30.0769 36.7087 29.6715 35.0424C29.2715 33.3944 28.0689 32.2603 26.7352 32.2603C26.7141 32.2603 26.693 32.2603 26.6719 32.2612C26.3637 32.253 -1.91556 31.4688 -17.9388 31.8984C-20.8118 31.9754 -22.2684 33.8304 -22.2684 37.4113V72.9921ZM30.7741 73.9961C28.3322 73.9961 23.8907 73.9833 18.1347 73.9677C7.31702 73.9375 -7.49912 73.8962 -22.7207 73.8962C-22.9711 73.8962 -23.1738 73.6938 -23.1738 73.4437V37.4113C-23.1738 32.2227 -20.3403 31.0584 -17.9627 30.9943C-1.91462 30.5647 26.3884 31.3488 26.6728 31.3571C28.4395 31.3149 30.0429 32.7366 30.552 34.8289C30.9813 36.5988 31.008 45.1099 31.0382 54.9649C31.0584 61.5441 31.0795 68.3467 31.2272 73.5307C31.23 73.6535 31.1841 73.7717 31.0987 73.8596C31.0134 73.9466 30.897 73.9961 30.7741 73.9961Z" fill="#D6B164"/>
<path d="M-23.8379 31.5605L-30.7102 44.8645L-2.88416 44.8159C-0.701004 39.5485 1.4455 35.0159 3.50482 31.3232L-23.8379 31.5605ZM-31.4542 45.7695C-31.612 45.7695 -31.7578 45.688 -31.8404 45.5533C-31.922 45.4187 -31.9284 45.251 -31.856 45.1109L-24.5167 30.9037C-24.4405 30.7544 -24.2864 30.66 -24.1186 30.6591L4.27901 30.4117C4.44229 30.4081 4.59088 30.496 4.67343 30.6353C4.75507 30.7745 4.75693 30.9476 4.67621 31.0878C2.48296 34.9289 0.182381 39.7574 -2.16314 45.4388C-2.23285 45.6083 -2.39708 45.7192 -2.58053 45.7192L-31.4533 45.7695C-31.4533 45.7695 -31.4533 45.7695 -31.4542 45.7695Z" fill="#D6B164"/>
<path d="M10.5902 44.8159L38.4163 44.8645L31.544 31.5605L4.20127 31.3232C6.26151 35.0177 8.40889 39.5513 10.5902 44.8159ZM39.1602 45.7695H39.1594L10.2866 45.7192C10.104 45.7192 9.93895 45.6083 9.86923 45.4388C7.52555 39.7602 5.22497 34.9316 3.02989 31.0878C2.95008 30.9476 2.95098 30.7745 3.03262 30.6353C3.11517 30.496 3.26839 30.4099 3.42708 30.4117L31.8256 30.6591C31.9934 30.66 32.1466 30.7544 32.2237 30.9037L39.563 45.1109C39.6354 45.251 39.629 45.4187 39.5464 45.5533C39.4648 45.688 39.318 45.7695 39.1602 45.7695Z" fill="#D6B164"/>
<path d="M3.42494 73.627C3.34138 73.627 3.27344 73.5592 3.27344 73.4767C3.27344 56.9931 3.35975 43.6552 3.54524 31.5C3.54616 31.4176 3.61408 31.3516 3.6958 31.3516C3.69672 31.3516 3.69766 31.3516 3.69858 31.3516C3.78215 31.3534 3.84827 31.4221 3.84735 31.5055C3.66186 43.658 3.57555 56.9949 3.57555 73.4767C3.57555 73.5592 3.5085 73.627 3.42494 73.627Z" fill="#D6B164"/>
<path d="M28.1778 51.459C28.0998 51.459 28.0337 51.3985 28.0282 51.3188C27.9896 50.7729 27.918 48.9462 27.918 47.3999C27.918 47.3166 27.986 47.2488 28.0695 47.2488C28.1531 47.2488 28.2201 47.3166 28.2201 47.3999C28.2201 48.9389 28.2908 50.7554 28.3293 51.2978C28.3349 51.3811 28.2724 51.4526 28.1889 51.459C28.1852 51.459 28.1815 51.459 28.1778 51.459Z" fill="#D6B164"/>
<path d="M-1.65052 8.82783L-1.57532 17L-7.60742 16.9368L3.91286 25.2363L14.7241 16.8736L8.98915 16.9368L8.90476 8.82783H-1.65052Z" fill="#D6B164"/>
<path d="M-6.184 17.4055L3.90439 24.6736L13.3828 17.3414L8.99537 17.3899C8.86879 17.3863 8.76055 17.345 8.67432 17.2608C8.58809 17.1774 8.53946 17.0629 8.53762 16.9429L8.45785 9.28095H-1.1921L-1.12057 16.9979C-1.11965 17.1188 -1.16824 17.236 -1.25355 17.3212C-1.33978 17.4073 -1.44527 17.4504 -1.57828 17.4541L-6.184 17.4055ZM3.91447 25.6895C3.82182 25.6895 3.72825 25.6611 3.64936 25.6043L-7.87092 17.3047C-8.03053 17.1893 -8.09747 16.9841 -8.03602 16.7973C-7.97456 16.6104 -7.80029 16.4876 -7.60124 16.4858L-2.03052 16.5444L-2.10205 8.83298C-2.10296 8.71298 -2.05621 8.59664 -1.9709 8.51053C-1.88559 8.42534 -1.76999 8.37679 -1.64891 8.37679H8.90638C9.15405 8.37679 9.35587 8.5765 9.35862 8.82384L9.43843 16.4812L14.7202 16.4226C14.7221 16.4226 14.7238 16.4226 14.7257 16.4226C14.9183 16.4226 15.0899 16.5444 15.1532 16.7267C15.2174 16.9099 15.1568 17.1133 15.0027 17.2324L4.19149 25.5951C4.10985 25.6583 4.01262 25.6895 3.91447 25.6895Z" fill="#D6B164"/>
<path d="M417.311 98.8858C404.251 79.2952 379.551 48.193 358.539 50.376C334.5 52.8734 295.555 72.8542 260.445 91.5766C234.208 105.567 203.274 94.8808 184.424 71.8854C165.565 48.8786 140.871 29.8031 111.791 35.45C55.7765 46.3271 49.7539 84.893 40.8915 102.618V102.618C22.9126 156.554 5.23243 214.604 24.723 268.013C33.896 293.149 49.4412 315.522 74.4747 324.644C83.3167 327.866 91.7415 330.823 99.676 333.535C145.687 349.261 197.525 349.834 244.04 335.667L263.385 329.775" stroke="#D6B164" stroke-width="0.932886" stroke-linecap="round" stroke-dasharray="1.87 9.33"/>
<path d="M264.192 324.484C263.499 324.508 262.299 324.841 261.599 325.492C260.898 326.143 260.451 327.072 260.374 328.037C260.054 331.989 264.036 332.553 265.432 332.126C267.622 331.457 268.115 329.814 268.231 329.177C268.915 325.408 265.439 324.44 264.192 324.484Z" fill="#D6B164"/>
<path d="M264.269 325.099C264.247 325.099 264.227 325.1 264.207 325.1C263.549 325.124 262.506 325.459 261.97 325.959C261.382 326.506 261.006 327.283 260.941 328.09C260.849 329.221 261.154 330.106 261.844 330.72C262.845 331.611 264.507 331.765 265.271 331.532C267.06 330.986 267.538 329.748 267.664 329.058C267.857 327.992 267.685 327.11 267.152 326.438C266.34 325.412 264.905 325.099 264.269 325.099ZM264.468 332.865C263.419 332.865 262.099 332.549 261.113 331.671C260.427 331.061 259.64 329.924 259.798 327.983C259.889 326.859 260.407 325.781 261.22 325.024C262.083 324.222 263.455 323.893 264.169 323.867C265.125 323.836 266.947 324.275 268.025 325.637C268.786 326.597 269.049 327.861 268.789 329.295C268.648 330.073 268.052 331.966 265.584 332.72C265.287 332.811 264.9 332.865 264.468 332.865Z" fill="#D6B164"/>
<path fill-rule="evenodd" clip-rule="evenodd" d="M97.4627 181.607C98.6922 180.927 100.242 181.371 100.923 182.598C101.603 183.825 101.159 185.372 99.93 186.053C98.7004 186.732 97.151 186.288 96.4695 185.061C95.7884 183.834 96.2335 182.287 97.4627 181.607Z" fill="#D6B164"/>
<path fill-rule="evenodd" clip-rule="evenodd" d="M89.0609 176.061C90.3419 175.353 91.956 175.815 92.6659 177.094C93.3758 178.373 92.9126 179.985 91.6311 180.693C90.3505 181.402 88.7356 180.94 88.0261 179.66C87.3162 178.381 87.7795 176.77 89.0609 176.061Z" fill="#D6B164"/>
<path fill-rule="evenodd" clip-rule="evenodd" d="M124.811 174.945C125.478 176.18 125.016 177.722 123.779 178.388C122.543 179.054 120.998 178.593 120.331 177.358C119.664 176.123 120.125 174.582 121.362 173.916C122.599 173.249 124.144 173.71 124.811 174.945Z" fill="#D6B164"/>
<path fill-rule="evenodd" clip-rule="evenodd" d="M130.457 166.618C131.152 167.905 130.671 169.512 129.382 170.205C128.095 170.9 126.484 170.419 125.789 169.132C125.094 167.846 125.575 166.24 126.863 165.545C128.152 164.851 129.763 165.331 130.457 166.618Z" fill="#D6B164"/>
<path fill-rule="evenodd" clip-rule="evenodd" d="M132.024 201.595C130.78 202.247 129.241 201.769 128.587 200.527C127.934 199.285 128.412 197.748 129.657 197.095C130.901 196.443 132.44 196.922 133.094 198.164C133.747 199.406 133.269 200.943 132.024 201.595Z" fill="#D6B164"/>
<path fill-rule="evenodd" clip-rule="evenodd" d="M140.3 207.327C139.004 208.007 137.4 207.508 136.719 206.214C136.037 204.919 136.537 203.318 137.834 202.639C139.131 201.959 140.734 202.457 141.415 203.752C142.096 205.046 141.597 206.647 140.3 207.327Z" fill="#D6B164"/>
<path fill-rule="evenodd" clip-rule="evenodd" d="M98.2049 216.451C97.5387 215.149 98.0558 213.554 99.3599 212.889C100.664 212.223 102.262 212.739 102.928 214.041C103.595 215.343 103.078 216.939 101.774 217.604C100.47 218.269 98.8716 217.753 98.2049 216.451Z" fill="#D6B164"/>
<path fill-rule="evenodd" clip-rule="evenodd" d="M97.6781 166.988C100.432 163.634 105.39 163.143 108.749 165.891C112.107 168.64 112.599 173.59 109.846 176.943C107.093 180.297 102.136 180.788 98.7763 178.039C95.4167 175.29 94.9255 170.342 97.6781 166.988Z" fill="#D6B164"/>
<path fill-rule="evenodd" clip-rule="evenodd" d="M113.634 163.634C115.355 161.538 118.454 161.231 120.554 162.949C122.655 164.668 122.962 167.762 121.241 169.859C119.519 171.956 116.419 172.262 114.32 170.544C112.22 168.825 111.912 165.732 113.634 163.634Z" fill="#D6B164"/>
<path fill-rule="evenodd" clip-rule="evenodd" d="M127.451 179.323C126.733 183.599 129.623 187.65 133.907 188.367C138.191 189.085 142.248 186.198 142.966 181.922C143.684 177.645 140.794 173.595 136.51 172.878C132.227 172.16 128.169 175.046 127.451 179.323Z" fill="#D6B164"/>
<path fill-rule="evenodd" clip-rule="evenodd" d="M135.42 193.523C134.97 196.197 136.778 198.729 139.457 199.178C142.134 199.627 144.671 197.822 145.12 195.148C145.57 192.474 143.762 189.942 141.084 189.493C138.405 189.045 135.868 190.85 135.42 193.523Z" fill="#D6B164"/>
<path fill-rule="evenodd" clip-rule="evenodd" d="M130.925 216.927C128.056 220.182 123.084 220.499 119.824 217.634C116.563 214.77 116.245 209.806 119.114 206.551C121.983 203.296 126.955 202.979 130.216 205.843C133.478 208.709 133.794 213.672 130.925 216.927Z" fill="#D6B164"/>
<path fill-rule="evenodd" clip-rule="evenodd" d="M114.877 219.815C113.083 221.849 109.975 222.048 107.936 220.257C105.898 218.465 105.7 215.363 107.492 213.328C109.288 211.292 112.396 211.094 114.434 212.885C116.473 214.676 116.672 217.779 114.877 219.815Z" fill="#D6B164"/>
<path fill-rule="evenodd" clip-rule="evenodd" d="M100.932 207.386C103.565 203.938 102.9 199.008 99.4463 196.379C95.992 193.75 91.0557 194.414 88.4217 197.862C85.788 201.31 86.453 206.239 89.9065 208.868C93.3604 211.497 98.2979 210.834 100.932 207.386Z" fill="#D6B164"/>
<path fill-rule="evenodd" clip-rule="evenodd" d="M93.2935 192.044C94.9402 189.888 94.5239 186.807 92.3654 185.162C90.2052 183.518 87.1186 183.934 85.472 186.09C83.8253 188.245 84.2416 191.326 86.4009 192.971C88.5606 194.615 91.6464 194.2 93.2935 192.044Z" fill="#D6B164"/>
<path fill-rule="evenodd" clip-rule="evenodd" d="M67.985 221.56C68.9066 221.239 69.915 221.724 70.2362 222.645C70.5582 223.566 70.0714 224.571 69.1499 224.893C68.2275 225.214 67.2195 224.728 66.8975 223.808C66.5768 222.887 67.0635 221.881 67.985 221.56Z" fill="#111111"/>
<path fill-rule="evenodd" clip-rule="evenodd" d="M62.884 216.778C63.8446 216.443 64.895 216.95 65.2302 217.908C65.565 218.867 65.0577 219.916 64.0978 220.251C63.1372 220.585 62.0864 220.079 61.7516 219.12C61.4168 218.161 61.9237 217.112 62.884 216.778Z" fill="#111111"/>
<path fill-rule="evenodd" clip-rule="evenodd" d="M92.3365 215.178C92.6606 216.141 92.1418 217.183 91.1774 217.507C90.2134 217.831 89.1688 217.312 88.8447 216.35C88.5203 215.388 89.0391 214.345 90.0026 214.021C90.967 213.698 92.0121 214.215 92.3365 215.178Z" fill="#111111"/>
<path fill-rule="evenodd" clip-rule="evenodd" d="M89.2854 239.304C88.3573 239.605 87.3604 239.097 87.0594 238.169C86.758 237.242 87.2673 236.247 88.1959 235.947C89.1248 235.646 90.1217 236.155 90.4227 237.081C90.7233 238.009 90.2144 239.004 89.2854 239.304Z" fill="#111111"/>
<path fill-rule="evenodd" clip-rule="evenodd" d="M94.2756 244.199C93.3076 244.512 92.2683 243.982 91.9553 243.016C91.642 242.051 92.1723 241.013 93.14 240.7C94.1072 240.387 95.1465 240.918 95.4599 241.883C95.7732 242.848 95.2429 243.886 94.2756 244.199Z" fill="#111111"/>
<path fill-rule="evenodd" clip-rule="evenodd" d="M69.8521 211.58C72.1324 209.608 75.5834 209.854 77.5587 212.13C79.5344 214.407 79.2873 217.852 77.0069 219.824C74.727 221.797 71.2759 221.55 69.3007 219.274C67.3254 216.998 67.5725 213.552 69.8521 211.58Z" fill="#111111"/>
<path fill-rule="evenodd" clip-rule="evenodd" d="M81.1672 211.157C82.5927 209.924 84.7504 210.078 85.9853 211.501C87.2202 212.925 87.0658 215.078 85.6402 216.312C84.2151 217.545 82.057 217.391 80.8225 215.968C79.5872 214.544 79.7416 212.39 81.1672 211.157Z" fill="#111111"/>
<path fill-rule="evenodd" clip-rule="evenodd" d="M88.7822 223.521C87.7866 226.363 89.2875 229.475 92.1353 230.47C94.9826 231.465 98.0997 229.965 99.0962 227.123C100.092 224.28 98.5905 221.168 95.7436 220.173C92.8958 219.179 89.7787 220.678 88.7822 223.521Z" fill="#111111"/>
<path fill-rule="evenodd" clip-rule="evenodd" d="M92.5576 234.177C91.935 235.956 92.8734 237.9 94.6539 238.522C96.4336 239.145 98.3825 238.207 99.0055 236.43C99.6281 234.653 98.6901 232.707 96.9092 232.085C95.1291 231.463 93.1806 232.4 92.5576 234.177Z" fill="#111111"/>
<path fill-rule="evenodd" clip-rule="evenodd" d="M86.7233 249.668C84.3754 251.559 80.9355 251.191 79.0409 248.848C77.1472 246.503 77.5149 243.069 79.8628 241.178C82.2107 239.287 85.651 239.654 87.5452 241.998C89.4393 244.343 89.0716 247.777 86.7233 249.668Z" fill="#111111"/>
<path fill-rule="evenodd" clip-rule="evenodd" d="M75.3984 249.758C73.9305 250.94 71.7794 250.71 70.5952 249.245C69.4109 247.78 69.6407 245.633 71.109 244.45C72.5766 243.267 74.7277 243.496 75.9119 244.963C77.0962 246.428 76.8664 248.576 75.3984 249.758Z" fill="#111111"/>
<path fill-rule="evenodd" clip-rule="evenodd" d="M67.3178 239.612C69.5274 237.561 69.6534 234.109 67.5991 231.904C65.5448 229.698 62.0872 229.573 59.8776 231.624C57.6685 233.675 57.5425 237.126 59.5968 239.332C61.6511 241.538 65.1083 241.664 67.3178 239.612Z" fill="#111111"/>
<path fill-rule="evenodd" clip-rule="evenodd" d="M63.8971 228.214C65.2786 226.932 65.3572 224.774 64.0733 223.394C62.789 222.016 60.6272 221.938 59.2462 223.219C57.8647 224.502 57.786 226.66 59.0699 228.039C60.3546 229.418 62.516 229.497 63.8971 228.214Z" fill="#111111"/>
<path fill-rule="evenodd" clip-rule="evenodd" d="M69.3439 240.573C69.054 239.643 69.5741 238.652 70.5059 238.363C71.4374 238.073 72.4289 238.592 72.7196 239.523C73.0095 240.453 72.4903 241.443 71.5576 241.732C70.6258 242.022 69.6351 241.503 69.3439 240.573Z" fill="#111111"/>
<path fill-rule="evenodd" clip-rule="evenodd" d="M64.3848 245.499C64.0818 244.53 64.6241 243.498 65.5946 243.196C66.566 242.893 67.5991 243.435 67.9018 244.405C68.204 245.374 67.6617 246.406 66.6907 246.707C65.7202 247.009 64.6871 246.468 64.3848 245.499Z" fill="#111111"/>
<path fill-rule="evenodd" clip-rule="evenodd" d="M105.091 218.868L102.947 220.284L100.871 219.447L101.927 221.419L100.746 223.699L102.89 222.283L104.966 223.12L103.911 221.147L105.091 218.868Z" fill="#D6B164"/>
<path fill-rule="evenodd" clip-rule="evenodd" d="M89.4482 219.965L88.9553 220.291L88.478 220.099L88.7206 220.553L88.4492 221.076L88.9421 220.75L89.4193 220.943L89.1768 220.49L89.4482 219.965Z" fill="#D6B164"/>
<path fill-rule="evenodd" clip-rule="evenodd" d="M94.5312 216.988L94.9064 217.236L95.2699 217.089L95.0848 217.434L95.2914 217.832L94.9171 217.584L94.5535 217.73L94.7382 217.387L94.5312 216.988Z" fill="#D6B164"/>
<path fill-rule="evenodd" clip-rule="evenodd" d="M88.2458 218.849L87.1048 219.603L85.9983 219.157L86.5604 220.208L85.9316 221.422L87.0735 220.668L88.1795 221.113L87.6174 220.063L88.2458 218.849Z" fill="#D6B164"/>
<path fill-rule="evenodd" clip-rule="evenodd" d="M95.4414 216.139L96.3082 216.712L97.149 216.373L96.722 217.172L97.2001 218.094L96.3325 217.521L95.4916 217.86L95.9186 217.061L95.4414 216.139Z" fill="#D6B164"/>
<path fill-rule="evenodd" clip-rule="evenodd" d="M96.7917 210.893L95.3101 211.871L93.8755 211.293L94.6048 212.655L93.7891 214.23L95.2702 213.252L96.7052 213.83L95.976 212.468L96.7917 210.893Z" fill="#111111"/>
<path fill-rule="evenodd" clip-rule="evenodd" d="M105.608 208.284L104.126 209.262L102.691 208.684L103.421 210.047L102.605 211.621L104.086 210.643L105.521 211.221L104.792 209.858L105.608 208.284Z" fill="#111111"/>
<path fill-rule="evenodd" clip-rule="evenodd" d="M91.0743 210.353L89.9325 211.107L88.8265 210.662L89.3885 211.712L88.7598 212.926L89.9012 212.172L91.0072 212.617L90.4455 211.567L91.0743 210.353Z" fill="#111111"/>
<path fill-rule="evenodd" clip-rule="evenodd" d="M88.1495 210.159L87.6895 210.462L87.2436 210.283L87.4696 210.706L87.2168 211.195L87.6767 210.892L88.1223 211.072L87.8958 210.648L88.1495 210.159Z" fill="#111111"/>
<path fill-rule="evenodd" clip-rule="evenodd" d="M86.7325 207.195L85.5911 207.949L84.4851 207.503L85.0472 208.554L84.418 209.768L85.5598 209.014L86.6662 209.459L86.1042 208.409L86.7325 207.195Z" fill="#111111"/>
<path fill-rule="evenodd" clip-rule="evenodd" d="M107.442 210.576L106.84 210.974L106.255 210.739L106.552 211.293L106.221 211.934L106.823 211.536L107.407 211.77L107.109 211.216L107.442 210.576Z" fill="#111111"/>
<path fill-rule="evenodd" clip-rule="evenodd" d="M103.767 224.347L102.626 225.102L101.52 224.656L102.082 225.706L101.453 226.92L102.595 226.167L103.701 226.613L103.139 225.561L103.767 224.347Z" fill="#D6B164"/>
<path d="M226.076 190.398H232.56C233.86 190.398 235.051 190.614 236.135 191.045C237.22 191.475 238.155 192.075 238.938 192.84C239.722 193.606 240.328 194.506 240.755 195.54C241.182 196.574 241.397 197.694 241.397 198.899V198.948C241.397 200.154 241.182 201.277 240.755 202.32C240.328 203.364 239.722 204.266 238.938 205.032C238.155 205.798 237.22 206.401 236.135 206.839C235.051 207.28 233.86 207.5 232.56 207.5H226.076V190.398ZM232.56 204.103C233.305 204.103 233.986 203.982 234.603 203.737C235.22 203.494 235.747 203.143 236.183 202.687C236.619 202.23 236.959 201.693 237.204 201.075C237.449 200.455 237.572 199.762 237.572 198.997V198.948C237.572 198.2 237.449 197.506 237.204 196.872C236.959 196.237 236.619 195.691 236.183 195.234C235.747 194.777 235.22 194.425 234.603 194.172C233.986 193.919 233.305 193.794 232.56 193.794H229.734V204.103H232.56ZM217.052 190.398H220.71V207.5H217.052V190.398ZM199.81 190.398H206.603C207.601 190.398 208.492 190.541 209.276 190.826C210.06 191.11 210.724 191.514 211.271 192.035C211.817 192.556 212.237 193.178 212.53 193.902C212.823 194.628 212.968 195.43 212.968 196.311V196.359C212.968 197.351 212.795 198.224 212.446 198.973C212.098 199.721 211.619 200.349 211.01 200.855C210.4 201.359 209.688 201.738 208.872 201.991C208.057 202.244 207.182 202.368 206.247 202.368H203.468V207.5H199.81V190.398ZM206.366 199.022C207.284 199.022 207.997 198.773 208.504 198.277C209.011 197.781 209.264 197.165 209.264 196.433V196.384C209.264 195.536 208.999 194.892 208.468 194.453C207.938 194.014 207.213 193.794 206.295 193.794H203.468V199.022H206.366ZM185.537 190.274H188.911L196.036 207.5H192.212L190.692 203.664H183.66L182.141 207.5H178.412L185.537 190.274ZM189.385 200.342L187.176 194.795L184.967 200.342H189.385ZM161.455 190.398H169.055C171.161 190.398 172.777 190.975 173.901 192.132C174.851 193.109 175.326 194.412 175.326 196.041V196.09C175.326 197.474 174.997 198.602 174.341 199.474C173.683 200.345 172.824 200.985 171.763 201.391L175.825 207.5H171.55L167.987 202.026H167.939H165.112V207.5H161.455V190.398ZM168.817 198.705C169.721 198.705 170.413 198.485 170.896 198.045C171.379 197.604 171.62 197.019 171.62 196.286V196.237C171.62 195.422 171.367 194.812 170.861 194.404C170.354 193.998 169.65 193.794 168.746 193.794H165.112V198.705H168.817Z" fill="#D6B164"/>
<path d="M318.313 194.699C318.319 194.189 318.464 193.731 318.749 193.323C319.038 192.917 319.446 192.597 319.977 192.359C320.503 192.122 321.129 191.999 321.853 191.997C322.704 191.991 323.525 192.134 324.315 192.426C325.103 192.714 325.884 193.173 326.651 193.798L327.743 192.351C327.186 191.901 326.611 191.525 326.018 191.221C325.424 190.92 324.79 190.691 324.117 190.54C323.444 190.387 322.704 190.311 321.9 190.311C321.108 190.316 320.376 190.427 319.716 190.648C319.05 190.873 318.472 191.185 317.986 191.593C317.495 191.999 317.114 192.478 316.845 193.03C316.575 193.588 316.44 194.196 316.438 194.865C316.438 195.548 316.549 196.15 316.771 196.659C316.995 197.172 317.336 197.615 317.795 197.991C318.25 198.367 318.833 198.691 319.534 198.963C320.233 199.236 321.066 199.472 322.019 199.678C322.886 199.86 323.603 200.058 324.169 200.264C324.732 200.473 325.175 200.702 325.49 200.955C325.807 201.208 326.029 201.489 326.156 201.801C326.286 202.118 326.346 202.465 326.343 202.857C326.338 203.421 326.185 203.916 325.878 204.342C325.575 204.769 325.143 205.102 324.589 205.339C324.039 205.575 323.385 205.697 322.637 205.702C321.874 205.702 321.169 205.616 320.519 205.44C319.874 205.268 319.256 205.007 318.675 204.658C318.088 204.31 317.51 203.875 316.937 203.354L315.772 204.73C316.763 205.619 317.815 206.283 318.927 206.725C320.041 207.164 321.256 207.386 322.566 207.386C323.393 207.381 324.154 207.271 324.846 207.054C325.535 206.832 326.137 206.515 326.643 206.102C327.15 205.69 327.543 205.191 327.819 204.615C328.097 204.033 328.239 203.386 328.242 202.667C328.242 201.818 328.052 201.089 327.661 200.485C327.273 199.881 326.679 199.37 325.878 198.959C325.075 198.549 324.061 198.211 322.828 197.947C321.916 197.754 321.169 197.549 320.578 197.335C319.988 197.118 319.528 196.881 319.201 196.623C318.868 196.37 318.638 196.082 318.504 195.766C318.374 195.45 318.31 195.093 318.313 194.699ZM311.356 195.908C311.35 196.647 311.16 197.291 310.785 197.841C310.41 198.391 309.882 198.818 309.202 199.121C308.521 199.426 307.717 199.58 306.795 199.583H302.685V192.28H306.889C307.788 192.28 308.572 192.418 309.241 192.687C309.905 192.959 310.426 193.367 310.793 193.903C311.16 194.442 311.35 195.109 311.356 195.908ZM313.255 195.837C313.252 195.012 313.104 194.272 312.811 193.62C312.519 192.967 312.101 192.414 311.554 191.957C311.003 191.502 310.349 191.154 309.59 190.912C308.825 190.672 307.975 190.55 307.032 190.55H300.808V207.148H302.685V201.291H306.724C307.614 201.291 308.453 201.176 309.237 200.947C310.022 200.715 310.714 200.374 311.316 199.915C311.918 199.456 312.388 198.892 312.732 198.208C313.072 197.528 313.247 196.738 313.255 195.837ZM294.705 198.872C294.701 199.826 294.54 200.715 294.223 201.54C293.907 202.362 293.459 203.086 292.876 203.71C292.295 204.331 291.611 204.817 290.818 205.167C290.026 205.516 289.151 205.694 288.198 205.702C287.243 205.694 286.369 205.516 285.569 205.16C284.772 204.805 284.08 204.314 283.493 203.686C282.909 203.057 282.453 202.33 282.133 201.501C281.808 200.67 281.645 199.781 281.642 198.825C281.645 197.868 281.808 196.979 282.124 196.156C282.442 195.331 282.889 194.608 283.47 193.988C284.054 193.363 284.738 192.877 285.529 192.53C286.321 192.177 287.196 191.999 288.15 191.997C289.104 192.004 289.978 192.181 290.779 192.537C291.574 192.893 292.266 193.383 292.852 194.012C293.439 194.639 293.894 195.368 294.215 196.196C294.54 197.027 294.701 197.916 294.705 198.872ZM296.653 198.825C296.649 197.9 296.518 197.014 296.261 196.17C296.001 195.323 295.623 194.54 295.133 193.826C294.642 193.11 294.052 192.486 293.359 191.951C292.668 191.423 291.887 191.007 291.019 190.714C290.152 190.419 289.211 190.269 288.198 190.265C287.184 190.269 286.24 190.419 285.37 190.719C284.5 191.015 283.716 191.435 283.018 191.967C282.322 192.506 281.725 193.133 281.229 193.853C280.736 194.576 280.355 195.359 280.094 196.212C279.829 197.062 279.698 197.947 279.694 198.872C279.698 199.797 279.829 200.683 280.086 201.527C280.347 202.374 280.723 203.157 281.214 203.872C281.705 204.587 282.294 205.212 282.988 205.745C283.68 206.275 284.46 206.69 285.327 206.982C286.193 207.279 287.136 207.428 288.15 207.434C289.163 207.428 290.105 207.279 290.976 206.978C291.847 206.682 292.63 206.263 293.328 205.729C294.025 205.191 294.622 204.563 295.116 203.845C295.613 203.12 295.992 202.338 296.253 201.485C296.518 200.636 296.649 199.749 296.653 198.825ZM274.326 198.872C274.322 199.826 274.16 200.715 273.844 201.54C273.527 202.362 273.079 203.086 272.497 203.71C271.916 204.331 271.232 204.817 270.439 205.167C269.647 205.516 268.772 205.694 267.819 205.702C266.864 205.694 265.99 205.516 265.189 205.16C264.393 204.805 263.701 204.314 263.115 203.686C262.529 203.057 262.074 202.33 261.754 201.501C261.429 200.67 261.266 199.781 261.263 198.825C261.266 197.868 261.429 196.979 261.745 196.156C262.062 195.331 262.51 194.608 263.091 193.988C263.675 193.363 264.359 192.877 265.15 192.53C265.941 192.177 266.816 191.999 267.772 191.997C268.725 192.004 269.6 192.181 270.4 192.537C271.195 192.893 271.887 193.383 272.473 194.012C273.06 194.639 273.514 195.368 273.836 196.196C274.16 197.027 274.322 197.916 274.326 198.872ZM276.274 198.825C276.27 197.9 276.14 197.014 275.882 196.17C275.62 195.323 275.244 194.54 274.753 193.826C274.263 193.11 273.673 192.486 272.981 191.951C272.289 191.423 271.508 191.007 270.64 190.714C269.774 190.419 268.832 190.269 267.819 190.265C266.804 190.269 265.862 190.419 264.991 190.719C264.121 191.015 263.337 191.435 262.639 191.967C261.943 192.506 261.346 193.133 260.851 193.853C260.355 194.576 259.976 195.359 259.715 196.212C259.449 197.062 259.319 197.947 259.315 198.872C259.319 199.797 259.449 200.683 259.707 201.527C259.969 202.374 260.344 203.157 260.835 203.872C261.326 204.587 261.915 205.212 262.609 205.745C263.301 206.275 264.081 206.69 264.948 206.982C265.814 207.279 266.757 207.428 267.772 207.434C268.785 207.428 269.726 207.279 270.598 206.978C271.468 206.682 272.252 206.263 272.949 205.729C273.646 205.191 274.243 204.563 274.737 203.845C275.234 203.12 275.613 202.338 275.874 201.485C276.14 200.636 276.27 199.749 276.274 198.825ZM246.109 207.148H257.344V205.417H247.985V190.55H246.109V207.148Z" fill="#111111"/>
<path d="M162.231 219.475H162.479C163.272 219.475 164.131 219.327 164.131 218.34C164.131 217.369 163.206 217.229 162.438 217.229H162.231V219.475ZM165.329 222.74H164.387L162.553 220.117H162.231V222.74H161.455V216.538H162.396C162.95 216.538 163.545 216.547 164.04 216.827C164.561 217.131 164.858 217.715 164.858 218.307C164.858 219.195 164.264 219.936 163.363 220.043L165.329 222.74Z" fill="#111111"/>
<path d="M175.765 217.969L174.658 220.478H176.872L175.765 217.969ZM174.336 221.185L173.626 222.74H172.791L175.765 216.275L178.739 222.74H177.904L177.194 221.185H174.336Z" fill="#111111"/>
<path d="M187.521 222.74H186.744V216.538H187.521V222.74Z" fill="#111111"/>
<path d="M198.967 217.714C198.735 217.328 198.438 217.13 197.967 217.13C197.472 217.13 196.927 217.467 196.927 218.011C196.927 218.495 197.405 218.751 197.794 218.899L198.24 219.071C199.123 219.417 199.785 219.902 199.785 220.938C199.785 222.065 198.909 222.871 197.794 222.871C196.786 222.871 196.001 222.131 195.869 221.136L196.654 220.971C196.645 221.654 197.191 222.147 197.86 222.147C198.529 222.147 199.008 221.588 199.008 220.938C199.008 220.272 198.471 219.984 197.935 219.762L197.505 219.581C196.795 219.277 196.15 218.874 196.15 218.011C196.15 217.007 197.042 216.406 197.984 216.406C198.678 216.406 199.248 216.744 199.587 217.344L198.967 217.714Z" fill="#111111"/>
<path d="M208.143 216.538H211.488V217.246H208.919V218.981H211.414V219.689H208.919V222.033H211.488V222.74H208.143V216.538Z" fill="#111111"/>
<path d="M231.531 222.74H230.754V217.246H229.275V216.538H233.009V217.246H231.531V222.74Z" fill="#111111"/>
<path d="M244.809 219.039V216.538H245.585V222.74H244.809V219.763H241.843V222.74H241.066V216.538H241.843V219.039H244.809Z" fill="#111111"/>
<path d="M254.215 216.538H257.56V217.246H254.991V218.981H257.486V219.689H254.991V222.033H257.56V222.74H254.215V216.538Z" fill="#111111"/>
<path d="M276.706 222.033H278.598V222.74H275.93V216.538H276.706V222.033Z" fill="#111111"/>
<path d="M286.621 216.538H289.966V217.246H287.398V218.981H289.892V219.689H287.398V222.033H289.966V222.74H286.621V216.538Z" fill="#111111"/>
<path d="M300.494 221.129L302.344 216.54H303.196L300.494 223.07L297.785 216.54H298.635L300.494 221.129Z" fill="#111111"/>
<path d="M311.234 216.538H314.58V217.246H312.011V218.981H314.505V219.689H312.011V222.033H314.58V222.74H311.234V216.538Z" fill="#111111"/>
<path d="M323.825 222.033H325.717V222.74H323.049V216.538H323.825V222.033Z" fill="#111111"/>
</g>
<defs>
<clipPath id="clip0_1932_764">
<rect width="405" height="416" rx="18.6577" fill="white"/>
</clipPath>
</defs>
</svg>
